<svg xmlns="http://www.w3.org/2000/svg" viewBox="0 0 50.34 12"><defs><style>.cls-1{fill:#0a0f0a;}.cls-2{fill:#172317;stroke:#000;stroke-miterlimit:10;stroke-width:0.25px;}</style></defs><g id="Layer_2" data-name="Layer 2"><g id="Layer_1-2" data-name="Layer 1"><g id="Layer_2-2" data-name="Layer 2"><g id="Layer_1-2-2" data-name="Layer 1-2"><polygon class="cls-1" points="50.34 0 38 1 21.58 0 13 1 5.49 0.42 0 0 0 12 50.3 12 50.34 0"/><path class="cls-2" d="M1.1,4.8s-1-3,0-3h3l2,2,1,2-4,1Z"/><path class="cls-2" d="M11.1,5.8l-2,2,2,2a2,2,0,0,0,0-4"/><path class="cls-2" d="M45.09,1.8l-4,2s-1,2,2,2a3,3,0,0,0,3-2.88V2.8l-1-1"/><path class="cls-2" d="M30.09,4.8s-3-2-5-2-6,2-4,3,4-2,4-2l5,1"/><path class="cls-2" d="M35.09,6.8s-3,1-2,2,4,1,4,0S37.09,6.8,35.09,6.8Z"/><path class="cls-2" d="M20.1,7.8s-3,0-2,1,6,1,5,0A4.88,4.88,0,0,0,20.1,7.8Z"/><path class="cls-2" d="M15.1,1.8s-2,0-2,1,3,1,3,0a1,1,0,0,0-1-1Z"/><path class="cls-2" d="M36.09,1.8s-2,0-2,1,3,2,3,1A3.51,3.51,0,0,0,36.09,1.8Z"/></g></g></g></g></svg>