<?xml version="1.0" encoding="UTF-8"?>
<svg xmlns="http://www.w3.org/2000/svg" viewBox="0 0 688.39 616.27">
  <defs>
    <style>
      .cls-1 {
        fill: #ad2a00;
        stroke: #ad2a00;
        stroke-width: .57px;
      }

      .cls-1, .cls-2, .cls-3, .cls-4 {
        stroke-miterlimit: 10;
      }

      .cls-2 {
        fill: #00327e;
        stroke: #002c6f;
      }

      .cls-3 {
        fill: #b6c1c6;
      }

      .cls-3, .cls-4 {
        stroke: #000a09;
      }

      .cls-5 {
        fill: #2f6faf;
        opacity: .2;
      }

      .cls-4 {
        fill: none;
      }
    </style>
  </defs>
  <g id="Layer_4" data-name="Layer 4">
    <path class="cls-3" d="M18.55,309.04l-3.73,19.23c.86,9.1,3.58,9.81,8.27,1.7l5.87-22.25c.81-3.12,1.36-6.02-1.38-6.36l-22.19-17.17-4.23,6.18,17.39,18.67Z"/>
    <polyline class="cls-1" points="10.15 287.93 5.26 294.32 4.26 293.03 8.5 286.84 10.15 287.93"/>
    <polygon class="cls-2" points="8.12 296.6 10.39 299.57 15.34 291.99 12.45 290.28 8.12 296.6"/>
    <path class="cls-4" d="M18.03,308.63l-3.73,19.23c.86,9.1,3.58,9.81,8.27,1.7l5.87-22.25c.81-3.12,1.36-6.02-1.38-6.36l-22.19-17.17-4.23,6.18,17.39,18.67Z"/>
  </g>
  <g id="Layer_6" data-name="Layer 6">
    <path class="cls-5" d="M18.05,308.77l-3.73,19.23c.86,9.1,3.58,9.81,8.27,1.7l5.87-22.25c.81-3.12,1.36-6.02-1.38-6.36l-22.19-17.17-4.23,6.18,17.39,18.67Z"/>
  </g>
</svg>