<?xml version="1.0" encoding="UTF-8"?>
<svg id="Layer_5" data-name="Layer 5" xmlns="http://www.w3.org/2000/svg" viewBox="0 0 872.44 640.2">
  <defs>
    <style>
      .cls-1 {
        fill: #006464;
        stroke: #006464;
      }

      .cls-1, .cls-2, .cls-3 {
        stroke-miterlimit: 10;
      }

      .cls-2 {
        fill: #c1272d;
      }

      .cls-2, .cls-3 {
        stroke: #1a1a1a;
      }

      .cls-3 {
        fill: #363636;
      }

      .cls-4 {
        fill: #5379ae;
        opacity: .2;
      }
    </style>
  </defs>
  <polyline class="cls-2" points="10.81 31.72 47.88 22.59 37.77 3.3 9.03 12.15"/>
  <path class="cls-1" d="M24.01,28.63c.07-4.04,1.75-7.59,5.69-10.41,1.46-2.69,1.32-5.98-1.2-10.18l3.47-1.12c2.4,3.53,3.15,7.14,1.67,10.85-4.74,3.64-6.64,7.46-4.82,9.95"/>
  <line class="cls-3" x1="21.71" y1="29.04" x2="32.95" y2="26.27"/>
  <polyline class="cls-4" points="11.37 31.27 48.44 22.13 38.33 2.85 9.6 11.69"/>
  <path class="cls-3" d="M12.99,31.72c-17.44-.38-15.86-20.28,0-20.28,10.97-1.56,14.17,18,0,20.28Z"/>
  <path class="cls-3" d="M17.4,21.58c.35-8.33-12.33-6.52-12.16,0,1.41,6.14,10.93,4.33,12.16,0Z"/>
  <path class="cls-4" d="M13.29,31.68c-17.44-.38-15.86-20.28,0-20.28,10.97-1.56,14.17,18,0,20.28Z"/>
</svg>