<?xml version="1.0" encoding="UTF-8"?>
<svg id="Layer_1" data-name="Layer 1" xmlns="http://www.w3.org/2000/svg" viewBox="0 0 649.45 616.27">
  <defs>
    <style>
      .cls-1 {
        fill: #5379ae;
        opacity: .2;
        stroke: #5379ae;
      }

      .cls-1, .cls-2 {
        stroke-miterlimit: 10;
      }

      .cls-2 {
        fill: #9d9d9d;
        stroke: #0c1600;
      }
    </style>
  </defs>
  <g>
    <path class="cls-2" d="M528.5,537.91c-4.12-1.33-5.61-4-4.48-8.02,2.95-2.01,5.44-1.52,7.46,1.43l1.52-2.69,4.19,3.78c4.65-2.22,8.41-2.65,10.23,.76-1.61,1.86,2.02,6.59-1.18,6.16-3.19-.43-3.22,2.55-3.22,2.55,1.78,2.92,2.64,6.2,2.77,9.78,1.82,2.01,2.4,4.65,2.37,7.61,1.79,3.6,4.99,8.5,8.34,13.53,1.49,3.85,1.49,7.43,.13,10.76-.89,2.73-.92,5.27-.38,7.69,.9,2.67,.69,6.53,.13,10.76-.67,5.37-1.61,7.74-2.7,8.43-1.03,2.9-3.15,3.98-6.15,3.6-3.04,.02-5.82,.35-7.93,1.47-1.17,.35-2.26,.36-3.27-.03l-20.94-3.93-7.93-2.18c-5.11-2.37-9.78-4.99-13.76-8-1.99-.07-3.75-.54-5.16-1.58-2.4-2.94-3.3-6.43-2.35-10.59,1.16-3.68,2.54-6.98,4.5-9.28,1.89-3,2.86-6.87,3.25-11.31,1.11-2.15,2.73-3.56,4.68-4.48,1.09-5.14,3.11-7.55,5.86-7.83,3.84-2.83,7.35-4.85,10.39-5.77l9.11-4.82,3.93-3.43c.95-1.61,1.09-3.06,.56-4.37Z"/>
    <path class="cls-2" d="M528.73,540.27c1.09-.1,2.11,.09,3.08,.59"/>
    <path class="cls-2" d="M534.59,541.76c1.47,.47,2.81,.66,3.8,.13"/>
    <path class="cls-2" d="M543.03,541.88c-.41,.97-1.14,.97-2.01,.51"/>
    <path class="cls-2" d="M498.64,564.13c-.39,3.41,.27,5.73,1.95,6.94"/>
    <path class="cls-2" d="M504.41,572.77c2.94,.35,5.36,.03,7.27-.97"/>
    <path class="cls-2" d="M507.33,587.27c-.23,8.58,4.54,12.85,12.55,14.33"/>
    <path class="cls-2" d="M511.26,583.84c6.28-1.65,12.12-2.1,17.39-1.01"/>
    <line class="cls-2" x1="526.12" y1="531.78" x2="528.63" y2="534.35"/>
    <line class="cls-2" x1="537.2" y1="532.41" x2="536.7" y2="535.01"/>
    <path class="cls-2" d="M541.91,606.4c4.11-.66,7.22-1.83,7.42-4.55"/>
    <path class="cls-2" d="M512.41,557.81c.47,1.74,1.67,2.23,3.47,1.69,.82-.25,1.21-1.28,.81-2.07-.47-.94,.6-2.27,.58-2.19,2.41-1.06,4.69-.44,6.88,1.31"/>
    <path class="cls-2" d="M539.79,548.83c2.26,4.9,2.95,8.92,2.56,12.31"/>
    <path class="cls-2" d="M549.22,577.07c1.15,2.22,1.28,4.25,.41,6.09"/>
    <path class="cls-2" d="M497.49,567.6c-.87-.19-1.62,.04-2.2,.86"/>
    <path class="cls-2" d="M495.24,570.52c.45-1.08,1.32-1.46,2.45-1.39"/>
    <path class="cls-2" d="M495.1,573c.66-1.56,1.93-2.11,3.6-2"/>
    <line class="cls-2" x1="547.04" y1="610.96" x2="545.76" y2="614.09"/>
    <line class="cls-2" x1="544.11" y1="612.09" x2="543.11" y2="614.39"/>
    <line class="cls-2" x1="541.51" y1="613.28" x2="540.71" y2="615.02"/>
    <line class="cls-2" x1="550.95" y1="610.51" x2="548.34" y2="614.11"/>
  </g>
  <path class="cls-1" d="M528.07,537.64c-4.12-1.33-5.61-4-4.48-8.02,2.95-2.01,5.44-1.52,7.46,1.43l1.52-2.69,4.19,3.78c4.65-2.22,8.41-2.65,10.23,.76-1.61,1.86,2.02,6.59-1.18,6.16-3.19-.43-3.22,2.55-3.22,2.55,1.78,2.92,2.64,6.2,2.77,9.78,1.82,2.01,2.4,4.65,2.37,7.61,1.79,3.6,4.99,8.5,8.34,13.53,1.49,3.85,1.49,7.43,.13,10.76-.89,2.73-.92,5.27-.38,7.69,.9,2.67,.69,6.53,.13,10.76-.67,5.37-1.61,7.74-2.7,8.43-1.03,2.9-3.15,3.98-6.15,3.6-3.04,.02-5.82,.35-7.93,1.47-1.17,.35-2.26,.36-3.27-.03l-20.94-3.93-7.93-2.18c-5.11-2.37-9.78-4.99-13.76-8-1.99-.07-3.75-.54-5.16-1.58-2.4-2.94-3.3-6.43-2.35-10.59,1.16-3.68,2.54-6.98,4.5-9.28,1.89-3,2.86-6.87,3.25-11.31,1.11-2.15,2.73-3.56,4.68-4.48,1.09-5.14,3.11-7.55,5.86-7.83,3.84-2.83,7.35-4.85,10.39-5.77l9.11-4.82,3.93-3.43c.95-1.61,1.09-3.06,.56-4.37Z"/>
</svg>