<?xml version="1.0" encoding="UTF-8"?>
<svg id="Layer_7" data-name="Layer 7" xmlns="http://www.w3.org/2000/svg" viewBox="0 0 872.44 640.2">
  <defs>
    <style>
      .cls-1 {
        fill: #5379ae;
        opacity: .2;
        stroke: #5379ae;
      }

      .cls-1, .cls-2 {
        stroke-miterlimit: 10;
      }

      .cls-2 {
        fill: #fffaef;
        stroke: #000203;
      }
    </style>
  </defs>
  <g>
    <path class="cls-2" d="M26.21,35.86l16.78-7.79c1.36-1.76,.58-2.49-2.17-2.29l-15.16,6.87c-6.7-.99-10.37,1.28-11.37,6.41,.87,1.58,2.86,1.82,5.41,1.37,3.67-.43,6.15-1.73,6.5-4.58Z"/>
    <path class="cls-2" d="M17.27,36.82c.94-1.81,2.72-2.72,5.35-2.72"/>
    <path class="cls-2" d="M19.32,36.82c.44-.52,1.14-.83,2.12-.91"/>
  </g>
  <path class="cls-1" d="M26.46,36.08l16.55-7.32c1.34-1.65,.57-2.34-2.14-2.15l-14.95,6.46c-6.61-.93-10.22,1.21-11.21,6.03,.86,1.48,2.82,1.71,5.34,1.29,3.62-.4,6.06-1.62,6.41-4.31Z"/>
</svg>