<?xml version="1.0" encoding="UTF-8"?>
<svg id="Layer_3" data-name="Layer 3" xmlns="http://www.w3.org/2000/svg" viewBox="0 0 872.44 640.2">
  <defs>
    <style>
      .cls-1 {
        stroke-width: .57px;
      }

      .cls-1, .cls-2, .cls-3, .cls-4, .cls-5, .cls-6 {
        stroke-miterlimit: 10;
      }

      .cls-1, .cls-4, .cls-5 {
        stroke: #000a09;
      }

      .cls-1, .cls-5 {
        fill: #473400;
      }

      .cls-2 {
        fill: #5389ae;
        opacity: .2;
        stroke: #5389ae;
      }

      .cls-3 {
        fill: #000b11;
        stroke: #000b11;
      }

      .cls-4 {
        fill: #fff;
      }

      .cls-6 {
        fill: #5279ae;
        opacity: .4;
        stroke: #5279ae;
      }
    </style>
  </defs>
  <path class="cls-4" d="M22.38,5.51l10,7c-.22,1.7-1.02,2.92-2,4-4.34,1.26-7.8,3.46-10,7-1.65,1.12-3.31,1.9-5,2-1.61-.19-3.11-.27-4.28,0l-4.72-4c-.46-2.98-.22-4.06,6-8,.13-.03,2.01-.79,5-2,2.02-1.86,3.73-3.85,5-6Z"/>
  <line class="cls-4" x1="22.38" y1="10.51" x2="27.38" y2="13.51"/>
  <line class="cls-4" x1="18.38" y1="12.51" x2="23.38" y2="15.51"/>
  <line class="cls-4" x1="14.38" y1="15.51" x2="19.3" y2="19.83"/>
  <line class="cls-4" x1="10.38" y1="18.51" x2="11.85" y2="19.83"/>
  <g>
    <line class="cls-3" x1="248.33" y1="612.91" x2="255.74" y2="606.13"/>
    <path class="cls-5" d="M243.69,620.53l-3.71-3.39,16.69-15.25c.21-3.05,1.61-5.84,3.71-8.47v6.78l22.25-10.16,1.85,1.69-12.98,6.78h7.42l-1.85,1.69-9.27,1.69c-8.25,4.78-16.25,11.24-24.1,18.63Z"/>
    <line class="cls-1" x1="255.74" y1="606.13" x2="249.25" y2="612.06"/>
  </g>
  <path class="cls-2" d="M21.71,5.94l10,7c-.22,1.7-1.02,2.92-2,4-4.34,1.26-7.8,3.46-10,7-1.65,1.12-3.31,1.9-5,2-1.61-.19-3.11-.27-4.28,0l-4.72-4c-.46-2.98-.22-4.06,6-8,.13-.03,2.01-.79,5-2,2.02-1.86,3.73-3.85,5-6Z"/>
  <path class="cls-6" d="M243.69,620.53l-3.71-3.39,16.69-15.25c.21-3.05,1.61-5.84,3.71-8.47v6.78l22.25-10.16,1.85,1.69-12.98,6.78h7.42l-1.85,1.69-9.27,1.69c-8.25,4.78-16.25,11.24-24.1,18.63Z"/>
</svg>