<?xml version="1.0" encoding="UTF-8"?>
<svg id="Layer_4" data-name="Layer 4" xmlns="http://www.w3.org/2000/svg" viewBox="0 0 872.44 640.2">
  <defs>
    <style>
      .cls-1 {
        fill: #ad2a00;
        stroke: #ad2a00;
        stroke-width: .57px;
      }

      .cls-1, .cls-2, .cls-3, .cls-4 {
        stroke-miterlimit: 10;
      }

      .cls-2 {
        fill: #00327e;
        stroke: #002c6f;
      }

      .cls-3 {
        fill: #b6c1c6;
      }

      .cls-3, .cls-4 {
        stroke: #000a09;
      }

      .cls-4 {
        fill: none;
      }
    </style>
  </defs>
  <path class="cls-3" d="M21.54,25.98l-3.73,19.23c.86,9.1,3.58,9.81,8.27,1.7l5.87-22.25c.81-3.12,1.36-6.02-1.38-6.36L8.38,1.13,4.15,7.31,21.54,25.98Z"/>
  <polyline class="cls-1" points="13.13 4.87 8.24 11.26 7.25 9.97 11.48 3.78 13.13 4.87"/>
  <polygon class="cls-2" points="11.11 13.54 13.38 16.51 18.33 8.93 15.44 7.22 11.11 13.54"/>
  <path class="cls-4" d="M21.02,25.57l-3.73,19.23c.86,9.1,3.58,9.81,8.27,1.7l5.87-22.25c.81-3.12,1.36-6.02-1.38-6.36L7.86,.72,3.62,6.9,21.02,25.57Z"/>
</svg>