<?xml version="1.0" encoding="UTF-8"?>
<svg id="Layer_18" data-name="Layer 18" xmlns="http://www.w3.org/2000/svg" xmlns:xlink="http://www.w3.org/1999/xlink" viewBox="0 0 516.48 709.68">
  <defs>
    <style>
      .cls-1 {
        fill: url(#linear-gradient);
        stroke: url(#linear-gradient-2);
        stroke-miterlimit: 10;
        stroke-width: .57px;
      }
    </style>
    <linearGradient id="linear-gradient" x1="243.73" y1="358.84" x2="243.55" y2="504.18" gradientUnits="userSpaceOnUse">
      <stop offset=".25" stop-color="#f7f0e8"/>
      <stop offset=".36" stop-color="#eae5df"/>
      <stop offset=".57" stop-color="#c8cbc7"/>
      <stop offset=".83" stop-color="#98a5a5"/>
    </linearGradient>
    <linearGradient id="linear-gradient-2" x1="269.52" y1="341.74" x2="215.94" y2="434.54" xlink:href="#linear-gradient"/>
  </defs>
  <path class="cls-1" d="m316.36,387.79c0-17.86-14.48-32.34-32.34-32.34-3.72,0-7.28.63-10.61,1.79h0s-.04.01-.07.02c-.75.26-1.49.55-2.21.86-14.81,5.16-35.02-.5-45.71-4.31-2.3-1.2-4.74-2.17-7.29-2.87-.01,0-.04-.02-.04-.02h0c-3.14-.86-6.45-1.33-9.87-1.33-20.55,0-37.2,16.66-37.2,37.2,0,16.16,10.3,29.9,24.7,35.04h0c51.25,21.61,99.67-1.35,100.55-4.1h0c12.1-6.4,20.1-16.41,20.1-29.94Z"/>
</svg>