<?xml version="1.0" encoding="UTF-8"?>
<svg xmlns="http://www.w3.org/2000/svg" xmlns:xlink="http://www.w3.org/1999/xlink" viewBox="0 0 516.48 709.68">
  <defs>
    <style>
      .cls-1 {
        fill: #fff;
      }

      .cls-2 {
        stroke: #000;
      }

      .cls-2, .cls-3 {
        stroke-miterlimit: 10;
        stroke-width: .57px;
      }

      .cls-3 {
        fill: url(#linear-gradient);
        stroke: url(#linear-gradient-2);
      }
    </style>
    <linearGradient id="linear-gradient" x1="353.61" y1="371.5" x2="377.56" y2="397.86" gradientUnits="userSpaceOnUse">
      <stop offset=".25" stop-color="#f7f0e8"/>
      <stop offset=".36" stop-color="#eae5df"/>
      <stop offset=".57" stop-color="#c8cbc7"/>
      <stop offset=".83" stop-color="#98a5a5"/>
    </linearGradient>
    <linearGradient id="linear-gradient-2" x1="346.31" y1="377.88" x2="377.45" y2="377.88" xlink:href="#linear-gradient"/>
  </defs>
  <g id="Layer_26" data-name="Layer 26">
    <path class="cls-3" d="m376.83,381.6c-2.36-1.3-16.6-14.76-16.6-14.76h0c-1.44-1.52-3.47-2.47-5.73-2.47-4.36,0-7.9,3.54-7.9,7.9,0,1.02.2,1.98.55,2.88h0c5.96,19.71,19.67,15.94,19.67,15.94,13.22-2.43,10.02-9.49,10.02-9.49Z"/>
  </g>
  <g id="Layer_28" data-name="Layer 28">
    <path d="m356.15,370.95c0-.3-.08-.59-.19-.87-.01-.91-.69-1.68-1.61-1.79-.54-.06-1.05.13-1.42.46-.29.12-.56.28-.79.51,0,.3.08.59.19.87.01.91.69,1.68,1.61,1.79.54.06,1.05-.13,1.42-.46.29-.12.56-.28.79-.51Z"/>
    <circle class="cls-1" cx="353.67" cy="369.63" r=".53"/>
    <path class="cls-2" d="m376.6,381.42l-2.23-1.74c-.29-.23-.7-.23-.98,0-.84.71-1.97,2.52,2.28,5.86.44.34,1.1.16,1.26-.37.2-.66.31-1.71-.03-3.29-.04-.18-.15-.35-.29-.47Z"/>
  </g>
</svg>