<svg xmlns="http://www.w3.org/2000/svg" xmlns:xlink="http://www.w3.org/1999/xlink" viewBox="0 0 516.5 709.7"><defs><linearGradient id="a" x1="311.9" x2="336.6" y1="456" y2="482.6" gradientUnits="userSpaceOnUse"><stop offset=".3" stop-color="#f7f0e8"/><stop offset=".4" stop-color="#eae5df"/><stop offset=".6" stop-color="#c8cbc7"/><stop offset=".8" stop-color="#98a5a5"/></linearGradient><linearGradient xlink:href="#a" id="b" x1="304.9" x2="341.8" y1="464.8" y2="464.8"/></defs><path fill="url(#a)" stroke="url(#b)" stroke-miterlimit="10" stroke-width=".6" d="M339.3 466.6a4 4 0 0 0-2.8-2c-6.8-2-11.3-4.7-14-6.6a9.6 9.6 0 1 0-10.1 15.4l.8.3c11.1 3.9 23.4-1.3 23.4-1.3s5.1-1.7 4.8-3c0-.7-1.1-1.9-2.1-2.9Z" data-name="Layer 22 copy"/><g data-name="Layer 29 copy"><path d="M340.7 468.5s1.9 1.9-.2 2.5c0 0 0-2.1-2.3-2.8 0 0-.2-1.2.8-.9s1.7 1.2 1.7 1.2ZM339.2 469.9s1.7 1.3 0 1.8c0 0-.2-1.5-2.1-2 0 0-.1-1 .7-.8s1.4 1 1.4 1ZM337.5 470.8s1.6 1.2-.1 1.7c0 0 0-1.3-2-1.9 0 0 0-1 .7-.7s1.4 1 1.4 1Z"/></g></svg>