<?xml version="1.0" encoding="UTF-8"?>
<svg id="Layer_14" data-name="Layer 14" xmlns="http://www.w3.org/2000/svg" xmlns:xlink="http://www.w3.org/1999/xlink" viewBox="0 0 516.48 709.68">
  <defs>
    <style>
      .cls-1 {
        fill: url(#radial-gradient);
        stroke: url(#linear-gradient);
        stroke-miterlimit: 10;
      }
    </style>
    <radialGradient id="radial-gradient" cx="273.33" cy="284.45" fx="273.33" fy="284.45" r="398.74" gradientUnits="userSpaceOnUse">
      <stop offset="0" stop-color="#f6f6ed"/>
      <stop offset=".09" stop-color="#ecf1e9"/>
      <stop offset=".24" stop-color="#d1e4e1"/>
      <stop offset=".44" stop-color="#a6d0d3"/>
      <stop offset=".67" stop-color="#6ab3bf"/>
      <stop offset=".93" stop-color="#1f8fa7"/>
      <stop offset=".96" stop-color="#188ca5"/>
    </radialGradient>
    <linearGradient id="linear-gradient" x1="222.49" y1="542.57" x2="391.63" y2="249.61" gradientUnits="userSpaceOnUse">
      <stop offset="0" stop-color="#f6f6ed"/>
      <stop offset=".09" stop-color="#ecf1e9"/>
      <stop offset=".24" stop-color="#d1e4e1"/>
      <stop offset=".44" stop-color="#a6d0d3"/>
      <stop offset=".67" stop-color="#6ab3bf"/>
      <stop offset=".93" stop-color="#1f8fa7"/>
      <stop offset=".96" stop-color="#188ca5"/>
    </linearGradient>
  </defs>
  <path class="cls-1" d="m272.06,181.19c1.79,1.81,7.26,7.37,8.49,9.15.05.08.09.16.11.25.37,1.59,3.98,16.7,10.47,24.7.03.04.05.07.07.11.46.91,6.26,12.38,7.18,17.12.05.25.08.48.1.68.42,4.36,5.34,6.33,5.34,6.33,0,0,.28-3.05,8.82,19.22.09.25.27.47.51.58.83.4,3.08,2.25,4.88,10.57,0,0-.28,5.06,13.48-2.8.01,0,.02-.01.04-.02.32-.21,5.39-3.48,7.44-2.66s10.25,10.79,10.92,11.62c.03.04.05.07.08.12.45.86,5.6,10.6,8.83,13.16s5.06,9.35,5.32,10.3c.02.07.05.14.09.2.55.88,4.94,7.8,7.36,9.36.12.08.21.17.27.29.7,1.45,5.32,11.08,7.79,17.96,2.63,7.34,10.44,15.22,12.83,15.73.08.02.13.04.19.1.87.95,9.05,10.06,13.33,20.09.06.14.16.26.29.34,1.21.73,7.62,4.55,9.99,4.79.15.01.28.04.42.11,1.17.55,7.14,3.45,11.07,6.7.08.07.17.11.27.14,1.47.4,13.4,3.58,16.83,2.82.12-.03.23-.03.35,0,.72.2,3.51.94,5.67.95.3,0,.56.16.69.42.96,2.05,4.92,10.84,4.87,15.29,0,.19.07.37.2.5.91.87,4.42,4.54,5.36,9.77.03.18.13.35.28.46,1.53,1.16,10.21,8.12,9.05,16.85,0,0-.65,10.55,2.07,15.05,0,0,10.56,12.76-7.89,23.86-.05.03-.11.06-.17.08-3.04.97-88.09,27.81-126.62,27.4,0,0-129.23,4.46-141.84.08-.14-.05-.26-.07-.4-.07-5.71.02-126.15-.06-111.47-48.73.01-.05.02-.09.03-.14.08-.99,1.25-13.52,13.2-26.05.02-.03.04-.05.06-.08.72-1.04,15.4-22.16,15.83-25.5,0-.03,0-.06,0-.09.02-.48.45-5.49,9.27-8.58.18-.06.34-.2.42-.37,1.07-2.25,8.7-17.88,16.07-19.51.17-.04.32-.12.42-.26,1.37-1.78,10.9-14.44,12.07-22.21,0,0,2.53-17.76,15.57-29.71.02-.02.05-.04.07-.06.5-.36,6.09-4.49,6.44-7.67.04-.37.34-.64.71-.66,1.23-.05,3.65.08,4.07,1.74,0,0,1.26,5.3,16.56-3.7.11-.06.2-.15.27-.26,1.37-2.27,17.02-28.31,19.17-38.94,0,0,5.2-19.97,10.97-20.39,0,0,6.19-2.81,8.16-5.34,1.84-2.37,8.96-2.52,9.89-2.53.07,0,.13,0,.2-.03.98-.3,8.91-3.18,15.76-19.58.02-.05.04-.1.05-.16.18-1.04,2.29-12.42,6.31-14.97,3.66-2.32,2.13-8.56,1.66-10.16-.07-.24-.01-.5.15-.7l2.58-3c.29-.33.79-.36,1.1-.04Z"/>
</svg>