<?xml version="1.0" encoding="UTF-8"?>
<svg xmlns="http://www.w3.org/2000/svg" xmlns:xlink="http://www.w3.org/1999/xlink" viewBox="0 0 516.48 709.68">
  <defs>
    <style>
      .cls-1 {
        fill: url(#linear-gradient);
        stroke: url(#linear-gradient-2);
        stroke-miterlimit: 10;
        stroke-width: .57px;
      }
    </style>
    <linearGradient id="linear-gradient" x1="311.93" y1="456" x2="336.6" y2="482.62" gradientUnits="userSpaceOnUse">
      <stop offset=".25" stop-color="#f7f0e8"/>
      <stop offset=".36" stop-color="#eae5df"/>
      <stop offset=".57" stop-color="#c8cbc7"/>
      <stop offset=".83" stop-color="#98a5a5"/>
    </linearGradient>
    <linearGradient id="linear-gradient-2" x1="304.89" y1="464.76" x2="341.75" y2="464.76" xlink:href="#linear-gradient"/>
  </defs>
  <g id="Layer_22_copy" data-name="Layer 22 copy">
    <path class="cls-1" d="m339.27,466.56c-.57-1.02-1.57-1.77-2.77-1.97-6.79-2.05-11.35-4.65-14.07-6.56-1.77-2.24-4.51-3.68-7.58-3.68-5.34,0-9.67,4.33-9.67,9.67,0,4.48,3.06,8.24,7.19,9.34.26.12.53.23.82.33,11.11,3.88,23.41-1.29,23.41-1.29,0,0,5.13-1.67,4.85-3.01-.14-.69-1.2-1.86-2.19-2.84Z"/>
  </g>
  <g id="Layer_29_copy" data-name="Layer 29 copy">
    <path d="m340.69,468.49s1.87,1.86-.18,2.46c0,0,.01-2.07-2.33-2.72,0,0-.15-1.25.84-.89s1.67,1.15,1.67,1.15Z"/>
    <path d="m339.17,469.88s1.74,1.31.04,1.81c0,0-.18-1.49-2.12-2.03,0,0-.12-1.04.7-.74s1.38.95,1.38.95Z"/>
    <path d="m337.52,470.82s1.57,1.17-.12,1.67c0,0-.02-1.34-1.96-1.89,0,0-.12-1.04.7-.74s1.38.95,1.38.95Z"/>
  </g>
</svg>