<?xml version="1.0" encoding="UTF-8"?>
<svg id="Layer_24" data-name="Layer 24" xmlns="http://www.w3.org/2000/svg" xmlns:xlink="http://www.w3.org/1999/xlink" viewBox="0 0 516.48 709.68">
  <defs>
    <style>
      .cls-1 {
        fill: url(#linear-gradient);
        stroke: url(#linear-gradient-2);
        stroke-miterlimit: 10;
        stroke-width: .57px;
      }
    </style>
    <linearGradient id="linear-gradient" x1="159.24" y1="382.31" x2="178.82" y2="389.76" gradientTransform="translate(70.25 -23.84) rotate(10.08)" gradientUnits="userSpaceOnUse">
      <stop offset=".25" stop-color="#f7f0e8"/>
      <stop offset=".36" stop-color="#eae5df"/>
      <stop offset=".57" stop-color="#c8cbc7"/>
      <stop offset=".83" stop-color="#98a5a5"/>
    </linearGradient>
    <linearGradient id="linear-gradient-2" x1="163.07" y1="382.21" x2="173.68" y2="388.56" gradientTransform="matrix(1,0,0,1,0,0)" xlink:href="#linear-gradient"/>
  </defs>
  <path class="cls-1" d="m174.97,375.49c.08-.19.13-.39.17-.6.29-1.64-.8-3.21-2.45-3.51-1.17-.21-2.29.29-2.95,1.18-3.69,3.52-10.5,18.55-10.5,18.55,0,0,0,0,0,0-.19.41-.33.84-.41,1.3-.52,2.94,1.44,5.75,4.38,6.28s5.75-1.44,6.28-4.38c0,0,0,0,0-.01,1.8-5.03,5.48-18.78,5.48-18.78,0,0,0-.01,0-.04Z"/>
</svg>