<?xml version="1.0" encoding="UTF-8"?>
<svg xmlns="http://www.w3.org/2000/svg" xmlns:xlink="http://www.w3.org/1999/xlink" viewBox="0 0 516.48 709.68">
  <defs>
    <style>
      .cls-1 {
        fill: url(#radial-gradient);
        stroke: url(#linear-gradient);
      }

      .cls-1, .cls-2, .cls-3, .cls-4, .cls-5 {
        stroke-miterlimit: 10;
      }

      .cls-2 {
        fill: url(#linear-gradient-6);
        stroke: url(#linear-gradient-7);
      }

      .cls-2, .cls-3, .cls-4, .cls-5 {
        stroke-width: .57px;
      }

      .cls-3 {
        fill: url(#linear-gradient-2);
        stroke: url(#linear-gradient-3);
      }

      .cls-4 {
        fill: url(#linear-gradient-8);
        stroke: url(#linear-gradient-9);
      }

      .cls-5 {
        fill: url(#linear-gradient-4);
        stroke: url(#linear-gradient-5);
      }
    </style>
    <radialGradient id="radial-gradient" cx="273.33" cy="284.45" fx="273.33" fy="284.45" r="398.74" gradientUnits="userSpaceOnUse">
      <stop offset="0" stop-color="#f6f6ed"/>
      <stop offset=".09" stop-color="#ecf1e9"/>
      <stop offset=".24" stop-color="#d1e4e1"/>
      <stop offset=".44" stop-color="#a6d0d3"/>
      <stop offset=".67" stop-color="#6ab3bf"/>
      <stop offset=".93" stop-color="#1f8fa7"/>
      <stop offset=".96" stop-color="#188ca5"/>
    </radialGradient>
    <linearGradient id="linear-gradient" x1="222.49" y1="542.57" x2="391.63" y2="249.61" gradientUnits="userSpaceOnUse">
      <stop offset="0" stop-color="#f6f6ed"/>
      <stop offset=".09" stop-color="#ecf1e9"/>
      <stop offset=".24" stop-color="#d1e4e1"/>
      <stop offset=".44" stop-color="#a6d0d3"/>
      <stop offset=".67" stop-color="#6ab3bf"/>
      <stop offset=".93" stop-color="#1f8fa7"/>
      <stop offset=".96" stop-color="#188ca5"/>
    </linearGradient>
    <linearGradient id="linear-gradient-2" x1="244.29" y1="227.29" x2="343.9" y2="277.04" gradientUnits="userSpaceOnUse">
      <stop offset="0" stop-color="#f6f6ed"/>
      <stop offset=".03" stop-color="#ecf2ea"/>
      <stop offset=".07" stop-color="#d1eae4"/>
      <stop offset=".12" stop-color="#a6dddb"/>
      <stop offset=".19" stop-color="#6acbcd"/>
      <stop offset=".26" stop-color="#1fb4bc"/>
      <stop offset=".26" stop-color="#19b2bb"/>
      <stop offset=".44" stop-color="#18a5b3"/>
      <stop offset=".68" stop-color="#188ca5"/>
      <stop offset=".92" stop-color="#0c435b"/>
      <stop offset="1" stop-color="#082940"/>
    </linearGradient>
    <linearGradient id="linear-gradient-3" x1="270.43" y1="252.05" x2="342.2" y2="252.05" gradientUnits="userSpaceOnUse">
      <stop offset="0" stop-color="#f6f6ed"/>
      <stop offset=".09" stop-color="#ecf2ea"/>
      <stop offset=".25" stop-color="#d1eae4"/>
      <stop offset=".46" stop-color="#a6dddb"/>
      <stop offset=".7" stop-color="#6acbcd"/>
      <stop offset=".98" stop-color="#1fb4bc"/>
      <stop offset="1" stop-color="#19b2bb"/>
    </linearGradient>
    <linearGradient id="linear-gradient-4" x1="346.13" y1="367.51" x2="474.27" y2="367.51" gradientUnits="userSpaceOnUse">
      <stop offset="0" stop-color="#f6f6ed"/>
      <stop offset=".02" stop-color="#ecf2ea"/>
      <stop offset=".04" stop-color="#d1eae4"/>
      <stop offset=".07" stop-color="#a6dddb"/>
      <stop offset=".11" stop-color="#6acbcd"/>
      <stop offset=".16" stop-color="#1fb4bc"/>
      <stop offset=".16" stop-color="#19b2bb"/>
      <stop offset=".33" stop-color="#18a5b3"/>
      <stop offset=".56" stop-color="#188ca5"/>
      <stop offset=".89" stop-color="#0c435b"/>
      <stop offset="1" stop-color="#082940"/>
    </linearGradient>
    <linearGradient id="linear-gradient-5" x1="345.84" y1="367.51" x2="474.56" y2="367.51" xlink:href="#linear-gradient-3"/>
    <linearGradient id="linear-gradient-6" x1="178.01" y1="327.03" x2="245.69" y2="238.22" gradientUnits="userSpaceOnUse">
      <stop offset=".01" stop-color="#082940"/>
      <stop offset=".34" stop-color="#188ca5"/>
      <stop offset=".66" stop-color="#19b2bb"/>
      <stop offset=".69" stop-color="#25b5bd"/>
      <stop offset=".75" stop-color="#47c0c5"/>
      <stop offset=".83" stop-color="#7ed1d1"/>
      <stop offset=".92" stop-color="#c9e8e2"/>
      <stop offset=".97" stop-color="#f6f6ed"/>
    </linearGradient>
    <linearGradient id="linear-gradient-7" x1="169.67" y1="279.3" x2="256.46" y2="279.3" gradientUnits="userSpaceOnUse">
      <stop offset=".55" stop-color="#19b2bb"/>
      <stop offset=".59" stop-color="#25b5bd"/>
      <stop offset=".68" stop-color="#47c0c5"/>
      <stop offset=".79" stop-color="#7ed1d1"/>
      <stop offset=".92" stop-color="#c9e8e2"/>
      <stop offset="1" stop-color="#f6f6ed"/>
    </linearGradient>
    <linearGradient id="linear-gradient-8" x1="109.36" y1="474.35" x2="146.24" y2="364.3" xlink:href="#linear-gradient-6"/>
    <linearGradient id="linear-gradient-9" x1="160.35" y1="475.1" x2="100.68" y2="371.75" xlink:href="#linear-gradient-7"/>
  </defs>
  <g id="Layer_14" data-name="Layer 14">
    <path class="cls-1" d="m272.06,181.19c1.79,1.81,7.26,7.37,8.49,9.15.05.08.09.16.11.25.37,1.59,3.98,16.7,10.47,24.7.03.04.05.07.07.11.46.91,6.26,12.38,7.18,17.12.05.25.08.48.1.68.42,4.36,5.34,6.33,5.34,6.33,0,0,.28-3.05,8.82,19.22.09.25.27.47.51.58.83.4,3.08,2.25,4.88,10.57,0,0-.28,5.06,13.48-2.8.01,0,.02-.01.04-.02.32-.21,5.39-3.48,7.44-2.66s10.25,10.79,10.92,11.62c.03.04.05.07.08.12.45.86,5.6,10.6,8.83,13.16s5.06,9.35,5.32,10.3c.02.07.05.14.09.2.55.88,4.94,7.8,7.36,9.36.12.08.21.17.27.29.7,1.45,5.32,11.08,7.79,17.96,2.63,7.34,10.44,15.22,12.83,15.73.08.02.13.04.19.1.87.95,9.05,10.06,13.33,20.09.06.14.16.26.29.34,1.21.73,7.62,4.55,9.99,4.79.15.01.28.04.42.11,1.17.55,7.14,3.45,11.07,6.7.08.07.17.11.27.14,1.47.4,13.4,3.58,16.83,2.82.12-.03.23-.03.35,0,.72.2,3.51.94,5.67.95.3,0,.56.16.69.42.96,2.05,4.92,10.84,4.87,15.29,0,.19.07.37.2.5.91.87,4.42,4.54,5.36,9.77.03.18.13.35.28.46,1.53,1.16,10.21,8.12,9.05,16.85,0,0-.65,10.55,2.07,15.05,0,0,10.56,12.76-7.89,23.86-.05.03-.11.06-.17.08-3.04.97-88.09,27.81-126.62,27.4,0,0-129.23,4.46-141.84.08-.14-.05-.26-.07-.4-.07-5.71.02-126.15-.06-111.47-48.73.01-.05.02-.09.03-.14.08-.99,1.25-13.52,13.2-26.05.02-.03.04-.05.06-.08.72-1.04,15.4-22.16,15.83-25.5,0-.03,0-.06,0-.09.02-.48.45-5.49,9.27-8.58.18-.06.34-.2.42-.37,1.07-2.25,8.7-17.88,16.07-19.51.17-.04.32-.12.42-.26,1.37-1.78,10.9-14.44,12.07-22.21,0,0,2.53-17.76,15.57-29.71.02-.02.05-.04.07-.06.5-.36,6.09-4.49,6.44-7.67.04-.37.34-.64.71-.66,1.23-.05,3.65.08,4.07,1.74,0,0,1.26,5.3,16.56-3.7.11-.06.2-.15.27-.26,1.37-2.27,17.02-28.31,19.17-38.94,0,0,5.2-19.97,10.97-20.39,0,0,6.19-2.81,8.16-5.34,1.84-2.37,8.96-2.52,9.89-2.53.07,0,.13,0,.2-.03.98-.3,8.91-3.18,15.76-19.58.02-.05.04-.1.05-.16.18-1.04,2.29-12.42,6.31-14.97,3.66-2.32,2.13-8.56,1.66-10.16-.07-.24-.01-.5.15-.7l2.58-3c.29-.33.79-.36,1.1-.04Z"/>
  </g>
  <g id="Layer_16" data-name="Layer 16">
    <path class="cls-3" d="m276.89,232.87c.29,1.57.84,3.09,1.62,4.48l2.48,4.45c.05,2.8,8.52,11.11,8.44,17.81-.03,2.59,3.32,14.4,3.47,14.06.69-1.61,3.15-7.55,3.38-5.81l11.53,39.09c.21,1.55,4.46,4.38,5.91,4.97,2.44.99.32,10.93,2.44,11.81.89.37,2.15-1.82,2.56-2.69,2.51-5.46,10.68-23.75,11.13-31.73,0-.06,0-.1.02-.16.19-1.07,2.41-12.72,7.61-12.87.64-.02,1.23-.31,1.53-.88,1.23-2.34,4.03-8.13,2.47-9.32,0,0-1.12-1.72-2.39-2.04,0,0-1.05-1.08-6.44,1.9-.04.02-.07.04-.11.06-.61.4-6.85,4.42-10.43,4.79,0,0-3.48,1.3-3.66-1.02,0,0-1.81-9.07-4.65-10.68-.41-.23-.74-.56-.9-.99-1.03-2.84-4.61-12.62-5.46-13.72-.09-.12-.16-.24-.21-.38-.52-1.25-2.65-6.2-3.54-5.06,0,0-4.36-1.86-4.89-6.43,0,0-4.15-13.96-7.21-17.44,0,0-4.85-6.29-6.79-12.73,0,0-3.27-8.94-3.63-11.56-.05-.33-.16-.64-.37-.9-1.7-2.17-9.26-11.66-10.07-9.16,0,0,2.21,10.19,2.34,15.8.06,2.43-1.28.77-1.26.93.17,1.3,4.44,8.97,1.12,10.78-1.03.56-.63,3.03-.56,3.19.85,1.86,4.88,10.31,3.66,16.78l.87,4.66Z"/>
    <path class="cls-5" d="m363.31,350.29l4.81,31.35c.01.08.12.09.14.01l2.2-7.18c.13-1.05,1.34-1.58,2.2-.96,7.24,5.28,22.5,33.62,45.28,34.18,0,0,13.36-8.91,11.67-1.69s5.91,20.39,5.91,20.39c9.66,3.38,11.62,22.22,11.62,22.22,9.84-6.85,8.25,13.78,10.28,11.29,1.33-1.64,2.87-3.07,4.76-4.02,5.03-2.52,9.65-11.42,11.66-15.73.58-1.25.55-2.69-.11-3.9-2.88-5.24-1.75-16.9-1.75-16.9-.94-8.16-9.66-14.16-9.66-14.16-1.41-7.69-5.44-9.75-5.44-9.75.31-4.9-3.39-12.86-4.75-15.61-.31-.63-.9-1.06-1.58-1.18-1.94-.34-5.57-.92-5.57-.92-1.69.47-17.25-2.81-17.25-2.81-2.06-2.72-11.06-6.75-11.06-6.75-2.06-.09-10.22-4.87-10.22-4.87-1.87-8.53-13.78-20.53-13.78-20.53-6.28-3.38-11.91-12.19-12.47-15.28-.56-3.09-8.06-18.47-8.06-18.47-1.69-.37-7.69-9.28-7.69-9.28-1.03-6-5.06-10.59-5.06-10.59-2.34-1.03-9.28-13.22-9.28-13.22-9.38-6.94.66,23.16.66,23.16,0,0,5.81,13.5,7.41,28.88.61,5.84,3.25,15.79,5.12,22.33"/>
    <path class="cls-2" d="m244.5,229.32s-8.37-.42-10.97,3.23c0,0-6.05,3.94-9.14,5.2s-7.24,13.01-7.24,13.01l-4.36,11.95-16.73,34.03s-8.72,4.71-11.88,5.27c0,0-4.57.7-4.78-2.04,0,0-3.02-2.25-4.85-.91,0,0-.35-.61-1.76,3.03,0,0-.98,2.24-2.81,3.15,0,0,.84,10.05,9.7,11.81,0,0,9.21,12.8,8.93,20.6s7.88,2.88,9.42-10.27c0,0,1.2-18.35,6.26-24.26,0,0,10.76-13.78,13.5-23.06,0,0,6.68-22.43,12.59-24.89,0,0,6.96-16.31,14.13-20.53s10.41-11.53,10.76-13.78l.63-2.74s-7.59,9.91-11.39,11.18Z"/>
    <path class="cls-4" d="m138.52,359.12c-.37.06-7.13,1.42-14.91,19.23-.28.65-.83,1.15-1.52,1.32-1.91.48-6.18,2.3-10.28,9.12,0,0-15.47,25.31-18.7,26.44h0s-6.94,12.11-7.03,15.33-6.25,17.33-2.6,23.34c0,0,11.04,22.22,61.53,27.98,0,0-23.02-7.81-25.52-27.21-.03-.25-1.53-3.62-1.48-3.87,3.16-13.64-2.53,4.29,13.17-28.17.03-.05,3.32-4.36,3.28-4.31-.85,1.14-9.11,1.2-2.81-13.78.05-.12-10.95,4.16-10.93,4.03l15.43-11.34s6.72-10.41,6.72-10.47c-.04-2.05-10.63,7.09-10.38,6.81,1.36-1.49.28-7.7,3.63-10.92,2.04-1.96,3.54-4.4,4.71-6.97,2.59-5.66,6.21-13.89,6.57-16.56.43-3.19,1.62-10.89,2.17-14.45.07-.46-.52-.69-.79-.31l-10.23,14.74s-.01.02-.03.02Z"/>
  </g>
</svg>