<svg xmlns="http://www.w3.org/2000/svg" data-name="Layer 21" viewBox="0 0 516.5 709.7"><defs><radialGradient id="a" cx="331.4" cy="376.6" r="65.1" fx="331.4" fy="376.6" gradientUnits="userSpaceOnUse"><stop offset=".3" stop-color="#f7f0e8"/><stop offset=".4" stop-color="#eae5df"/><stop offset=".6" stop-color="#c8cbc7"/><stop offset=".8" stop-color="#98a5a5"/></radialGradient><linearGradient id="b" x1="274.1" x2="362.6" y1="378.3" y2="378.3" gradientUnits="userSpaceOnUse"><stop offset=".3" stop-color="#98a5a5"/><stop offset=".3" stop-color="#a1acab"/><stop offset=".5" stop-color="#bcc1be"/><stop offset=".7" stop-color="#e6e3dc"/><stop offset=".7" stop-color="#f7f0e8"/></linearGradient></defs><path fill="url(#a)" stroke="url(#b)" stroke-miterlimit="10" stroke-width=".6" d="M362.3 372a17.5 17.5 0 0 0-22.8-16.8 228 228 0 0 1-40 1.8 19.7 19.7 0 0 0-7-.6c-10.1 1-18 9.4-18 19.8 0 11 7.8 25.9 18.8 25.9 8.8 1 21.3-3.9 21.3-3.9 8-3.6 12.2-6.8 12.2-6.8 8.8.9 15.8-1.5 19.6-2 1.5-.2 3-.5 4.3-1l1-.4a17.5 17.5 0 0 0 10.6-16Z"/></svg>