<?xml version="1.0" encoding="UTF-8"?>
<svg id="Layer_15" data-name="Layer 15" xmlns="http://www.w3.org/2000/svg" viewBox="0 0 516.48 709.68">
  <defs>
    <style>
      .cls-1 {
        fill: #19b6bd;
      }
    </style>
  </defs>
  <path class="cls-1" d="m269.93,432.85c-7.77,0-15.38.12-22.8.35l-1.43,4.61-2.4-4.47c-1.5.05-3,.1-4.48.16-11.27.48-22.03,1.2-32.08,2.15l3.2,9.67-4.87-9.51c-8.72.85-16.89,1.87-24.4,3.02l3.87,4.9-8.6-4.13c-3.82.64-7.46,1.33-10.87,2.04l1.28,1.53-2.86-1.19c-20.72,4.51-33.23,10.36-33.23,16.75,0,14.29,62.54,25.88,139.69,25.88s139.69-11.58,139.69-25.88-62.54-25.88-139.69-25.88Z"/>
</svg>