<?xml version="1.0" encoding="UTF-8"?>
<svg xmlns="http://www.w3.org/2000/svg" xmlns:xlink="http://www.w3.org/1999/xlink" viewBox="0 0 516.48 709.68">
  <defs>
    <style>
      .cls-1 {
        fill: #fff;
      }

      .cls-2 {
        fill: url(#linear-gradient-6);
        stroke: url(#linear-gradient-7);
      }

      .cls-2, .cls-3, .cls-4, .cls-5, .cls-6 {
        stroke-miterlimit: 10;
        stroke-width: .57px;
      }

      .cls-3 {
        fill: url(#linear-gradient-2);
        stroke: url(#linear-gradient-3);
      }

      .cls-4 {
        fill: url(#radial-gradient);
        stroke: url(#linear-gradient);
      }

      .cls-5 {
        stroke: #000;
      }

      .cls-6 {
        fill: url(#linear-gradient-4);
        stroke: url(#linear-gradient-5);
      }
    </style>
    <radialGradient id="radial-gradient" cx="331.43" cy="376.63" fx="331.43" fy="376.63" r="65.11" gradientUnits="userSpaceOnUse">
      <stop offset=".25" stop-color="#f7f0e8"/>
      <stop offset=".36" stop-color="#eae5df"/>
      <stop offset=".57" stop-color="#c8cbc7"/>
      <stop offset=".83" stop-color="#98a5a5"/>
    </radialGradient>
    <linearGradient id="linear-gradient" x1="274.14" y1="378.32" x2="362.55" y2="378.32" gradientUnits="userSpaceOnUse">
      <stop offset=".25" stop-color="#98a5a5"/>
      <stop offset=".33" stop-color="#a1acab"/>
      <stop offset=".47" stop-color="#bcc1be"/>
      <stop offset=".66" stop-color="#e6e3dc"/>
      <stop offset=".72" stop-color="#f7f0e8"/>
    </linearGradient>
    <linearGradient id="linear-gradient-2" x1="320.09" y1="356.04" x2="337.61" y2="360.63" gradientUnits="userSpaceOnUse">
      <stop offset=".51" stop-color="#f7f0e8"/>
      <stop offset=".59" stop-color="#eae5df"/>
      <stop offset=".75" stop-color="#c8cbc7"/>
      <stop offset=".94" stop-color="#98a5a5"/>
    </linearGradient>
    <linearGradient id="linear-gradient-3" x1="319.2" y1="358.36" x2="337.88" y2="358.36" gradientUnits="userSpaceOnUse">
      <stop offset=".09" stop-color="#f7f0e8"/>
      <stop offset=".26" stop-color="#eae5df"/>
      <stop offset=".56" stop-color="#c8cbc7"/>
      <stop offset=".93" stop-color="#98a5a5"/>
    </linearGradient>
    <linearGradient id="linear-gradient-4" x1="323.34" y1="364.94" x2="333.43" y2="353.34" gradientUnits="userSpaceOnUse">
      <stop offset=".25" stop-color="#f7f0e8"/>
      <stop offset=".39" stop-color="#eae5df"/>
      <stop offset=".64" stop-color="#c8cbc7"/>
      <stop offset=".94" stop-color="#98a5a5"/>
    </linearGradient>
    <linearGradient id="linear-gradient-5" x1="319.99" y1="360.11" x2="334.69" y2="360.11" xlink:href="#linear-gradient-3"/>
    <linearGradient id="linear-gradient-6" x1="353.61" y1="371.5" x2="377.56" y2="397.86" gradientUnits="userSpaceOnUse">
      <stop offset=".25" stop-color="#f7f0e8"/>
      <stop offset=".36" stop-color="#eae5df"/>
      <stop offset=".57" stop-color="#c8cbc7"/>
      <stop offset=".83" stop-color="#98a5a5"/>
    </linearGradient>
    <linearGradient id="linear-gradient-7" x1="346.31" y1="377.88" x2="377.45" y2="377.88" xlink:href="#linear-gradient-6"/>
  </defs>
  <g id="Layer_21" data-name="Layer 21">
    <path class="cls-4" d="m362.27,371.92c0-9.66-7.83-17.48-17.48-17.48-1.83,0-3.6.29-5.26.81-18.94,2.33-32.44,2.21-39.98,1.79-1.67-.46-3.42-.72-5.24-.72-.59,0-1.17.04-1.74.09-.02,0-.04,0-.04,0h0c-10.14.91-18.09,9.42-18.09,19.79,0,10.98,7.87,25.88,18.84,25.88,8.81,1.03,21.33-3.83,21.33-3.83,7.97-3.66,12.23-6.85,12.23-6.85,8.8.9,15.78-1.46,19.59-2.06,1.5-.14,2.93-.48,4.29-.97.66-.21.97-.36.97-.36h0c6.22-2.68,10.58-8.86,10.58-16.07Z"/>
  </g>
  <g id="Layer_25" data-name="Layer 25">
    <path class="cls-3" d="m337.59,361.35c0-1.14-.41-2.18-1.07-3.01v-.02c-1.98-3.65-5.38-5.91-7.01-6.84-.29-.18-.6-.35-.92-.49,0,0,0,0,0,0h0c-.78-.33-1.63-.51-2.53-.51-3.62,0-6.56,2.94-6.56,6.56,0,2.32,1.2,4.35,3.02,5.51h0c7.06,4.64,11.02,3.58,11.02,3.58h0c2.3-.39,4.07-2.38,4.07-4.79Z"/>
  </g>
  <g id="Layer_27" data-name="Layer 27">
    <path class="cls-6" d="m321.15,354.66c1.74-1.07,6.55-2.39,13.02,8.93.7,1.23-.26,2.76-1.68,2.64-4.74-.41-13.08-2.27-12.16-10.32.06-.52.37-.98.81-1.25Z"/>
  </g>
  <g id="Layer_26" data-name="Layer 26">
    <path class="cls-2" d="m376.83,381.6c-2.36-1.3-16.6-14.76-16.6-14.76h0c-1.44-1.52-3.47-2.47-5.73-2.47-4.36,0-7.9,3.54-7.9,7.9,0,1.02.2,1.98.55,2.88h0c5.96,19.71,19.67,15.94,19.67,15.94,13.22-2.43,10.02-9.49,10.02-9.49Z"/>
  </g>
  <g id="Layer_28" data-name="Layer 28">
    <path d="m356.15,370.95c0-.3-.08-.59-.19-.87-.01-.91-.69-1.68-1.61-1.79-.54-.06-1.05.13-1.42.46-.29.12-.56.28-.79.51,0,.3.08.59.19.87.01.91.69,1.68,1.61,1.79.54.06,1.05-.13,1.42-.46.29-.12.56-.28.79-.51Z"/>
    <circle class="cls-1" cx="353.67" cy="369.63" r=".53"/>
    <path class="cls-5" d="m376.6,381.42l-2.23-1.74c-.29-.23-.7-.23-.98,0-.84.71-1.97,2.52,2.28,5.86.44.34,1.1.16,1.26-.37.2-.66.31-1.71-.03-3.29-.04-.18-.15-.35-.29-.47Z"/>
  </g>
</svg>