<svg xmlns="http://www.w3.org/2000/svg" xmlns:xlink="http://www.w3.org/1999/xlink" viewBox="0 0 516.5 709.7"><defs><linearGradient id="a" x1="196.9" x2="233.2" y1="462.8" y2="462.8" gradientUnits="userSpaceOnUse"><stop offset=".3" stop-color="#f7f0e8"/><stop offset=".4" stop-color="#eae5df"/><stop offset=".6" stop-color="#c8cbc7"/><stop offset=".8" stop-color="#98a5a5"/></linearGradient><linearGradient xlink:href="#a" id="b" x1="198.2" x2="229.5" y1="456.7" y2="474.8"/></defs><path fill="url(#a)" stroke="url(#b)" stroke-miterlimit="10" stroke-width=".6" d="M231 464.6a4 4 0 0 0-2.8-2c-6.8-2-11.3-4.6-14-6.5a9.6 9.6 0 1 0-10.1 15.3l.8.3c11.1 4 23.4-1.3 23.4-1.3s5.1-1.6 4.9-3c-.2-.7-1.2-1.8-2.2-2.8Z" data-name="Layer 22"/><g data-name="Layer 29"><path d="M232.6 466.4s1.9 1.9-.2 2.5c0 0 0-2.1-2.3-2.7 0 0-.1-1.3.8-1s1.7 1.2 1.7 1.2ZM231.1 467.8s1.7 1.3 0 1.8c0 0-.1-1.5-2-2 0 0-.2-1 .6-.8s1.4 1 1.4 1ZM229.4 468.7s1.6 1.2 0 1.7c0 0 0-1.3-2-1.9 0 0-.2-1 .7-.7s1.3 1 1.3 1Z"/></g></svg>