<?xml version="1.0" encoding="UTF-8"?>
<svg id="Layer_19" data-name="Layer 19" xmlns="http://www.w3.org/2000/svg" xmlns:xlink="http://www.w3.org/1999/xlink" viewBox="0 0 516.48 709.68">
  <defs>
    <style>
      .cls-1 {
        fill: url(#radial-gradient);
        stroke: url(#linear-gradient);
        stroke-miterlimit: 10;
        stroke-width: .57px;
      }
    </style>
    <radialGradient id="radial-gradient" cx="187.34" cy="402.76" fx="187.34" fy="402.76" r="68.04" gradientUnits="userSpaceOnUse">
      <stop offset=".25" stop-color="#f7f0e8"/>
      <stop offset=".4" stop-color="#eae5df"/>
      <stop offset=".67" stop-color="#c8cbc7"/>
      <stop offset="1" stop-color="#98a5a5"/>
    </radialGradient>
    <linearGradient id="linear-gradient" x1="167.91" y1="407.68" x2="235.17" y2="407.68" gradientUnits="userSpaceOnUse">
      <stop offset=".25" stop-color="#f7f0e8"/>
      <stop offset=".36" stop-color="#eae5df"/>
      <stop offset=".57" stop-color="#c8cbc7"/>
      <stop offset=".83" stop-color="#98a5a5"/>
    </linearGradient>
  </defs>
  <path class="cls-1" d="m233.1,381.38c-.36-17.6-14.73-31.76-32.42-31.76s-32.44,14.52-32.44,32.44c0,.38.02.75.03,1.13h0c-1.5,42.75,23.1,72.78,23.1,72.78l.18-.03c.95,5.57,5.79,9.81,11.63,9.81,6.52,0,11.81-5.29,11.81-11.81,0-.47-.03-.93-.09-1.38h0c-1.96-8.48,18.21-39.9,18.21-39.9,3.38-5.66,1.07-23.99-.02-31.27Z"/>
</svg>