<?xml version="1.0" encoding="UTF-8"?>
<svg id="Layer_20" data-name="Layer 20" xmlns="http://www.w3.org/2000/svg" xmlns:xlink="http://www.w3.org/1999/xlink" viewBox="0 0 516.48 709.68">
  <defs>
    <style>
      .cls-1 {
        fill: url(#radial-gradient);
        stroke: url(#linear-gradient);
        stroke-miterlimit: 10;
        stroke-width: .57px;
      }
    </style>
    <radialGradient id="radial-gradient" cx="307.53" cy="402.86" fx="290.13" fy="402.86" r="67.01" gradientUnits="userSpaceOnUse">
      <stop offset=".25" stop-color="#f7f0e8"/>
      <stop offset=".39" stop-color="#eae5df"/>
      <stop offset=".64" stop-color="#c8cbc7"/>
      <stop offset=".94" stop-color="#98a5a5"/>
    </radialGradient>
    <linearGradient id="linear-gradient" x1="264.4" y1="411.01" x2="320.55" y2="411.01" gradientUnits="userSpaceOnUse">
      <stop offset=".16" stop-color="#98a5a5"/>
      <stop offset=".28" stop-color="#a1acab"/>
      <stop offset=".47" stop-color="#bcc1be"/>
      <stop offset=".72" stop-color="#e6e3dc"/>
      <stop offset=".8" stop-color="#f7f0e8"/>
    </linearGradient>
  </defs>
  <path class="cls-1" d="m317.99,451.66h0c-3.13-12-.81-43.97-.81-43.97-6.94-41.34-14.37-47.03-14.37-47.03h-.02c-3.51-6.01-9.83-7.25-17.29-7.25-10.76,0-19.72,5.59-20.37,16.18-2.55,16.31,7.06,55.63,7.06,55.63,9.94,39,28.5,38.03,28.5,38.03h0c1.78,3.21,5.21,5.38,9.14,5.38,5.77,0,10.45-4.68,10.45-10.45,0-2.46-.86-4.73-2.28-6.51Z"/>
</svg>