<?xml version="1.0" encoding="UTF-8"?>
<svg xmlns="http://www.w3.org/2000/svg" xmlns:xlink="http://www.w3.org/1999/xlink" viewBox="0 0 516.48 709.68">
  <defs>
    <style>
      .cls-1 {
        fill: url(#linear-gradient-3);
        stroke: url(#linear-gradient-4);
      }

      .cls-1, .cls-2 {
        stroke-miterlimit: 10;
        stroke-width: .57px;
      }

      .cls-2 {
        fill: url(#linear-gradient);
        stroke: url(#linear-gradient-2);
      }
    </style>
    <linearGradient id="linear-gradient" x1="320.09" y1="356.04" x2="337.61" y2="360.63" gradientUnits="userSpaceOnUse">
      <stop offset=".51" stop-color="#f7f0e8"/>
      <stop offset=".59" stop-color="#eae5df"/>
      <stop offset=".75" stop-color="#c8cbc7"/>
      <stop offset=".94" stop-color="#98a5a5"/>
    </linearGradient>
    <linearGradient id="linear-gradient-2" x1="319.2" y1="358.36" x2="337.88" y2="358.36" gradientUnits="userSpaceOnUse">
      <stop offset=".09" stop-color="#f7f0e8"/>
      <stop offset=".26" stop-color="#eae5df"/>
      <stop offset=".56" stop-color="#c8cbc7"/>
      <stop offset=".93" stop-color="#98a5a5"/>
    </linearGradient>
    <linearGradient id="linear-gradient-3" x1="323.34" y1="364.94" x2="333.43" y2="353.34" gradientUnits="userSpaceOnUse">
      <stop offset=".25" stop-color="#f7f0e8"/>
      <stop offset=".39" stop-color="#eae5df"/>
      <stop offset=".64" stop-color="#c8cbc7"/>
      <stop offset=".94" stop-color="#98a5a5"/>
    </linearGradient>
    <linearGradient id="linear-gradient-4" x1="319.99" y1="360.11" x2="334.69" y2="360.11" xlink:href="#linear-gradient-2"/>
  </defs>
  <g id="Layer_25" data-name="Layer 25">
    <path class="cls-2" d="m337.59,361.35c0-1.14-.41-2.18-1.07-3.01v-.02c-1.98-3.65-5.38-5.91-7.01-6.84-.29-.18-.6-.35-.92-.49,0,0,0,0,0,0h0c-.78-.33-1.63-.51-2.53-.51-3.62,0-6.56,2.94-6.56,6.56,0,2.32,1.2,4.35,3.02,5.51h0c7.06,4.64,11.02,3.58,11.02,3.58h0c2.3-.39,4.07-2.38,4.07-4.79Z"/>
  </g>
  <g id="Layer_27" data-name="Layer 27">
    <path class="cls-1" d="m321.15,354.66c1.74-1.07,6.55-2.39,13.02,8.93.7,1.23-.26,2.76-1.68,2.64-4.74-.41-13.08-2.27-12.16-10.32.06-.52.37-.98.81-1.25Z"/>
  </g>
</svg>