<svg xmlns="http://www.w3.org/2000/svg" xmlns:xlink="http://www.w3.org/1999/xlink" viewBox="0 0 516.5 709.7"><defs><linearGradient id="a" x1="353.6" x2="377.6" y1="371.5" y2="397.9" gradientUnits="userSpaceOnUse"><stop offset=".3" stop-color="#f7f0e8"/><stop offset=".4" stop-color="#eae5df"/><stop offset=".6" stop-color="#c8cbc7"/><stop offset=".8" stop-color="#98a5a5"/></linearGradient><linearGradient xlink:href="#a" id="b" x1="346.3" x2="377.4" y1="377.9" y2="377.9"/></defs><path fill="url(#a)" stroke="url(#b)" stroke-miterlimit="10" stroke-width=".6" d="M376.8 381.6c-2.3-1.3-16.6-14.8-16.6-14.8a7.9 7.9 0 0 0-13 8.3c6 19.8 19.6 16 19.6 16 13.2-2.4 10-9.5 10-9.5Z" data-name="Layer 26"/><g data-name="Layer 28"><path d="m356.1 371-.1-1c0-.8-.7-1.6-1.7-1.7-.5 0-1 .1-1.4.4l-.8.6.2.8c0 1 .7 1.7 1.6 1.8.6 0 1-.1 1.5-.4l.7-.6Z"/><circle cx="353.7" cy="369.6" r=".5" fill="#fff"/><path stroke="#000" stroke-miterlimit="10" stroke-width=".6" d="m376.6 381.4-2.2-1.7a.8.8 0 0 0-1 0c-.8.7-2 2.5 2.3 5.8.4.4 1 .2 1.2-.3.2-.7.3-1.7 0-3.3 0-.2-.1-.4-.3-.5Z"/></g></svg>