<svg xmlns="http://www.w3.org/2000/svg" xmlns:xlink="http://www.w3.org/1999/xlink" viewBox="0 0 516.5 709.7"><defs><linearGradient id="b" x1="320.1" x2="337.6" y1="356" y2="360.6" gradientUnits="userSpaceOnUse"><stop offset=".5" stop-color="#f7f0e8"/><stop offset=".6" stop-color="#eae5df"/><stop offset=".8" stop-color="#c8cbc7"/><stop offset=".9" stop-color="#98a5a5"/></linearGradient><linearGradient id="a" x1="319.2" x2="337.9" y1="358.4" y2="358.4" gradientUnits="userSpaceOnUse"><stop offset=".1" stop-color="#f7f0e8"/><stop offset=".3" stop-color="#eae5df"/><stop offset=".6" stop-color="#c8cbc7"/><stop offset=".9" stop-color="#98a5a5"/></linearGradient><linearGradient id="c" x1="323.3" x2="333.4" y1="364.9" y2="353.3" gradientUnits="userSpaceOnUse"><stop offset=".3" stop-color="#f7f0e8"/><stop offset=".4" stop-color="#eae5df"/><stop offset=".6" stop-color="#c8cbc7"/><stop offset=".9" stop-color="#98a5a5"/></linearGradient><linearGradient xlink:href="#a" id="d" x1="320" x2="334.7" y1="360.1" y2="360.1"/></defs><path fill="url(#b)" stroke="url(#a)" stroke-miterlimit="10" stroke-width=".6" d="M337.6 361.4c0-1.2-.4-2.2-1-3a18.6 18.6 0 0 0-8-7.4 6.6 6.6 0 0 0-6 11.6c7 4.6 11 3.5 11 3.5 2.2-.4 4-2.3 4-4.8Z" data-name="Layer 25"/><path fill="url(#c)" stroke="url(#d)" stroke-miterlimit="10" stroke-width=".6" d="M321.1 354.7c1.8-1.1 6.6-2.4 13 8.9.8 1.2-.2 2.8-1.6 2.6-4.8-.4-13-2.2-12.2-10.3 0-.5.4-1 .8-1.2Z" data-name="Layer 27"/></svg>