<svg xmlns="http://www.w3.org/2000/svg" viewBox="0 0 21.48 10.58"><defs><style>.cls-1{fill:#fff;}.cls-2{fill:#f2f2f2;}</style></defs><g id="Layer_2" data-name="Layer 2"><g id="Layer_1-2" data-name="Layer 1"><circle class="cls-1" cx="6.43" cy="6.64" r="1.01"/><circle class="cls-1" cx="9.09" cy="6.59" r="1.41"/><circle class="cls-1" cx="15.94" cy="3.28" r="1.97"/><circle class="cls-1" cx="14.39" cy="3.61" r="1.42"/><circle class="cls-1" cx="12.73" cy="4.32" r="1.74"/><circle class="cls-2" cx="2.61" cy="6.62" r="1.37"/><circle class="cls-2" cx="3.45" cy="7.16" r="1.91"/><circle class="cls-2" cx="4.26" cy="6.74" r="1.94"/><circle class="cls-2" cx="6.7" cy="8.31" r="2.08"/><circle class="cls-2" cx="9.14" cy="8.56" r="1.48"/><circle class="cls-2" cx="10.95" cy="9.12" r="1.45"/><circle class="cls-2" cx="12.37" cy="7.35" r="2"/><circle class="cls-2" cx="9.93" cy="8.97" r="1.17"/><circle class="cls-2" cx="9.65" cy="6.67" r="1.21"/><circle class="cls-2" cx="7.67" cy="6.31" r="1.25"/><circle class="cls-2" cx="6.86" cy="8.57" r="1.84"/><circle class="cls-2" cx="7.96" cy="6.27" r="2.07"/><circle class="cls-2" cx="6.35" cy="5.93" r="1.02"/><circle class="cls-2" cx="7.88" cy="7.64" r="0.9"/><circle class="cls-2" cx="10.83" cy="7.3" r="1.25"/><circle class="cls-2" cx="11.88" cy="6.29" r="1.6"/><circle class="cls-2" cx="10.22" cy="5.83" r="1.57"/><circle class="cls-2" cx="12.46" cy="7.47" r="1.53"/><circle class="cls-2" cx="14.31" cy="7.83" r="1.81"/><circle class="cls-2" cx="16.26" cy="8.66" r="1.92"/><circle class="cls-2" cx="17.91" cy="8.33" r="1.67"/><circle class="cls-2" cx="19.2" cy="7.19" r="1.59"/><circle class="cls-2" cx="18.72" cy="7.4" r="1.19"/><circle class="cls-2" cx="15.83" cy="7.82" r="1.14"/><circle class="cls-2" cx="16.34" cy="5.97" r="1.31"/><circle class="cls-2" cx="13.38" cy="6.28" r="1.62"/><circle class="cls-2" cx="14.3" cy="7.95" r="1.02"/><circle class="cls-2" cx="15.8" cy="8.01" r="2.1"/><circle class="cls-2" cx="18.18" cy="8.16" r="2.01"/><circle class="cls-2" cx="2.02" cy="7.6" r="1.85"/><circle class="cls-2" cx="4.62" cy="7.57" r="1.95"/><circle class="cls-2" cx="3.2" cy="6.73" r="1.5"/><circle class="cls-2" cx="1.59" cy="8.1" r="1.36"/><circle class="cls-2" cx="2.61" cy="7.25" r="1.32"/><circle class="cls-1" cx="14.78" cy="4.92" r="1.53"/><circle class="cls-1" cx="13.1" cy="4.29" r="2.1"/><circle class="cls-1" cx="11.35" cy="4.57" r="1.07"/><circle class="cls-1" cx="8.49" cy="4.37" r="1.92"/><circle class="cls-1" cx="5.76" cy="3.91" r="1"/><circle class="cls-1" cx="6" cy="5.11" r="1.39"/><circle class="cls-1" cx="6.12" cy="3.53" r="1.53"/><circle class="cls-1" cx="6.29" cy="4.23" r="1.37"/><circle class="cls-1" cx="8.58" cy="3.62" r="1.21"/><circle class="cls-1" cx="10.18" cy="2.58" r="1.31"/><circle class="cls-1" cx="9.11" cy="2.29" r="1.21"/><circle class="cls-1" cx="8.85" cy="3.8" r="1.48"/><circle class="cls-1" cx="11.39" cy="3.39" r="1.87"/><circle class="cls-1" cx="14.63" cy="3.7" r="1.72"/><circle class="cls-1" cx="13.13" cy="3.25" r="1.41"/><circle class="cls-1" cx="10.3" cy="4.19" r="1.11"/><circle class="cls-1" cx="11.78" cy="1.72" r="1.72"/><circle class="cls-1" cx="9.25" cy="2.99" r="2.12"/><circle class="cls-1" cx="8.2" cy="3.64" r="1.36"/><circle class="cls-1" cx="7.57" cy="5" r="1.94"/><circle class="cls-1" cx="7.3" cy="3.88" r="2.12"/><circle class="cls-1" cx="4.58" cy="5.65" r="1.79"/><circle class="cls-1" cx="1.94" cy="6.15" r="1.62"/><circle class="cls-1" cx="3.04" cy="8.17" r="0.88"/><circle class="cls-1" cx="4.36" cy="7.96" r="1.23"/><circle class="cls-1" cx="3.84" cy="5.8" r="1.72"/><circle class="cls-1" cx="2.2" cy="6.67" r="1.66"/><circle class="cls-1" cx="3.18" cy="7.28" r="1.71"/><circle class="cls-1" cx="1.56" cy="6.02" r="1.56"/><circle class="cls-1" cx="2.75" cy="6.55" r="1.66"/><circle class="cls-1" cx="3.07" cy="5.74" r="1.22"/><circle class="cls-1" cx="4.11" cy="6.93" r="1.14"/><circle class="cls-1" cx="5.27" cy="6.3" r="0.89"/><circle class="cls-1" cx="8.61" cy="5.78" r="1.05"/><circle class="cls-1" cx="11.42" cy="5.84" r="1.1"/><circle class="cls-1" cx="14.14" cy="6.05" r="1.33"/><circle class="cls-1" cx="15.92" cy="5.86" r="1.05"/><circle class="cls-1" cx="16.3" cy="5.55" r="1.65"/><circle class="cls-1" cx="15.63" cy="5.85" r="1.35"/><circle class="cls-1" cx="13.67" cy="5.52" r="1.39"/><circle class="cls-1" cx="11.55" cy="5.04" r="1.19"/><circle class="cls-1" cx="8.49" cy="6.3" r="1.49"/><circle class="cls-1" cx="11.64" cy="6.42" r="1.3"/><circle class="cls-1" cx="12.73" cy="6.75" r="1.85"/><circle class="cls-1" cx="14.28" cy="6.92" r="1.2"/><circle class="cls-1" cx="15.72" cy="7.21" r="1.07"/><circle class="cls-1" cx="18.06" cy="6.83" r="1.32"/><circle class="cls-1" cx="20.32" cy="5.59" r="1.16"/><circle class="cls-1" cx="18.44" cy="5.6" r="1.69"/><circle class="cls-1" cx="15.81" cy="5.42" r="1.06"/><circle class="cls-1" cx="14.51" cy="4.63" r="1.14"/><circle class="cls-1" cx="11.98" cy="6.41" r="1.22"/><circle class="cls-1" cx="14.52" cy="6.85" r="1.6"/><circle class="cls-1" cx="15.81" cy="6.66" r="2.09"/><circle class="cls-1" cx="17.06" cy="6" r="1.82"/><circle class="cls-1" cx="19.23" cy="6.43" r="1.14"/><circle class="cls-1" cx="17.74" cy="5.37" r="1.75"/><circle class="cls-1" cx="15.45" cy="4.64" r="1.33"/><circle class="cls-1" cx="13.73" cy="4.57" r="2.07"/><circle class="cls-1" cx="12.22" cy="5.2" r="1.05"/><circle class="cls-1" cx="12.18" cy="5.24" r="2.08"/><circle class="cls-1" cx="13.51" cy="5.53" r="1.42"/><circle class="cls-1" cx="15.18" cy="5.69" r="1.04"/><circle class="cls-1" cx="17.48" cy="6.58" r="1.41"/><circle class="cls-1" cx="18.33" cy="6.6" r="1.25"/><circle class="cls-1" cx="18.06" cy="6.46" r="2.01"/><circle class="cls-1" cx="14.91" cy="6.63" r="1.35"/><circle class="cls-1" cx="11.67" cy="5.69" r="1.24"/><circle class="cls-1" cx="10.51" cy="6" r="1.65"/><circle class="cls-1" cx="8.37" cy="5.34" r="1.57"/><circle class="cls-1" cx="7.47" cy="5.21" r="0.98"/><circle class="cls-1" cx="8.27" cy="5.08" r="1.29"/><circle class="cls-1" cx="10.15" cy="5" r="1.8"/><circle class="cls-1" cx="12.43" cy="4.54" r="0.95"/><circle class="cls-1" cx="13.68" cy="5.21" r="1"/><circle class="cls-1" cx="14.26" cy="5.07" r="1.27"/><circle class="cls-1" cx="12.8" cy="6.03" r="0.93"/><circle class="cls-1" cx="10.71" cy="6.83" r="1.18"/><circle class="cls-1" cx="8.36" cy="5.66" r="2"/><circle class="cls-1" cx="6.56" cy="5.29" r="1.13"/><circle class="cls-1" cx="6.95" cy="4.51" r="1.53"/><circle class="cls-1" cx="7.73" cy="3.9" r="1.11"/><circle class="cls-1" cx="8.73" cy="3.98" r="1.62"/><circle class="cls-1" cx="9.75" cy="4.74" r="1.83"/><circle class="cls-1" cx="8.75" cy="4.61" r="2.02"/><circle class="cls-1" cx="7.03" cy="4.56" r="1.14"/><circle class="cls-1" cx="5.74" cy="4.83" r="1.1"/><circle class="cls-1" cx="3.56" cy="5.39" r="1.68"/></g></g></svg>