<svg xmlns="http://www.w3.org/2000/svg" viewBox="0 0 9.23 5.77"><defs><style>.cls-1{fill:#fff;}.cls-2{fill:#f2f2f2;}</style></defs><g id="Layer_2" data-name="Layer 2"><g id="Layer_1-2" data-name="Layer 1"><circle class="cls-1" cx="5.09" cy="3.04" r="1.59"/><circle class="cls-1" cx="5.81" cy="4.4" r="1.37"/><circle class="cls-1" cx="7.86" cy="4.37" r="1.37"/><circle class="cls-1" cx="3.71" cy="1.73" r="1.73"/><circle class="cls-1" cx="1.29" cy="2.44" r="0.91"/><circle class="cls-1" cx="1.72" cy="4.03" r="1.03"/><circle class="cls-1" cx="2.34" cy="4.05" r="1.23"/><circle class="cls-1" cx="4.15" cy="2.99" r="1.3"/><circle class="cls-1" cx="2.75" cy="2.99" r="1.53"/><circle class="cls-1" cx="4.11" cy="3.71" r="1.83"/><circle class="cls-1" cx="3.21" cy="2.4" r="1.72"/><circle class="cls-1" cx="1.95" cy="2.3" r="1.95"/><circle class="cls-1" cx="3.03" cy="3.4" r="0.97"/><circle class="cls-1" cx="4.51" cy="4.17" r="1.24"/><circle class="cls-1" cx="4.66" cy="2.32" r="1.93"/><circle class="cls-1" cx="3.56" cy="3.33" r="1.08"/><circle class="cls-1" cx="4.78" cy="2.9" r="1.18"/><circle class="cls-1" cx="3.53" cy="3.54" r="2.04"/><circle class="cls-1" cx="5.06" cy="2.98" r="1.19"/><circle class="cls-2" cx="3.62" cy="3.37" r="1.82"/></g></g></svg>