<svg xmlns="http://www.w3.org/2000/svg" viewBox="0 0 11.45 6.41"><defs><style>.cls-1{fill:#f2f2f2;}</style></defs><g id="Layer_2" data-name="Layer 2"><g id="Layer_1-2" data-name="Layer 1"><circle class="cls-1" cx="8.64" cy="3.42" r="1.92"/><circle class="cls-1" cx="6.9" cy="2.4" r="1.43"/><circle class="cls-1" cx="3.64" cy="2.5" r="2.12"/><circle class="cls-1" cx="2.11" cy="2.6" r="2.11"/><circle class="cls-1" cx="3.18" cy="4.01" r="1.58"/><circle class="cls-1" cx="5.76" cy="4.25" r="1.84"/><circle class="cls-1" cx="7.37" cy="4.38" r="2.03"/><circle class="cls-1" cx="9.02" cy="3.15" r="1.24"/><circle class="cls-1" cx="6.39" cy="2.6" r="1.45"/><circle class="cls-1" cx="3.23" cy="1.91" r="1.91"/><circle class="cls-1" cx="3.3" cy="3.17" r="1.66"/><circle class="cls-1" cx="5.12" cy="3.63" r="1.97"/><circle class="cls-1" cx="7.29" cy="3.77" r="0.88"/><circle class="cls-1" cx="9.61" cy="3.51" r="1.84"/><circle class="cls-1" cx="5.97" cy="3.7" r="1.88"/><circle class="cls-1" cx="4.39" cy="3.47" r="1.44"/><circle class="cls-1" cx="5.91" cy="3.82" r="1.09"/><circle class="cls-1" cx="4.26" cy="3.41" r="1.13"/><circle class="cls-1" cx="5.61" cy="3.98" r="1.41"/><circle class="cls-1" cx="4.49" cy="3.94" r="1.35"/><circle class="cls-1" cx="7.48" cy="2" r="1.28"/><circle class="cls-1" cx="4.13" cy="1.91" r="1.61"/></g></g></svg>