<svg xmlns="http://www.w3.org/2000/svg" viewBox="0 0 26.42 13.01"><defs><style>.cls-1{fill:#fff;}.cls-2{fill:#f2f2f2;}</style></defs><g id="Layer_2" data-name="Layer 2"><g id="Layer_1-2" data-name="Layer 1"><circle class="cls-1" cx="22.27" cy="6.01" r="4.15"/><circle class="cls-1" cx="20.1" cy="4.82" r="3.14"/><circle class="cls-1" cx="4.19" cy="8.51" r="1.82"/><circle class="cls-1" cx="6.82" cy="7.32" r="1.79"/><circle class="cls-1" cx="4.32" cy="7.71" r="1.27"/><circle class="cls-1" cx="5.67" cy="7.12" r="1.86"/><circle class="cls-1" cx="5.37" cy="6.34" r="1.03"/><circle class="cls-1" cx="1.94" cy="6.23" r="1.78"/><circle class="cls-1" cx="6.83" cy="6.1" r="1.97"/><circle class="cls-1" cx="4.28" cy="5.98" r="1.67"/><circle class="cls-1" cx="5.85" cy="6.09" r="2.08"/><circle class="cls-1" cx="4.7" cy="5.78" r="1.75"/><circle class="cls-1" cx="3.53" cy="6.05" r="1.14"/><circle class="cls-1" cx="8.79" cy="6.65" r="1.02"/><circle class="cls-1" cx="6.35" cy="6.42" r="1.94"/><circle class="cls-1" cx="2.81" cy="7.01" r="1.17"/><circle class="cls-2" cx="2.83" cy="7.94" r="2.04"/><circle class="cls-2" cx="4.36" cy="8.22" r="1.9"/><circle class="cls-2" cx="3.15" cy="6.97" r="1.37"/><circle class="cls-2" cx="2.78" cy="8.4" r="1.07"/><circle class="cls-2" cx="4.95" cy="9" r="1.36"/><circle class="cls-2" cx="7.58" cy="9.52" r="1.07"/><circle class="cls-2" cx="11.37" cy="9.87" r="1.76"/><circle class="cls-2" cx="9.4" cy="7.57" r="1.08"/><circle class="cls-2" cx="6.42" cy="8.07" r="2.01"/><circle class="cls-2" cx="4.21" cy="7.32" r="1.36"/><circle class="cls-2" cx="6.36" cy="8.83" r="0.95"/><circle class="cls-2" cx="7.61" cy="8.99" r="1.13"/><circle class="cls-2" cx="9.71" cy="9.34" r="1.7"/><circle class="cls-2" cx="11.76" cy="9.92" r="1.91"/><circle class="cls-2" cx="14.81" cy="9.22" r="1.92"/><circle class="cls-2" cx="13.44" cy="7.25" r="1.41"/><circle class="cls-2" cx="11.94" cy="7.64" r="1.18"/><circle class="cls-2" cx="10.17" cy="7.84" r="1.47"/><circle class="cls-2" cx="12.15" cy="9.64" r="1.84"/><circle class="cls-2" cx="13.53" cy="9.86" r="1.39"/><circle class="cls-2" cx="15.53" cy="10" r="0.94"/><circle class="cls-2" cx="16.75" cy="6.95" r="1.55"/><circle class="cls-2" cx="14.83" cy="7.48" r="2.09"/><circle class="cls-2" cx="12.16" cy="7.55" r="1.11"/><circle class="cls-2" cx="13.51" cy="9.2" r="1.39"/><circle class="cls-2" cx="16.47" cy="8.94" r="1.38"/><circle class="cls-2" cx="17.43" cy="8.21" r="1.61"/><circle class="cls-2" cx="16.79" cy="6.57" r="1.07"/><circle class="cls-2" cx="15.46" cy="7.67" r="0.92"/><circle class="cls-2" cx="13.85" cy="9.55" r="1.62"/><circle class="cls-2" cx="15.19" cy="8.23" r="2.1"/><circle class="cls-2" cx="17.04" cy="8.05" r="1.78"/><circle class="cls-2" cx="20.06" cy="7.63" r="2.04"/><circle class="cls-2" cx="1.47" cy="6.98" r="1.21"/><circle class="cls-2" cx="1.82" cy="6.16" r="1.23"/><circle class="cls-2" cx="2.08" cy="7.05" r="2.08"/><circle class="cls-2" cx="3.98" cy="9.67" r="1.04"/><circle class="cls-2" cx="5.49" cy="10.47" r="1.9"/><circle class="cls-2" cx="8.89" cy="11.14" r="1.5"/><circle class="cls-2" cx="7.53" cy="9.31" r="1.79"/><circle class="cls-2" cx="8.25" cy="11.16" r="1.63"/><circle class="cls-2" cx="10.04" cy="11.15" r="1.86"/><circle class="cls-2" cx="9.11" cy="9.61" r="1.58"/><circle class="cls-2" cx="8.71" cy="8.65" r="1.07"/><circle class="cls-2" cx="7.28" cy="8.22" r="1.22"/><circle class="cls-2" cx="5.93" cy="6.95" r="1.31"/><circle class="cls-2" cx="6.42" cy="8.5" r="1.12"/><circle class="cls-2" cx="7.96" cy="8.41" r="1.9"/><circle class="cls-2" cx="10.05" cy="9.13" r="1.73"/><circle class="cls-1" cx="14.28" cy="4.67" r="1.77"/><circle class="cls-1" cx="7.73" cy="5.23" r="3.09"/><circle class="cls-1" cx="13.77" cy="8.32" r="2.66"/><circle class="cls-1" cx="13.39" cy="4.17" r="4.11"/><circle class="cls-1" cx="9.51" cy="4.34" r="2.68"/><circle class="cls-1" cx="6.22" cy="7.68" r="2.27"/><circle class="cls-1" cx="11.48" cy="8.32" r="3.93"/><circle class="cls-1" cx="15.01" cy="7.96" r="2.19"/><circle class="cls-1" cx="12.1" cy="4.47" r="2.22"/><circle class="cls-1" cx="6.94" cy="5.5" r="2.64"/><circle class="cls-1" cx="9.5" cy="7.34" r="4.01"/><circle class="cls-1" cx="14.5" cy="7.23" r="3.6"/><circle class="cls-1" cx="11.25" cy="4.54" r="3.16"/><circle class="cls-1" cx="6.98" cy="4.65" r="3.71"/><circle class="cls-1" cx="6.24" cy="7.56" r="2.28"/><circle class="cls-1" cx="13.23" cy="8.01" r="2.32"/><circle class="cls-1" cx="13.61" cy="3.74" r="3.74"/><circle class="cls-1" cx="7.46" cy="6.52" r="1.8"/><circle class="cls-1" cx="9.49" cy="7.41" r="1.87"/><circle class="cls-1" cx="15.6" cy="6.42" r="3.33"/></g></g></svg>