<svg xmlns="http://www.w3.org/2000/svg" viewBox="0 0 12.05 6.57"><defs><style>.cls-1{fill:#fff;}.cls-2{fill:#f2f2f2;}</style></defs><g id="Layer_2" data-name="Layer 2"><g id="Layer_1-2" data-name="Layer 1"><circle class="cls-1" cx="5.87" cy="2.16" r="1.75"/><circle class="cls-1" cx="7.66" cy="1.73" r="1.73"/><circle class="cls-1" cx="9.82" cy="2.97" r="1.94"/><circle class="cls-1" cx="9.95" cy="2.26" r="2.1"/><circle class="cls-1" cx="8.31" cy="2.47" r="1.87"/><circle class="cls-1" cx="5.88" cy="1.97" r="1.61"/><circle class="cls-1" cx="6.45" cy="3.56" r="1.32"/><circle class="cls-1" cx="8.07" cy="3.34" r="1.93"/><circle class="cls-1" cx="7.89" cy="2.16" r="1.16"/><circle class="cls-1" cx="6.68" cy="2.5" r="1.01"/><circle class="cls-1" cx="5.68" cy="3.61" r="0.92"/><circle class="cls-1" cx="7.98" cy="3.34" r="1.03"/><circle class="cls-1" cx="8.73" cy="2.27" r="2.08"/><circle class="cls-1" cx="4.79" cy="2.89" r="2"/><circle class="cls-1" cx="3.7" cy="2.44" r="1.39"/><circle class="cls-1" cx="2.22" cy="3.09" r="1.07"/><circle class="cls-1" cx="0.92" cy="3.15" r="0.92"/><circle class="cls-1" cx="2.05" cy="3.23" r="1.14"/><circle class="cls-1" cx="5.17" cy="3.13" r="1.45"/><circle class="cls-1" cx="3.98" cy="4.19" r="1.84"/><circle class="cls-1" cx="2.85" cy="3.63" r="1.47"/><circle class="cls-1" cx="4.29" cy="3.04" r="1.64"/><circle class="cls-1" cx="6.48" cy="3.32" r="1.7"/><circle class="cls-1" cx="3.07" cy="2.58" r="1.06"/><circle class="cls-1" cx="5.34" cy="1.81" r="1.09"/><circle class="cls-1" cx="4.39" cy="2.91" r="1.61"/><circle class="cls-1" cx="6.07" cy="2.75" r="1.65"/><circle class="cls-2" cx="7.46" cy="4.1" r="1.07"/><circle class="cls-2" cx="5.11" cy="4.6" r="1.92"/><circle class="cls-2" cx="2.64" cy="4.29" r="0.93"/><circle class="cls-2" cx="5.38" cy="4.64" r="1.94"/><circle class="cls-2" cx="1.94" cy="4.64" r="1.87"/></g></g></svg>