<svg xmlns="http://www.w3.org/2000/svg" viewBox="0 0 45.77 22.51"><defs><style>.cls-1{stroke:#000;stroke-miterlimit:10;stroke-width:0.25px;}.cls-2{fill:#fff;}</style></defs><g id="Layer_2" data-name="Layer 2"><g id="Layer_1-2" data-name="Layer 1"><path class="cls-1" d="M40.53,15.31s-13-14-32-4l4,6s-10,1-12-3,4-10,4-10l3,6S29.53-2.69,40.53,15.31Z"/><path class="cls-1" d="M12.53,1.31a19.11,19.11,0,0,1,6,14c0,9-6-14-6-14"/><path class="cls-1" d="M22.53.31v15S17.53,5.61,22.53.31Z"/><path class="cls-1" d="M26.53,12.31l1-11S23.53,7.31,26.53,12.31Z"/><path class="cls-1" d="M32.53,2.31l-3,11S28.53,5.31,32.53,2.31Z"/><path class="cls-1" d="M40.53,15.31s4-1,5,0-5,7-5,7A7.2,7.2,0,0,1,40.53,15.31Z"/><rect class="cls-2" x="2.67" y="8.23" width="0.91" height="4.07" transform="translate(-3.88 2.14) rotate(-23.85)"/><rect class="cls-2" x="1.35" y="10.13" width="4.24" height="0.54" transform="translate(-5.06 3.51) rotate(-32.61)"/></g></g></svg>