<?xml version="1.0" encoding="UTF-8"?>
<svg id="Layer_1" data-name="Layer 1" xmlns="http://www.w3.org/2000/svg" viewBox="0 0 1085.92 640.54">
  <defs>
    <style>
      .cls-1 {
        stroke: #000;
      }

      .cls-1, .cls-2, .cls-3, .cls-4, .cls-5, .cls-6 {
        stroke-miterlimit: 10;
      }

      .cls-7 {
        fill: #002c53;
      }

      .cls-8, .cls-2 {
        fill: #6b7a98;
      }

      .cls-9 {
        fill: #663a81;
      }

      .cls-10 {
        fill: #7c8493;
      }

      .cls-11 {
        fill: #91a6b9;
      }

      .cls-12 {
        fill: #b6cfe1;
      }

      .cls-13 {
        fill: #b390c7;
      }

      .cls-14 {
        fill: #1e453e;
      }

      .cls-15 {
        fill: #15253f;
      }

      .cls-16 {
        fill: #445b55;
      }

      .cls-17, .cls-5 {
        fill: #192b25;
      }

      .cls-18, .cls-4 {
        fill: #2b3e5b;
      }

      .cls-19 {
        fill: #7c5294;
      }

      .cls-2 {
        stroke: #6b7a98;
      }

      .cls-3 {
        fill: #b18400;
        stroke: #b18400;
      }

      .cls-4 {
        stroke: #2b3e5b;
      }

      .cls-5 {
        stroke: #192b25;
      }

      .cls-6 {
        fill: #0e0300;
        stroke: #0e0300;
      }
    </style>
  </defs>
  <g>
    <path class="cls-10" d="M982.34,70.53c-15.29,5.26-27.72,12.19-32.28,23.68,1.15,10.46,8.98,18.59,22.16,24.84,8.51,3.74,17.02,6.08,25.53,7.07,9.67,1.13,19.34,.51,29-1.76,9.28-2.18,18.57-5.9,27.84-11.08,3.73-5.13,4.48-10.09-1.88-14.68-4.47-2.21-9.56-6.25-14.98-11.32l-10.6-9.24c-15.36-8.59-30.31-11.46-44.8-7.51Z"/>
    <path class="cls-18" d="M1026.76,124.36c-3.87,3.67-3.78,8.24-2.02,13.18-9.32,1.12-18.26-3.51-26.98-11.42,9.97,1.3,19.66,.83,29-1.76Z"/>
    <path class="cls-18" d="M1036.13,85.87c7.63-1.89,12.58-6.06,15.59-11.87-1.63,1.74-7.25-.04-16.75-5.21-8.55-4.87-17.14-9.8-22.71-10.22-13.42-1.74-23.54,2-29.92,11.96,20.09-1.28,38.24,3.17,53.78,15.34Z"/>
    <path class="cls-18" d="M1053.65,113.34c3.23-1.08,6.54,1.74,9.93,7.48,5.57,5.88,11.99,9.06,19.36,9.21-1.09-5.78-3.94-11.73-8.44-17.84-1.49-3.64-.47-7.29,2.48-10.93,4.49-3.82,7.64-8.51,8.94-14.39-7.48-2.16-14.66-1.56-21.35,3.45-4.35,4.86-9.14,7.64-14.54,7.53,7.53,3.24,8.76,8.4,3.62,15.49Z"/>
    <path class="cls-18" d="M983.79,102.3c14.73-4.34,25.9,.06,33.72,12.71-14.1,2.98-25.4-1.03-33.72-12.71Z"/>
    <path class="cls-15" d="M984.7,103.53c10,6.28,20.33,10.3,31.04,11.82"/>
    <path class="cls-15" d="M985.95,101.59c10.7,1.65,20.72,5.24,29.87,11.24"/>
    <path class="cls-15" d="M997.76,70.74c2.74-5.29,7.32-9.5,14.5-12.17"/>
    <path class="cls-15" d="M1010.11,72.93c2.8-4.62,6.38-8.61,11.69-11.26"/>
    <path class="cls-15" d="M1034.96,68.78c-5.43,1.85-9.02,5.09-11.69,9.02"/>
    <path class="cls-18" d="M974.5,73.29c3.71,15.21,3,30.11-3.23,44.6"/>
    <path class="cls-15" d="M985.39,70.38c4.23,5.44,5.57,12.77,5.62,20.95,2.13-8.27,3.95-16.31,1.29-20.95h-6.91Z"/>
    <path class="cls-15" d="M1006.55,72.09c2.17,5.79,2.38,12.64,1.8,19.91,2.5-6.88,4.18-13.27,3.9-18.47"/>
    <path class="cls-15" d="M1024.51,78.42c1.28,4.59,1.06,9.81,0,15.38,2.14-3.7,3.82-7.8,4-13.16l-4-2.22Z"/>
    <path class="cls-15" d="M999.16,100.67c1.32-2.13,1.39-4.93,1.06-7.95,3.34,3.33,4.73,6.67,4.18,10.04l-5.24-2.09Z"/>
    <path class="cls-15" d="M1001.85,115.3c-.26,4.29-3.46,7.59-8.19,10.4l-7.74-1.83c4.32-3.57,7.31-7.38,8.71-11.46l7.23,2.89Z"/>
    <path class="cls-15" d="M1001.4,129.21c7.96,2.73,15.4,3.7,21.89,1.39"/>
    <path class="cls-15" d="M1031.8,123.02c3.09-5.94,3.84-13.21,3.17-21.29,2.51,7.08,3.41,13.76,1.63,19.74l-4.8,1.55Z"/>
    <path class="cls-15" d="M1083.03,130.03c-8.42-5.29-16.97-12.98-25.57-21.71"/>
    <path class="cls-15" d="M1074.84,112.12c-5.8-3.94-11.6-5.8-17.4-5.57"/>
    <path class="cls-15" d="M1057.44,103.97c7.5,.85,14.76-.72,21.78-4.72"/>
    <path class="cls-15" d="M1054.76,99.93c10.2-6.69,20.56-11.41,31.15-13.23"/>
    <path class="cls-15" d="M970.94,91.32c.33-4.62-5.46-6.35-6.18,0,.24,4.62,6.02,4.62,6.18,0Z"/>
    <path class="cls-1" d="M968.8,90.98c.06-3.13-2.83-3.13-2.8,0,.45,2.07,2.38,2.07,2.8,0Z"/>
    <path class="cls-4" d="M950.71,92.72c5.71,4.23,5.62,5.58,0,4.19"/>
  </g>
  <g>
    <path class="cls-12" d="M148.67,316.56c-5.39,.11-9.96-1.04-13.34-4.01-1.26,3.58-3.5,5.96-6.09,7.9-1.05-3.73-5.6-10.88-3.09-13.35,.26-.2,.52-.36,.79-.5,1.88-.95,4.04-.46,6.33,.73l22.72,2.53"/>
    <g>
      <path class="cls-12" d="M188.92,296.67c-4,11.74-12.75,17.31-24,19.66-4.12,7.42-9.94,11.55-16.85,13.58,1.21-4.61,1.49-9.07,.6-13.36-.16-.77-.36-1.54-.6-2.3,2.67-1.96,5.1-3.14,7.2-3.25l1.99,.27c-.62-.22-1.29-.3-1.99-.27l-29.13-3.9c-2.19-2.31-3.56-5.24-4.11-8.75-3.29,20.54-13.7,26.12-30.12,19.1,6.26-.56,9.15-2.44,8.68-5.62,1.05-3.17,2.5-5.74,4.6-7.3-3.23-6.43-2.32-11.34,3.06-14.61-10.01-3.84-18.14-8.7-13.79-20.23-7.69-4.72-13.35-10.04-8.95-18.32,23.16,5.06,40.94,13.72,39.31,35.39,12.08-18.82,25.79-22.32,40.88-12.96,7.42,4.6,15.16,12.32,23.21,22.85Z"/>
      <path class="cls-12" d="M157.26,311.27l-1.99-.27c.7-.03,1.37,.05,1.99,.27Z"/>
    </g>
    <path class="cls-11" d="M128.42,281.69c-.19-.36-.36-.72-.53-1.07-3.25-6.98-1.63-11.27,3.33-13.74,1.9-3.96,1.13-7.25-3.57-9.55,17.07-.06,29.75,5.44,38.06,16.48-15.01-5.4-27.65-3.44-37.29,7.87Z"/>
    <path class="cls-8" d="M156.23,271.35c-7.2-6.45-15.3-9.94-24.41-10.11"/>
    <path class="cls-8" d="M137.6,274.47c-1.87-3.57-5.05-5.31-9.33-5.51"/>
    <path class="cls-11" d="M94.46,269.7c11.82-2.72,22,2.69,30.37,17.07"/>
    <path class="cls-11" d="M100.55,313.28c8.62,1.92,15.92-2.91,21.48-16.61"/>
    <path class="cls-11" d="M105.18,304.53c2.78,3.48,8.56-.41,16.85-10.47"/>
    <path class="cls-11" d="M108.25,289.92c2.02-9.26,6.28-11.82,14.81-1.69"/>
    <path class="cls-2" d="M176.94,291.51c.1-4.35-4.84-4.35-4.79,0,.77,2.88,4.06,2.88,4.79,0Z"/>
    <path class="cls-1" d="M176.2,291.17c.06-3.04-3-3.04-2.97,0,.48,2.01,2.52,2.01,2.97,0Z"/>
    <path class="cls-8" d="M157.25,287.12c1.24,.9,1.24,1.81,0,2.71"/>
    <path class="cls-2" d="M157.08,289.75c1.68,1.84,1.68,3.67,0,5.51"/>
    <path class="cls-2" d="M154.56,282.63c1.24,.9,1.24,1.81,0,2.71"/>
    <path class="cls-2" d="M154.39,285.26c1.68,1.84,1.68,3.67,0,5.51"/>
    <path class="cls-2" d="M151.5,297.23c1.24,.9,1.24,1.81,0,2.71"/>
    <path class="cls-2" d="M151.33,299.86c1.68,1.84,1.68,3.67,0,5.51"/>
  </g>
  <g>
    <path class="cls-16" d="M651.86,349.71c-11.82,4.44-21.42,10.28-24.94,19.97,.89,8.82,6.94,15.67,17.12,20.94,6.58,3.15,13.15,5.12,19.73,5.96,7.47,.95,14.94,.43,22.41-1.49,7.17-1.84,14.35-4.98,21.52-9.34,2.88-4.32,3.46-8.51-1.45-12.37-3.46-1.86-7.39-5.27-11.58-9.54l-8.19-7.79c-11.87-7.24-23.42-9.66-34.62-6.33Z"/>
    <path class="cls-14" d="M685.63,394.61c-2.96,3.06-2.9,6.87-1.55,11-7.13,.94-13.98-2.93-20.65-9.53,7.63,1.08,15.05,.69,22.2-1.47Z"/>
    <path class="cls-14" d="M692.8,362.5c5.84-1.58,9.63-5.06,11.93-9.91-1.25,1.45-5.55-.03-12.82-4.35-6.55-4.06-13.12-8.18-17.38-8.52-10.28-1.45-18.02,1.67-22.9,9.98,15.38-1.07,29.28,2.65,41.17,12.8Z"/>
    <path class="cls-16" d="M707.05,385.91c2.39-.9,4.84,1.46,7.34,6.28,4.12,4.94,8.87,7.61,14.32,7.73-.8-4.86-2.92-9.85-6.24-14.99-1.1-3.06-.35-6.12,1.84-9.19,3.32-3.21,5.65-7.15,6.61-12.09-5.53-1.81-10.84-1.31-15.79,2.9-3.22,4.08-6.76,6.42-10.76,6.33,5.57,2.72,6.48,7.06,2.68,13.01Z"/>
    <path class="cls-14" d="M652.73,376.2c11.28-3.62,19.83,.05,25.82,10.6-10.8,2.49-19.44-.86-25.82-10.6Z"/>
    <path class="cls-17" d="M653.43,377.23c7.66,5.24,15.57,8.6,23.76,9.86"/>
    <path class="cls-17" d="M654.36,375.73c8.26,1.31,16,4.27,23.09,9.27"/>
    <path class="cls-17" d="M663.43,349.88c2.1-4.41,5.6-7.93,11.1-10.16"/>
    <path class="cls-17" d="M672.88,351.7c2.14-3.85,4.89-7.19,8.95-9.39"/>
    <path class="cls-17" d="M691.91,348.24c-4.16,1.55-6.91,4.25-8.95,7.52"/>
    <path class="cls-17" d="M645.62,352.01c2.84,12.69,2.29,25.12-2.48,37.21"/>
    <path class="cls-3" d="M653.96,349.57c3.23,4.54,4.27,10.65,4.31,17.47,1.63-6.9,3.03-13.61,.99-17.47h-5.29Z"/>
    <path class="cls-3" d="M670.16,351c1.66,4.83,1.82,10.54,1.38,16.61,1.91-5.74,3.2-11.07,2.99-15.41"/>
    <path class="cls-3" d="M683.91,356.29c.98,3.83,.81,8.19,0,12.83,1.64-3.09,2.93-6.5,3.07-10.98l-3.07-1.85Z"/>
    <path class="cls-3" d="M664.5,374.85c1.01-1.77,1.06-4.12,.81-6.64,2.55,2.77,3.62,5.57,3.2,8.38l-4.01-1.74Z"/>
    <path class="cls-3" d="M654.36,394.2c3.3-2.98,5.6-6.15,6.67-9.56l5.53,2.41c-.2,3.58-2.65,6.34-6.27,8.67"/>
    <path class="cls-17" d="M666.21,398.66c6.09,2.28,11.79,3.09,16.76,1.16"/>
    <path class="cls-3" d="M689.49,393.49c2.36-4.96,2.94-11.02,2.43-17.76,1.92,5.91,2.61,11.48,1.25,16.47l-3.68,1.29Z"/>
    <path class="cls-14" d="M728.7,399.34c-6.45-4.41-12.99-10.83-19.57-18.11"/>
    <path class="cls-14" d="M722.43,384.4c-4.44-3.29-8.88-4.84-13.32-4.65"/>
    <path class="cls-14" d="M709.11,377.6c5.74,.71,11.3-.6,16.67-3.94"/>
    <path class="cls-14" d="M707.07,374.23c7.81-5.58,15.74-9.52,23.85-11.04"/>
    <path class="cls-17" d="M642.9,367.05c.25-3.86-4.18-5.3-4.73,0,.18,3.86,4.61,3.86,4.73,0Z"/>
    <path class="cls-1" d="M641.26,366.77c.04-2.61-2.17-2.61-2.14,0,.34,1.73,1.82,1.73,2.14,0Z"/>
    <path class="cls-5" d="M627.41,368.21c4.37,3.53,4.3,4.66,0,3.49"/>
  </g>
  <g>
    <path class="cls-13" d="M645.89,184.41c-4.82,.1-8.91-.97-11.94-3.75-1.13,3.36-3.13,5.58-5.45,7.4-.94-3.5-5.01-10.18-2.77-12.5,.23-.19,.46-.34,.7-.47,1.68-.89,3.61-.43,5.67,.69l20.34,2.37"/>
    <g>
      <path class="cls-13" d="M681.92,165.78c-3.58,10.99-11.42,16.21-21.48,18.41-3.68,6.94-8.9,10.81-15.08,12.72,1.08-4.31,1.33-8.5,.53-12.51-.14-.72-.32-1.44-.53-2.16,2.39-1.84,4.57-2.94,6.44-3.04l1.78,.25c-.56-.21-1.16-.28-1.78-.25l-26.07-3.65c-1.96-2.17-3.19-4.9-3.68-8.2-2.94,19.23-12.26,24.46-26.97,17.89,5.61-.53,8.19-2.28,7.77-5.26,.94-2.97,2.23-5.38,4.11-6.84-2.89-6.02-2.08-10.62,2.74-13.68-8.96-3.6-16.24-8.14-12.34-18.94-6.88-4.42-11.95-9.4-8.01-17.15,20.73,4.73,36.65,12.85,35.19,33.14,10.81-17.62,23.09-20.9,36.59-12.13,6.64,4.31,13.57,11.53,20.78,21.39Z"/>
      <path class="cls-13" d="M653.58,179.46l-1.78-.25c.63-.03,1.22,.05,1.78,.25Z"/>
    </g>
    <path class="cls-19" d="M627.76,151.76c-.17-.34-.32-.67-.47-1-2.91-6.53-1.46-10.55,2.98-12.86,1.7-3.71,1.01-6.79-3.2-8.94,15.28-.05,26.63,5.09,34.07,15.43-13.44-5.06-24.75-3.22-33.38,7.37Z"/>
    <path class="cls-9" d="M652.66,142.08c-6.45-6.04-13.7-9.31-21.85-9.46"/>
    <path class="cls-9" d="M635.98,145c-1.67-3.35-4.52-4.98-8.35-5.16"/>
    <path class="cls-19" d="M597.36,140.53c10.58-2.55,19.69,2.51,27.18,15.99"/>
    <path class="cls-19" d="M602.81,181.34c7.71,1.8,14.25-2.73,19.23-15.56"/>
    <path class="cls-19" d="M606.96,173.15c2.49,3.26,7.66-.38,15.08-9.8"/>
    <path class="cls-19" d="M609.7,159.47c1.81-8.67,5.62-11.07,13.25-1.58"/>
    <path class="cls-9" d="M671.19,160.95c.09-4.07-4.33-4.07-4.29,0,.69,2.69,3.64,2.69,4.29,0Z"/>
    <path class="cls-6" d="M670.53,160.63c.06-2.85-2.69-2.85-2.66,0,.43,1.89,2.25,1.89,2.66,0Z"/>
    <path class="cls-19" d="M653.57,156.85c1.11,.85,1.11,1.69,0,2.54"/>
    <path class="cls-9" d="M653.42,159.31c1.5,1.72,1.5,3.44,0,5.16"/>
    <path class="cls-9" d="M651.16,152.64c1.11,.85,1.11,1.69,0,2.54"/>
    <path class="cls-19" d="M651.01,155.1c1.5,1.72,1.5,3.44,0,5.16"/>
    <path class="cls-19" d="M648.42,166.31c1.11,.85,1.11,1.69,0,2.54"/>
    <path class="cls-9" d="M648.27,168.78c1.5,1.72,1.5,3.44,0,5.16"/>
  </g>
  <g>
    <path class="cls-12" d="M952.15,626.93c5.39,.11,9.96-1.04,13.34-4.01,1.26,3.58,3.5,5.96,6.09,7.9,1.05-3.73,5.6-10.88,3.09-13.35-.26-.2-.52-.36-.79-.5-1.88-.95-4.04-.46-6.33,.73l-22.72,2.53"/>
    <g>
      <path class="cls-12" d="M911.9,607.04c4,11.74,12.75,17.31,24,19.66,4.12,7.42,9.94,11.55,16.85,13.58-1.21-4.61-1.49-9.07-.6-13.35,.16-.78,.36-1.55,.6-2.31-2.69-1.97-5.13-3.15-7.23-3.24l-1.96,.26c.61-.21,1.27-.3,1.96-.26l29.16-3.9c2.19-2.31,3.56-5.24,4.11-8.75,3.29,20.54,13.7,26.12,30.12,19.1-6.26-.56-9.15-2.44-8.68-5.62-1.05-3.17-2.5-5.74-4.6-7.3,3.23-6.43,2.32-11.34-3.06-14.61,10.01-3.84,18.14-8.69,13.79-20.23,7.69-4.72,13.35-10.04,8.95-18.32-23.16,5.06-40.94,13.72-39.31,35.39-12.08-18.82-25.79-22.32-40.88-12.96-7.42,4.6-15.16,12.32-23.21,22.85Z"/>
      <path class="cls-12" d="M943.56,621.65l1.96-.26c-.69-.03-1.34,.05-1.96,.26Z"/>
    </g>
    <path class="cls-11" d="M972.4,592.06c.19-.36,.36-.72,.53-1.07,3.25-6.98,1.63-11.27-3.33-13.74-1.9-3.96-1.13-7.25,3.57-9.55-17.07-.06-29.75,5.44-38.06,16.48,15.01-5.4,27.65-3.44,37.29,7.87Z"/>
    <path class="cls-8" d="M944.59,581.73c7.2-6.45,15.3-9.94,24.41-10.11"/>
    <path class="cls-8" d="M963.21,584.85c1.87-3.57,5.05-5.31,9.33-5.51"/>
    <path class="cls-11" d="M1006.36,580.07c-11.82-2.72-22,2.69-30.37,17.07"/>
    <path class="cls-11" d="M1000.27,623.65c-8.62,1.92-15.92-2.91-21.48-16.61"/>
    <path class="cls-11" d="M995.63,614.9c-2.78,3.48-8.56-.41-16.85-10.47"/>
    <path class="cls-11" d="M992.57,600.3c-2.02-9.26-6.28-11.82-14.81-1.69"/>
    <path class="cls-2" d="M923.88,601.88c-.1-4.35,4.84-4.35,4.79,0-.77,2.88-4.06,2.88-4.79,0Z"/>
    <path class="cls-1" d="M924.62,601.54c-.06-3.04,3-3.04,2.97,0-.48,2.01-2.52,2.01-2.97,0Z"/>
    <path class="cls-8" d="M943.56,597.5c-1.24,.9-1.24,1.81,0,2.71"/>
    <path class="cls-2" d="M943.74,600.13c-1.68,1.84-1.68,3.67,0,5.51"/>
    <path class="cls-2" d="M946.25,593c-1.24,.9-1.24,1.81,0,2.71"/>
    <path class="cls-2" d="M946.42,595.63c-1.68,1.84-1.68,3.67,0,5.51"/>
    <path class="cls-2" d="M949.32,607.61c-1.24,.9-1.24,1.81,0,2.71"/>
    <path class="cls-2" d="M949.49,610.24c-1.68,1.84-1.68,3.67,0,5.51"/>
  </g>
  <g>
    <path class="cls-10" d="M269.05,520.03c-5.75,2.4-10.42,5.57-12.13,10.82,.43,4.78,3.37,8.49,8.33,11.34,3.2,1.71,6.4,2.77,9.6,3.23,3.64,.51,7.27,.23,10.9-.8s6.98-2.7,10.47-5.06c1.4-2.34,1.68-4.61-.71-6.7-1.68-1.01-3.59-2.85-5.63-5.17l-3.98-4.22c-5.77-3.92-11.4-5.23-16.84-3.43Z"/>
    <path class="cls-18" d="M285.75,544.61c-1.46,1.68-1.42,3.76-.76,6.02-3.5,.51-6.86-1.6-10.14-5.21,3.75,.59,7.39,.38,10.9-.8Z"/>
    <path class="cls-18" d="M289.27,527.03c2.87-.86,4.73-2.77,5.86-5.42-.61,.79-2.73-.02-6.3-2.38-3.22-2.22-6.44-4.48-8.54-4.67-5.05-.8-8.85,.91-11.25,5.46,7.55-.59,14.38,1.45,20.22,7.01Z"/>
    <path class="cls-18" d="M295.86,539.58c1.21-.49,2.46,.79,3.73,3.42,2.09,2.69,4.51,4.14,7.28,4.2-.41-2.64-1.48-5.36-3.17-8.15-.56-1.66-.18-3.33,.93-4.99,1.69-1.75,2.87-3.88,3.36-6.57-2.81-.99-5.51-.71-8.03,1.58-1.64,2.22-3.44,3.49-5.47,3.44,2.83,1.48,3.29,3.84,1.36,7.07Z"/>
    <path class="cls-18" d="M269.6,534.53c5.54-1.98,9.74,.03,12.68,5.8-5.3,1.36-9.55-.47-12.68-5.8Z"/>
    <path class="cls-15" d="M269.94,535.1c3.76,2.87,7.65,4.71,11.67,5.4"/>
    <path class="cls-15" d="M270.41,534.21c4.02,.75,7.79,2.39,11.23,5.13"/>
    <path class="cls-15" d="M274.85,520.12c1.03-2.42,2.75-4.34,5.45-5.56"/>
    <path class="cls-15" d="M279.49,521.12c1.05-2.11,2.4-3.93,4.39-5.14"/>
    <path class="cls-15" d="M288.84,519.23c-2.04,.85-3.39,2.32-4.4,4.12"/>
    <path class="cls-18" d="M266.1,521.29c1.4,6.95,1.13,13.75-1.22,20.37"/>
    <path class="cls-15" d="M270.2,519.96c1.59,2.49,2.1,5.83,2.11,9.56,.8-3.78,1.49-7.45,.48-9.56h-2.6Z"/>
    <path class="cls-15" d="M278.15,520.74c.82,2.65,.9,5.77,.68,9.09,.94-3.14,1.57-6.06,1.47-8.43"/>
    <path class="cls-15" d="M284.91,523.63c.48,2.1,.4,4.48,0,7.02,.81-1.69,1.44-3.56,1.51-6.01l-1.51-1.01Z"/>
    <path class="cls-15" d="M275.37,533.79c.5-.97,.52-2.25,.4-3.63,1.25,1.52,1.78,3.05,1.57,4.58l-1.97-.95Z"/>
    <path class="cls-15" d="M276.39,540.47c-.1,1.96-1.3,3.47-3.08,4.75l-2.91-.84c1.62-1.63,2.75-3.37,3.27-5.23l2.72,1.32Z"/>
    <path class="cls-15" d="M276.22,546.82c2.99,1.25,5.79,1.69,8.23,.64"/>
    <path class="cls-15" d="M287.64,544c1.16-2.71,1.44-6.03,1.19-9.72,.94,3.23,1.28,6.28,.61,9.01l-1.81,.71Z"/>
    <path class="cls-15" d="M306.91,547.2c-3.17-2.42-6.38-5.93-9.61-9.91"/>
    <path class="cls-15" d="M303.83,539.02c-2.18-1.8-4.36-2.65-6.54-2.54"/>
    <path class="cls-15" d="M297.28,535.3c2.82,.39,5.55-.33,8.19-2.16"/>
    <path class="cls-15" d="M296.28,533.45c3.84-3.06,7.73-5.21,11.71-6.04"/>
    <path class="cls-15" d="M264.76,529.52c.12-2.11-2.05-2.9-2.32,0,.09,2.11,2.26,2.11,2.32,0Z"/>
    <path class="cls-1" d="M263.96,529.37c.02-1.43-1.06-1.43-1.05,0,.17,.95,.89,.95,1.05,0Z"/>
    <path class="cls-4" d="M257.16,530.16c2.15,1.93,2.11,2.55,0,1.91"/>
  </g>
  <g>
    <path class="cls-13" d="M58.17,61.28c-4.82,.1-8.91-.97-11.94-3.75-1.13,3.36-3.13,5.58-5.45,7.4-.94-3.5-5.01-10.18-2.77-12.5,.23-.19,.46-.34,.7-.47,1.68-.89,3.61-.43,5.67,.69l20.34,2.37"/>
    <g>
      <path class="cls-13" d="M94.2,42.66c-3.58,10.99-11.42,16.21-21.48,18.41-3.69,6.94-8.9,10.81-15.08,12.72,1.08-4.31,1.33-8.5,.53-12.51-.14-.72-.32-1.44-.53-2.16,2.39-1.84,4.57-2.94,6.44-3.04l1.78,.25c-.56-.21-1.16-.28-1.78-.25l-26.07-3.65c-1.96-2.17-3.19-4.9-3.68-8.2-2.94,19.23-12.26,24.46-26.97,17.89,5.61-.53,8.19-2.28,7.77-5.26,.94-2.97,2.23-5.38,4.11-6.84-2.89-6.02-2.08-10.62,2.74-13.68-8.96-3.6-16.24-8.14-12.34-18.94C2.76,12.98-2.31,8.01,1.63,.25,22.37,4.99,38.28,13.1,36.83,33.39c10.81-17.62,23.09-20.9,36.59-12.13,6.64,4.31,13.57,11.53,20.78,21.39Z"/>
      <path class="cls-13" d="M65.86,56.33l-1.78-.25c.63-.03,1.22,.05,1.78,.25Z"/>
    </g>
    <path class="cls-19" d="M40.04,28.63c-.17-.34-.32-.67-.47-1-2.91-6.53-1.46-10.55,2.98-12.86,1.7-3.71,1.01-6.79-3.2-8.94,15.28-.05,26.63,5.09,34.07,15.43-13.44-5.06-24.75-3.22-33.38,7.37Z"/>
    <path class="cls-9" d="M64.94,18.95c-6.45-6.04-13.7-9.31-21.85-9.46"/>
    <path class="cls-9" d="M48.26,21.88c-1.67-3.35-4.52-4.98-8.35-5.16"/>
    <path class="cls-19" d="M9.64,17.4c10.58-2.55,19.69,2.51,27.18,15.99"/>
    <path class="cls-19" d="M15.09,58.21c7.71,1.8,14.25-2.73,19.23-15.56"/>
    <path class="cls-19" d="M19.24,50.02c2.49,3.26,7.66-.38,15.08-9.8"/>
    <path class="cls-19" d="M21.98,36.34c1.81-8.67,5.62-11.07,13.25-1.58"/>
    <path class="cls-9" d="M83.47,37.82c.09-4.07-4.33-4.07-4.29,0,.69,2.69,3.64,2.69,4.29,0Z"/>
    <path class="cls-6" d="M82.81,37.51c.06-2.85-2.69-2.85-2.66,0,.43,1.89,2.25,1.89,2.66,0Z"/>
    <path class="cls-19" d="M65.85,33.72c1.11,.85,1.11,1.69,0,2.54"/>
    <path class="cls-9" d="M65.7,36.18c1.5,1.72,1.5,3.44,0,5.16"/>
    <path class="cls-9" d="M63.44,29.51c1.11,.85,1.11,1.69,0,2.54"/>
    <path class="cls-19" d="M63.29,31.97c1.5,1.72,1.5,3.44,0,5.16"/>
    <path class="cls-19" d="M60.7,43.19c1.11,.85,1.11,1.69,0,2.54"/>
    <path class="cls-9" d="M60.55,45.65c1.5,1.72,1.5,3.44,0,5.16"/>
  </g>
  <g>
    <path class="cls-7" d="M320.3,249.61c2.03,3.07,6.39,5.2,11.46,5.2,5.35,0,9.92-2.37,11.78-5.73-2.03-3.07-6.39-5.2-11.46-5.2-5.35,0-9.92,2.37-11.78,5.73Z"/>
    <path class="cls-7" d="M341.9,249.35c2.15,.4,4.97-.16,7.27-1.62,2.43-1.54,3.56-3.61,3.06-5.23-2.15-.4-4.97,.16-7.27,1.62-2.43,1.54-3.56,3.61-3.06,5.23Z"/>
    <path class="cls-7" d="M341.21,249.63c-.06,1.59,1.37,3.42,3.88,4.69,2.65,1.34,5.74,1.64,7.82,.93,.06-1.59-1.37-3.42-3.88-4.69-2.65-1.34-5.74-1.64-7.82-.93Z"/>
  </g>
  <g>
    <path class="cls-7" d="M132.05,135.86c-2.39-2.8-6.97-4.38-12-3.77-5.31,.65-9.56,3.56-11,7.11,2.39,2.8,6.97,4.38,12,3.77,5.31-.65,9.56-3.56,11-7.11Z"/>
    <path class="cls-7" d="M110.65,138.73c-2.18-.14-4.92,.76-7.02,2.49-2.22,1.82-3.09,4.02-2.41,5.56,2.18,.14,4.92-.76,7.02-2.49,2.22-1.82,3.09-4.02,2.41-5.56Z"/>
    <path class="cls-7" d="M111.29,138.37c-.14-1.58-1.77-3.23-4.42-4.18-2.8-1-5.9-.93-7.88,.03,.14,1.58,1.77,3.23,4.42,4.18,2.8,1,5.9,.93,7.88-.03Z"/>
  </g>
  <g>
    <path class="cls-7" d="M677.4,605.32c1.3,3.45,5.07,6.49,10.01,7.62,5.22,1.19,10.2-.1,12.76-2.96-1.3-3.45-5.07-6.49-10.01-7.62-5.22-1.19-10.2,.1-12.76,2.96Z"/>
    <path class="cls-7" d="M698.51,609.87c2,.87,4.88,.95,7.45,.04,2.71-.96,4.27-2.73,4.15-4.41-2-.87-4.88-.95-7.45-.04-2.71,.96-4.27,2.73-4.15,4.41Z"/>
    <path class="cls-7" d="M697.78,610c-.41,1.53,.57,3.64,2.74,5.43,2.29,1.89,5.23,2.88,7.42,2.64,.41-1.53-.57-3.64-2.74-5.43-2.29-1.89-5.23-2.88-7.42-2.64Z"/>
  </g>
  <g>
    <path class="cls-7" d="M881.55,38.4c-.22-3.67-2.92-7.7-7.31-10.24-4.63-2.68-9.77-2.92-13.06-.95,.22,3.67,2.92,7.7,7.31,10.24,4.63,2.68,9.77,2.92,13.06,.95Z"/>
    <path class="cls-7" d="M862.73,27.8c-1.65-1.43-4.38-2.35-7.1-2.25-2.87,.11-4.89,1.34-5.27,2.99,1.65,1.43,4.38,2.35,7.1,2.25,2.87-.11,4.89-1.34,5.27-2.99Z"/>
    <path class="cls-7" d="M863.46,27.9c.84-1.34,.53-3.65-1.01-6-1.63-2.49-4.14-4.3-6.3-4.72-.84,1.34-.53,3.65,1.01,6,1.63,2.49,4.14,4.3,6.3,4.72Z"/>
  </g>
  <g>
    <path class="cls-7" d="M868.93,291.1c-1.68-3.27-5.78-5.87-10.81-6.43-5.32-.59-10.12,1.27-12.34,4.4,1.68,3.27,5.78,5.87,10.81,6.43,5.32,.59,10.12-1.27,12.34-4.4Z"/>
    <path class="cls-7" d="M847.44,288.98c-2.09-.64-4.96-.39-7.41,.81-2.58,1.26-3.93,3.2-3.62,4.86,2.09,.64,4.96,.39,7.41-.81,2.58-1.26,3.93-3.2,3.62-4.86Z"/>
    <path class="cls-7" d="M848.15,288.77c.23-1.57-.98-3.55-3.34-5.08-2.49-1.62-5.52-2.26-7.67-1.78-.23,1.57,.98,3.55,3.34,5.08,2.49,1.62,5.52,2.26,7.67,1.78Z"/>
  </g>
  <g>
    <path class="cls-7" d="M448.33,263.79c1.28,1.51,4.03,2.56,7.23,2.56,3.38,0,6.26-1.17,7.44-2.82-1.28-1.51-4.03-2.56-7.23-2.56-3.38,0-6.26,1.17-7.44,2.82Z"/>
    <path class="cls-7" d="M461.96,263.66c1.35,.2,3.14-.08,4.59-.8,1.53-.76,2.25-1.78,1.93-2.57-1.35-.2-3.14,.08-4.59,.8-1.53,.76-2.25,1.78-1.93,2.57Z"/>
    <path class="cls-7" d="M461.53,263.8c-.03,.78,.86,1.68,2.45,2.3,1.68,.66,3.62,.81,4.94,.46,.03-.78-.86-1.68-2.45-2.3-1.68-.66-3.62-.81-4.94-.46Z"/>
  </g>
  <g>
    <path class="cls-7" d="M535.84,486.58c-1.01-1.7-3.55-3.2-6.7-3.74-3.33-.57-6.37,.09-7.81,1.52,1.01,1.7,3.55,3.2,6.7,3.74,3.33,.57,6.37-.09,7.81-1.52Z"/>
    <path class="cls-7" d="M522.38,484.41c-1.3-.42-3.11-.45-4.66,.01-1.64,.49-2.51,1.37-2.34,2.21,1.3,.42,3.11,.45,4.66-.01,1.64-.49,2.51-1.37,2.34-2.21Z"/>
    <path class="cls-7" d="M522.83,484.34c.17-.76-.57-1.8-2.03-2.68-1.54-.93-3.44-1.41-4.79-1.28-.17,.76,.57,1.8,2.03,2.68,1.54,.93,3.44,1.41,4.79,1.28Z"/>
  </g>
</svg>