<svg xmlns="http://www.w3.org/2000/svg" viewBox="0 0 50.25 12.26"><defs><style>.cls-1{fill:#0a0f0a;}.cls-1,.cls-2{stroke:#000;stroke-miterlimit:10;stroke-width:0.25px;}.cls-2{fill:#172317;}</style></defs><g id="Layer_2" data-name="Layer 2"><g id="Layer_1-2" data-name="Layer 1"><polygon class="cls-1" points="50.13 0.14 38.13 1.14 21.71 0.14 13.13 1.14 5.62 0.56 0.13 0.14 0.13 12.14 50.13 12.14 50.13 0.14"/><path class="cls-2" d="M1.13,5.14s-1-3,0-3h3l2,2,1,2-4,1Z"/><path class="cls-2" d="M11.13,6.14l-2,2,2,2a2,2,0,0,0,2-2,2,2,0,0,0-2-2"/><path class="cls-2" d="M45.12,2.14l-4,2s-1,2,2,2a2.94,2.94,0,0,0,3-3l-1-1"/><path class="cls-2" d="M30.12,5.14s-3-2-5-2-6,2-4,3,4-2,4-2l5,1"/><path class="cls-2" d="M35.12,7.14s-3,1-2,2,4,1,4,0S37.12,7.14,35.12,7.14Z"/><path class="cls-2" d="M20.13,8.14s-3,0-2,1,6,1,5,0A4.94,4.94,0,0,0,20.13,8.14Z"/><path class="cls-2" d="M15.13,2.14s-2,0-2,1,3,1,3,0A1,1,0,0,0,15.13,2.14Z"/><path class="cls-2" d="M36.12,2.14s-2,0-2,1,3,2,3,1A3.49,3.49,0,0,0,36.12,2.14Z"/></g></g></svg>