<svg xmlns="http://www.w3.org/2000/svg" viewBox="0 0 24.67 31.99"><defs><style>.cls-1{fill:#001700;}.cls-1,.cls-2,.cls-3,.cls-4,.cls-5{stroke:#000;stroke-miterlimit:10;stroke-width:0.25px;}.cls-2{fill:#536634;}.cls-3{fill:#6da200;}.cls-4{fill:#005c0f;}.cls-5{fill:#092e00;}</style></defs><g id="Layer_2" data-name="Layer 2"><g id="Layer_1-2" data-name="Layer 1"><path class="cls-1" d="M6.68,29.86c-1-4-2-7-1-9s1-5-1-6-2-4-1-6a39.33,39.33,0,0,0,2-6s1,3,0,5-2,3-1,5,5,3,4,6-3,6-2,9S6.68,29.86,6.68,29.86Z"/><path class="cls-2" d="M6.82,28.28s-1.14-3.42.86-4.42,6-3,4-7a9.66,9.66,0,0,1,0-8s-1,7,2,10-5,7-5,7-2,3,0,4S5,30.7,6.82,28.28Z"/><path class="cls-3" d="M4.68,22.86s-3-3-2-5-1-4-1-4,1,1,0,3-1,6,1,7,3,2,2,4,2,2,2,2S6.68,24.86,4.68,22.86Z"/><path class="cls-4" d="M5.36,28.38s-1.47-2,2.55-1.05S11,30,14.18,26s5.88-9.35,7.67-8.44a2,2,0,0,0,2.69-.88s0,2.24-3.15,1.77-4.55,11.15-8.13,11.57-8-4.09-7.15-1.4S5.36,28.38,5.36,28.38Z"/><path class="cls-5" d="M6.44,14.68s-2.76-2.82-.76-4.82,4-6,3-9,4,4,2,6-7,3-4,7,8,9,4,11-4,3-4,5-1.06,1.35-1.53-.32a5.55,5.55,0,0,1,2.53-5.68c2-1,4-2,2-4A17.5,17.5,0,0,1,6.44,14.68Z"/><path class="cls-4" d="M2.68,29.25s0-.87,3,0a45.8,45.8,0,0,1,5,1.74h3a13.65,13.65,0,0,1-5,.87,13.91,13.91,0,0,1-6-1.74s-4-.87-2-.87Z"/></g></g></svg>