<svg xmlns="http://www.w3.org/2000/svg" viewBox="0 0 13.63 39.32"><defs><style>.cls-1{fill:#005c0f;stroke:#000;stroke-miterlimit:10;stroke-width:0.25px;}</style></defs><g id="Layer_2" data-name="Layer 2"><g id="Layer_1-2" data-name="Layer 1"><path class="cls-1" d="M3.61,39a3.1,3.1,0,0,1-2-4.17c1-3.33,7-9.17,5-13.34S5.61,9,5.61,9s-1,10,0,12.5-1,8.34-4,10-1,8.34,2,7.5"/><path class="cls-1" d="M2.86,30.72S8.61,20,5.61,15s0-14,0-14-5,8-3,12,1,16-1,19S2.33,39.25,4,38.6,3.61,39,2.61,37,2.86,30.72,2.86,30.72Z"/><path class="cls-1" d="M6.61,32a17.52,17.52,0,0,0,1-10c-1-6-3-9-2-12s1-2,1-2-2,0-2,5,2,2,2,10-1,8-2,9-1,8,0,7-2-2,0-4S6.61,32,6.61,32Z"/><path class="cls-1" d="M2.61,38S1.36,32.26,5,31.61,13.61,26,11.61,19a19.58,19.58,0,0,1,1-13l-1,5a21.42,21.42,0,0,0,1,6c1,3,2,12-2,14s-7,1-7,4S4.61,41,2.61,38Z"/></g></g></svg>