<?xml version="1.0" encoding="UTF-8"?>
<svg id="Layer_3" data-name="Layer 3" xmlns="http://www.w3.org/2000/svg" viewBox="0 0 1259.14 700.65">
  <defs>
    <style>
      .cls-1 {
        fill: #002c53;
      }
    </style>
  </defs>
  <g>
    <path class="cls-1" d="M62.88,140.85c2.03,3.07,6.39,5.2,11.46,5.2,5.35,0,9.92-2.37,11.78-5.73-2.03-3.07-6.39-5.2-11.46-5.2-5.35,0-9.92,2.37-11.78,5.73Z"/>
    <path class="cls-1" d="M84.47,140.6c2.15,.4,4.97-.16,7.27-1.62,2.43-1.54,3.56-3.61,3.06-5.23-2.15-.4-4.97,.16-7.27,1.62-2.43,1.54-3.56,3.61-3.06,5.23Z"/>
    <path class="cls-1" d="M83.79,140.88c-.06,1.59,1.37,3.42,3.88,4.69,2.65,1.34,5.74,1.64,7.82,.93,.06-1.59-1.37-3.42-3.88-4.69-2.65-1.34-5.74-1.64-7.82-.93Z"/>
  </g>
  <g>
    <path class="cls-1" d="M646.74,59.1c2.39-2.8,6.97-4.38,12-3.77,5.31,.65,9.56,3.56,11,7.11-2.39,2.8-6.97,4.38-12,3.77-5.31-.65-9.56-3.56-11-7.11Z"/>
    <path class="cls-1" d="M668.14,61.98c2.18-.14,4.92,.76,7.02,2.49,2.22,1.82,3.09,4.02,2.41,5.56-2.18,.14-4.92-.76-7.02-2.49-2.22-1.82-3.09-4.02-2.41-5.56Z"/>
    <path class="cls-1" d="M667.5,61.62c.14-1.58,1.77-3.23,4.42-4.18,2.8-1,5.9-.93,7.88,.03-.14,1.58-1.77,3.23-4.42,4.18-2.8,1-5.9,.93-7.88-.03Z"/>
  </g>
  <g>
    <path class="cls-1" d="M476.68,325.56c1.3,3.45,5.07,6.49,10.01,7.62,5.22,1.19,10.2-.1,12.76-2.96-1.3-3.45-5.07-6.49-10.01-7.62-5.22-1.19-10.2,.1-12.76,2.96Z"/>
    <path class="cls-1" d="M497.79,330.12c2,.87,4.88,.95,7.45,.04,2.71-.96,4.27-2.73,4.15-4.41-2-.87-4.88-.95-7.45-.04-2.71,.96-4.27,2.73-4.15,4.41Z"/>
    <path class="cls-1" d="M497.06,330.24c-.41,1.53,.57,3.64,2.74,5.43,2.29,1.89,5.23,2.88,7.42,2.64,.41-1.53-.57-3.64-2.74-5.43-2.29-1.89-5.23-2.88-7.42-2.64Z"/>
  </g>
  <g>
    <path class="cls-1" d="M235.66,434.65c.22-3.67,2.88-7.7,7.21-10.24,4.57-2.68,9.64-2.92,12.89-.95-.22,3.67-2.88,7.7-7.21,10.24-4.57,2.68-9.64,2.92-12.89,.95Z"/>
    <path class="cls-1" d="M254.23,424.04c1.63-1.43,4.33-2.35,7.01-2.25,2.83,.11,4.82,1.34,5.2,2.99-1.63,1.43-4.33,2.35-7.01,2.25-2.83-.11-4.82-1.34-5.2-2.99Z"/>
    <path class="cls-1" d="M253.5,424.14c-.83-1.34-.52-3.65,1-6,1.61-2.49,4.09-4.3,6.22-4.72,.83,1.34,.52,3.65-1,6-1.61,2.49-4.09,4.3-6.22,4.72Z"/>
  </g>
  <g>
    <path class="cls-1" d="M187.86,9.34c1.68-3.27,5.78-5.87,10.81-6.43,5.32-.59,10.12,1.27,12.34,4.4-1.68,3.27-5.78,5.87-10.81,6.43-5.32,.59-10.12-1.27-12.34-4.4Z"/>
    <path class="cls-1" d="M209.35,7.22c2.09-.64,4.96-.39,7.41,.81,2.58,1.26,3.93,3.2,3.62,4.86-2.09,.64-4.96,.39-7.41-.81-2.58-1.26-3.93-3.2-3.62-4.86Z"/>
    <path class="cls-1" d="M208.65,7.02c-.23-1.57,.98-3.55,3.34-5.08,2.49-1.62,5.52-2.26,7.67-1.78,.23,1.57-.98,3.55-3.34,5.08-2.49,1.62-5.52,2.26-7.67,1.78Z"/>
  </g>
  <g>
    <path class="cls-1" d="M190.9,155.04c1.28,1.51,4.03,2.56,7.23,2.56,3.38,0,6.26-1.17,7.44-2.82-1.28-1.51-4.03-2.56-7.23-2.56-3.38,0-6.26,1.17-7.44,2.82Z"/>
    <path class="cls-1" d="M204.54,154.91c1.35,.2,3.14-.08,4.59-.8,1.53-.76,2.25-1.78,1.93-2.57-1.35-.2-3.14,.08-4.59,.8-1.53,.76-2.25,1.78-1.93,2.57Z"/>
    <path class="cls-1" d="M204.1,155.05c-.03,.78,.86,1.68,2.45,2.3,1.68,.66,3.62,.81,4.94,.46,.03-.78-.86-1.68-2.45-2.3-1.68-.66-3.62-.81-4.94-.46Z"/>
  </g>
  <g>
    <path class="cls-1" d="M743.58,208.06c1.66,2.4,4.96,3.87,8.65,3.53,3.9-.36,7.08-2.64,8.24-5.54-1.66-2.4-4.96-3.87-8.65-3.53-3.9,.36-7.08,2.64-8.24,5.54Z"/>
    <path class="cls-1" d="M759.29,206.39c1.59,.19,3.61-.47,5.2-1.83,1.68-1.44,2.37-3.23,1.92-4.54-1.59-.19-3.61,.47-5.2,1.83-1.68,1.44-2.37,3.23-1.92,4.54Z"/>
    <path class="cls-1" d="M758.81,206.66c.05,1.32,1.2,2.74,3.1,3.62,2.01,.93,4.28,.97,5.75,.24-.05-1.32-1.2-2.74-3.1-3.62-2.01-.93-4.28-.97-5.75-.24Z"/>
  </g>
  <g>
    <path class="cls-1" d="M988.05,176.31c1.53,2.68,4.82,4.55,8.64,4.55,4.04,0,7.49-2.08,8.89-5.01-1.53-2.68-4.82-4.55-8.64-4.55-4.04,0-7.49,2.08-8.89,5.01Z"/>
    <path class="cls-1" d="M1004.34,176.08c1.62,.35,3.75-.14,5.49-1.41,1.83-1.34,2.68-3.16,2.31-4.57-1.62-.35-3.75,.14-5.49,1.41-1.83,1.34-2.68,3.16-2.31,4.57Z"/>
    <path class="cls-1" d="M1003.83,176.33c-.04,1.39,1.03,2.99,2.93,4.1,2,1.17,4.33,1.43,5.9,.81,.04-1.39-1.03-2.99-2.93-4.1-2-1.17-4.33-1.43-5.9-.81Z"/>
  </g>
  <g>
    <path class="cls-1" d="M1213.91,123.34c1.79-2.41,5.22-3.77,8.99-3.24,3.98,.56,7.16,3.06,8.23,6.12-1.79,2.41-5.22,3.77-8.99,3.24-3.98-.56-7.16-3.06-8.23-6.12Z"/>
    <path class="cls-1" d="M1229.93,125.81c1.63-.12,3.68,.66,5.26,2.14,1.67,1.57,2.31,3.45,1.8,4.78-1.63,.12-3.68-.66-5.26-2.14-1.67-1.57-2.31-3.45-1.8-4.78Z"/>
    <path class="cls-1" d="M1229.45,125.5c.1-1.36,1.33-2.78,3.31-3.59,2.09-.86,4.41-.8,5.9,.03-.1,1.36-1.33,2.78-3.31,3.59-2.09,.86-4.41,.8-5.9-.03Z"/>
  </g>
  <g>
    <path class="cls-1" d="M942.64,21.25c1.51-1.29,4.39-1.89,7.55-1.38,3.34,.53,6,2.14,6.9,3.96-1.51,1.29-4.39,1.89-7.55,1.38-3.34-.53-6-2.14-6.9-3.96Z"/>
    <path class="cls-1" d="M956.08,23.53c1.37,.02,3.09,.58,4.41,1.51,1.39,.99,1.94,2.11,1.5,2.84-1.37-.02-3.09-.58-4.41-1.51-1.39-.99-1.94-2.11-1.5-2.84Z"/>
    <path class="cls-1" d="M955.68,23.33c.09-.78,1.12-1.52,2.78-1.89,1.76-.38,3.71-.22,4.95,.33-.09,.78-1.12,1.52-2.78,1.89-1.76,.38-3.71,.22-4.95-.33Z"/>
  </g>
  <g>
    <path class="cls-1" d="M1180.4,405.08c1.32,1.34,4.17,2.27,7.47,2.27,3.49,0,6.47-1.04,7.68-2.5-1.32-1.34-4.17-2.27-7.47-2.27-3.49,0-6.47,1.04-7.68,2.5Z"/>
    <path class="cls-1" d="M1194.47,404.97c1.4,.18,3.24-.07,4.74-.71,1.58-.67,2.32-1.58,2-2.28-1.4-.18-3.24,.07-4.74,.71-1.58,.67-2.32,1.58-2,2.28Z"/>
    <path class="cls-1" d="M1194.03,405.09c-.04,.69,.89,1.5,2.53,2.05,1.73,.58,3.74,.72,5.1,.4,.04-.69-.89-1.5-2.53-2.05-1.73-.58-3.74-.72-5.1-.4Z"/>
  </g>
  <g>
    <path class="cls-1" d="M1109.25,332.88c1.01,1.46,3.53,2.65,6.68,2.94,3.32,.31,6.35-.46,7.78-1.82-1.01-1.46-3.53-2.65-6.68-2.94-3.32-.31-6.35,.46-7.78,1.82Z"/>
    <path class="cls-1" d="M1122.66,334.02c1.3,.3,3.1,.22,4.64-.29,1.63-.53,2.5-1.38,2.33-2.11-1.3-.3-3.1-.22-4.64,.29-1.63,.53-2.5,1.38-2.33,2.11Z"/>
    <path class="cls-1" d="M1122.22,334.1c-.16,.69,.57,1.58,2.02,2.28,1.54,.74,3.42,1.05,4.77,.86,.16-.69-.57-1.58-2.02-2.28-1.54-.74-3.42-1.05-4.77-.86Z"/>
  </g>
  <g>
    <path class="cls-1" d="M800.85,216.07c.64,1.66,2.71,3.04,5.51,3.42,2.95,.41,5.84-.41,7.39-1.92-.64-1.66-2.71-3.04-5.51-3.42-2.95-.41-5.84,.41-7.39,1.92Z"/>
    <path class="cls-1" d="M812.8,217.58c1.12,.36,2.77,.3,4.26-.24,1.58-.57,2.53-1.5,2.51-2.33-1.12-.36-2.77-.3-4.26,.24-1.58,.57-2.53,1.5-2.51,2.33Z"/>
    <path class="cls-1" d="M812.38,217.67c-.28,.77,.22,1.78,1.41,2.6,1.25,.86,2.91,1.24,4.17,1.05,.28-.77-.22-1.78-1.41-2.6-1.25-.86-2.91-1.24-4.17-1.05Z"/>
  </g>
  <g>
    <path class="cls-1" d="M973.47,470.6c1.28,1.51,4.03,2.56,7.23,2.56,3.38,0,6.26-1.17,7.44-2.82-1.28-1.51-4.03-2.56-7.23-2.56-3.38,0-6.26,1.17-7.44,2.82Z"/>
    <path class="cls-1" d="M987.1,470.47c1.35,.2,3.14-.08,4.59-.8,1.53-.76,2.25-1.78,1.93-2.57-1.35-.2-3.14,.08-4.59,.8-1.53,.76-2.25,1.78-1.93,2.57Z"/>
    <path class="cls-1" d="M986.67,470.61c-.03,.78,.86,1.68,2.45,2.3,1.68,.66,3.62,.81,4.94,.46,.03-.78-.86-1.68-2.45-2.3-1.68-.66-3.62-.81-4.94-.46Z"/>
  </g>
  <g>
    <path class="cls-1" d="M1220.96,155.3c1.01-1.7,3.55-3.2,6.7-3.74,3.33-.57,6.37,.09,7.81,1.52-1.01,1.7-3.55,3.2-6.7,3.74-3.33,.57-6.37-.09-7.81-1.52Z"/>
    <path class="cls-1" d="M1234.42,153.13c1.3-.42,3.11-.45,4.66,.01,1.64,.49,2.51,1.37,2.34,2.21-1.3,.42-3.11,.45-4.66-.01-1.64-.49-2.51-1.37-2.34-2.21Z"/>
    <path class="cls-1" d="M1233.97,153.06c-.17-.76,.57-1.8,2.03-2.68,1.54-.93,3.44-1.41,4.79-1.28,.17,.76-.57,1.8-2.03,2.68-1.54,.93-3.44,1.41-4.79,1.28Z"/>
  </g>
  <g>
    <path class="cls-1" d="M983.54,21.63c1.01-1.7,3.55-3.2,6.7-3.74,3.33-.57,6.37,.09,7.81,1.52-1.01,1.7-3.55,3.2-6.7,3.74-3.33,.57-6.37-.09-7.81-1.52Z"/>
    <path class="cls-1" d="M997,19.46c1.3-.42,3.11-.45,4.66,.01,1.64,.49,2.51,1.37,2.34,2.21-1.3,.42-3.11,.45-4.66-.01-1.64-.49-2.51-1.37-2.34-2.21Z"/>
    <path class="cls-1" d="M996.56,19.39c-.17-.76,.57-1.8,2.03-2.68,1.54-.93,3.44-1.41,4.79-1.28,.17,.76-.57,1.8-2.03,2.68-1.54,.93-3.44,1.41-4.79,1.28Z"/>
  </g>
  <g>
    <path class="cls-1" d="M1192.09,344.01c1.33,1.33,4.19,2.26,7.52,2.26,3.51,0,6.51-1.03,7.73-2.49-1.33-1.33-4.19-2.26-7.52-2.26-3.51,0-6.51,1.03-7.73,2.49Z"/>
    <path class="cls-1" d="M1206.27,343.89c1.41,.18,3.26-.07,4.77-.7,1.59-.67,2.33-1.57,2.01-2.27-1.41-.18-3.26,.07-4.77,.7-1.59,.67-2.33,1.57-2.01,2.27Z"/>
    <path class="cls-1" d="M1205.82,344.02c-.04,.69,.9,1.49,2.55,2.04,1.74,.58,3.77,.71,5.13,.4,.04-.69-.9-1.49-2.55-2.04-1.74-.58-3.77-.71-5.13-.4Z"/>
  </g>
  <g>
    <path class="cls-1" d="M315.34,139.23c2.05-1.49,5.99-2.33,10.31-2,4.56,.34,8.21,1.89,9.45,3.78-2.05,1.49-5.99,2.33-10.31,2-4.56-.34-8.21-1.89-9.45-3.78Z"/>
    <path class="cls-1" d="M333.72,140.76c1.87-.07,4.22,.41,6.03,1.32,1.91,.97,2.66,2.13,2.07,2.95-1.87,.07-4.22-.41-6.03-1.32-1.91-.97-2.66-2.13-2.07-2.95Z"/>
    <path class="cls-1" d="M333.17,140.57c.12-.84,1.52-1.72,3.8-2.22,2.4-.53,5.07-.49,6.77,.02-.12,.84-1.52,1.72-3.8,2.22-2.4,.53-5.07,.49-6.77-.02Z"/>
  </g>
  <g>
    <path class="cls-1" d="M273.09,43.87c1.22-1.56,3.93-2.72,7.14-2.86,3.38-.14,6.32,.9,7.57,2.5-1.22,1.56-3.93,2.72-7.14,2.86-3.38,.14-6.32-.9-7.57-2.5Z"/>
    <path class="cls-1" d="M286.75,43.42c1.35-.26,3.15-.05,4.63,.6,1.57,.69,2.32,1.68,2.05,2.49-1.35,.26-3.15,.05-4.63-.6-1.57-.69-2.32-1.68-2.05-2.49Z"/>
    <path class="cls-1" d="M286.31,43.3c-.07-.78,.79-1.72,2.36-2.41,1.65-.73,3.6-.96,4.93-.66,.07,.78-.79,1.72-2.36,2.41-1.65,.73-3.6,.96-4.93,.66Z"/>
  </g>
  <g>
    <path class="cls-1" d="M60.19,495.65c1.01-1.7,3.55-3.2,6.7-3.74,3.33-.57,6.37,.09,7.81,1.52-1.01,1.7-3.55,3.2-6.7,3.74-3.33,.57-6.37-.09-7.81-1.52Z"/>
    <path class="cls-1" d="M73.65,493.48c1.3-.42,3.11-.45,4.66,.01,1.64,.49,2.51,1.37,2.34,2.21-1.3,.42-3.11,.45-4.66-.01-1.64-.49-2.51-1.37-2.34-2.21Z"/>
    <path class="cls-1" d="M73.2,493.41c-.17-.76,.57-1.8,2.03-2.68,1.54-.93,3.44-1.41,4.79-1.28,.17,.76-.57,1.8-2.03,2.68-1.54,.93-3.44,1.41-4.79,1.28Z"/>
  </g>
  <g>
    <path class="cls-1" d="M64.42,673.84c1.01-1.7,3.55-3.2,6.7-3.74,3.33-.57,6.37,.09,7.81,1.52-1.01,1.7-3.55,3.2-6.7,3.74-3.33,.57-6.37-.09-7.81-1.52Z"/>
    <path class="cls-1" d="M77.88,671.66c1.3-.42,3.11-.45,4.66,.01,1.64,.49,2.51,1.37,2.34,2.21-1.3,.42-3.11,.45-4.66-.01-1.64-.49-2.51-1.37-2.34-2.21Z"/>
    <path class="cls-1" d="M77.43,671.6c-.17-.76,.57-1.8,2.03-2.68,1.54-.93,3.44-1.41,4.79-1.28,.17,.76-.57,1.8-2.03,2.68-1.54,.93-3.44,1.41-4.79,1.28Z"/>
  </g>
  <g>
    <path class="cls-1" d="M217.98,529.61c1.01-1.7,3.55-3.2,6.7-3.74,3.33-.57,6.37,.09,7.81,1.52-1.01,1.7-3.55,3.2-6.7,3.74-3.33,.57-6.37-.09-7.81-1.52Z"/>
    <path class="cls-1" d="M231.44,527.44c1.3-.42,3.11-.45,4.66,.01,1.64,.49,2.51,1.37,2.34,2.21-1.3,.42-3.11,.45-4.66-.01-1.64-.49-2.51-1.37-2.34-2.21Z"/>
    <path class="cls-1" d="M230.99,527.37c-.17-.76,.57-1.8,2.03-2.68,1.54-.93,3.44-1.41,4.79-1.28,.17,.76-.57,1.8-2.03,2.68-1.54,.93-3.44,1.41-4.79,1.28Z"/>
  </g>
  <g>
    <path class="cls-1" d="M564.49,524.41c1.89,1.09,5.73,1.78,10.07,1.68,4.59-.11,8.4-1.07,9.84-2.34-1.89-1.09-5.73-1.78-10.07-1.68-4.59,.11-8.4,1.07-9.84,2.34Z"/>
    <path class="cls-1" d="M583,523.88c1.86,.11,4.26-.16,6.16-.74,2.01-.61,2.88-1.4,2.38-1.98-1.86-.11-4.26,.16-6.16,.74-2.01,.61-2.88,1.4-2.38,1.98Z"/>
    <path class="cls-1" d="M582.43,524c.03,.58,1.34,1.23,3.55,1.64,2.34,.44,5,.49,6.75,.18-.03-.58-1.34-1.23-3.55-1.64-2.34-.44-5-.49-6.75-.18Z"/>
  </g>
  <g>
    <path class="cls-1" d="M94.29,287.39c1.01-1.7,3.55-3.2,6.7-3.74,3.33-.57,6.37,.09,7.81,1.52-1.01,1.7-3.55,3.2-6.7,3.74-3.33,.57-6.37-.09-7.81-1.52Z"/>
    <path class="cls-1" d="M107.75,285.21c1.3-.42,3.11-.45,4.66,.01,1.64,.49,2.51,1.37,2.34,2.21-1.3,.42-3.11,.45-4.66-.01-1.64-.49-2.51-1.37-2.34-2.21Z"/>
    <path class="cls-1" d="M107.3,285.15c-.17-.76,.57-1.8,2.03-2.68,1.54-.93,3.44-1.41,4.79-1.28,.17,.76-.57,1.8-2.03,2.68-1.54,.93-3.44,1.41-4.79,1.28Z"/>
  </g>
  <g>
    <path class="cls-1" d="M23.78,432.16c1.33,1.33,4.19,2.26,7.52,2.26,3.51,0,6.51-1.03,7.73-2.49-1.33-1.33-4.19-2.26-7.52-2.26-3.51,0-6.51,1.03-7.73,2.49Z"/>
    <path class="cls-1" d="M37.96,432.05c1.41,.18,3.26-.07,4.77-.7,1.59-.67,2.33-1.57,2.01-2.27-1.41-.18-3.26,.07-4.77,.7-1.59,.67-2.33,1.57-2.01,2.27Z"/>
    <path class="cls-1" d="M37.51,432.17c-.04,.69,.9,1.49,2.55,2.04,1.74,.58,3.77,.71,5.13,.4,.04-.69-.9-1.49-2.55-2.04-1.74-.58-3.77-.71-5.13-.4Z"/>
  </g>
  <g>
    <path class="cls-1" d="M38.88,273.72c1.01-1.7,3.55-3.2,6.7-3.74,3.33-.57,6.37,.09,7.81,1.52-1.01,1.7-3.55,3.2-6.7,3.74-3.33,.57-6.37-.09-7.81-1.52Z"/>
    <path class="cls-1" d="M52.34,271.54c1.3-.42,3.11-.45,4.66,.01,1.64,.49,2.51,1.37,2.34,2.21-1.3,.42-3.11,.45-4.66-.01-1.64-.49-2.51-1.37-2.34-2.21Z"/>
    <path class="cls-1" d="M51.89,271.48c-.17-.76,.57-1.8,2.03-2.68,1.54-.93,3.44-1.41,4.79-1.28,.17,.76-.57,1.8-2.03,2.68-1.54,.93-3.44,1.41-4.79,1.28Z"/>
  </g>
  <g>
    <path class="cls-1" d="M0,264.63c1.28,1.51,4.03,2.56,7.23,2.56,3.38,0,6.26-1.17,7.44-2.82-1.28-1.51-4.03-2.56-7.23-2.56-3.38,0-6.26,1.17-7.44,2.82Z"/>
    <path class="cls-1" d="M13.63,264.5c1.35,.2,3.14-.08,4.59-.8,1.53-.76,2.25-1.78,1.93-2.57-1.35-.2-3.14,.08-4.59,.8-1.53,.76-2.25,1.78-1.93,2.57Z"/>
    <path class="cls-1" d="M13.2,264.64c-.03,.78,.86,1.68,2.45,2.3,1.68,.66,3.62,.81,4.94,.46,.03-.78-.86-1.68-2.45-2.3-1.68-.66-3.62-.81-4.94-.46Z"/>
  </g>
  <g>
    <path class="cls-1" d="M1035.65,541.9c1.3,3.45,5.07,6.49,10.01,7.62,5.22,1.19,10.2-.1,12.76-2.96-1.3-3.45-5.07-6.49-10.01-7.62-5.22-1.19-10.2,.1-12.76,2.96Z"/>
    <path class="cls-1" d="M1056.76,546.46c2,.87,4.88,.95,7.45,.04,2.71-.96,4.27-2.73,4.15-4.41-2-.87-4.88-.95-7.45-.04-2.71,.96-4.27,2.73-4.15,4.41Z"/>
    <path class="cls-1" d="M1056.03,546.58c-.41,1.53,.57,3.64,2.74,5.43,2.29,1.89,5.23,2.88,7.42,2.64,.41-1.53-.57-3.64-2.74-5.43-2.29-1.89-5.23-2.88-7.42-2.64Z"/>
  </g>
  <g>
    <path class="cls-1" d="M748.56,400.79c2.39-2.8,6.97-4.38,12-3.77,5.31,.65,9.56,3.56,11,7.11-2.39,2.8-6.97,4.38-12,3.77-5.31-.65-9.56-3.56-11-7.11Z"/>
    <path class="cls-1" d="M769.97,403.67c2.18-.14,4.92,.76,7.02,2.49,2.22,1.82,3.09,4.02,2.41,5.56-2.18,.14-4.92-.76-7.02-2.49-2.22-1.82-3.09-4.02-2.41-5.56Z"/>
    <path class="cls-1" d="M769.33,403.31c.14-1.58,1.77-3.23,4.42-4.18,2.8-1,5.9-.93,7.88,.03-.14,1.58-1.77,3.23-4.42,4.18-2.8,1-5.9,.93-7.88-.03Z"/>
  </g>
  <g>
    <path class="cls-1" d="M578.5,667.25c1.3,3.45,5.07,6.49,10.01,7.62,5.22,1.19,10.2-.1,12.76-2.96-1.3-3.45-5.07-6.49-10.01-7.62-5.22-1.19-10.2,.1-12.76,2.96Z"/>
    <path class="cls-1" d="M599.61,671.81c2,.87,4.88,.95,7.45,.04,2.71-.96,4.27-2.73,4.15-4.41-2-.87-4.88-.95-7.45-.04-2.71,.96-4.27,2.73-4.15,4.41Z"/>
    <path class="cls-1" d="M598.88,671.93c-.41,1.53,.57,3.64,2.74,5.43,2.29,1.89,5.23,2.88,7.42,2.64,.41-1.53-.57-3.64-2.74-5.43-2.29-1.89-5.23-2.88-7.42-2.64Z"/>
  </g>
  <g>
    <path class="cls-1" d="M1164.39,618.89c2.05-1.49,5.99-2.33,10.31-2,4.56,.34,8.21,1.89,9.45,3.78-2.05,1.49-5.99,2.33-10.31,2-4.56-.34-8.21-1.89-9.45-3.78Z"/>
    <path class="cls-1" d="M1182.77,620.42c1.87-.07,4.22,.41,6.03,1.32,1.91,.97,2.66,2.13,2.07,2.95-1.87,.07-4.22-.41-6.03-1.32-1.91-.97-2.66-2.13-2.07-2.95Z"/>
    <path class="cls-1" d="M1182.22,620.23c.12-.84,1.52-1.72,3.8-2.22,2.4-.53,5.07-.49,6.77,.02-.12,.84-1.52,1.72-3.8,2.22-2.4,.53-5.07,.49-6.77-.02Z"/>
  </g>
  <g>
    <path class="cls-1" d="M1238.55,631.7c1.28,1.51,4.03,2.56,7.23,2.56,3.38,0,6.26-1.17,7.44-2.82-1.28-1.51-4.03-2.56-7.23-2.56-3.38,0-6.26,1.17-7.44,2.82Z"/>
    <path class="cls-1" d="M1252.18,631.57c1.35,.2,3.14-.08,4.59-.8,1.53-.76,2.25-1.78,1.93-2.57-1.35-.2-3.14,.08-4.59,.8-1.53,.76-2.25,1.78-1.93,2.57Z"/>
    <path class="cls-1" d="M1251.75,631.71c-.03,.78,.86,1.68,2.45,2.3,1.68,.66,3.62,.81,4.94,.46,.03-.78-.86-1.68-2.45-2.3-1.68-.66-3.62-.81-4.94-.46Z"/>
  </g>
  <g>
    <path class="cls-1" d="M1117.93,669.38c1.01-1.7,3.55-3.2,6.7-3.74,3.33-.57,6.37,.09,7.81,1.52-1.01,1.7-3.55,3.2-6.7,3.74-3.33,.57-6.37-.09-7.81-1.52Z"/>
    <path class="cls-1" d="M1131.39,667.21c1.3-.42,3.11-.45,4.66,.01,1.64,.49,2.51,1.37,2.34,2.21-1.3,.42-3.11,.45-4.66-.01-1.64-.49-2.51-1.37-2.34-2.21Z"/>
    <path class="cls-1" d="M1130.94,667.14c-.17-.76,.57-1.8,2.03-2.68,1.54-.93,3.44-1.41,4.79-1.28,.17,.76-.57,1.8-2.03,2.68-1.54,.93-3.44,1.41-4.79,1.28Z"/>
  </g>
  <g>
    <path class="cls-1" d="M478.94,4.81c1.28,1.51,4.03,2.56,7.23,2.56,3.38,0,6.26-1.17,7.44-2.82-1.28-1.51-4.03-2.56-7.23-2.56-3.38,0-6.26,1.17-7.44,2.82Z"/>
    <path class="cls-1" d="M492.57,4.68c1.35,.2,3.14-.08,4.59-.8,1.53-.76,2.25-1.78,1.93-2.57-1.35-.2-3.14,.08-4.59,.8-1.53,.76-2.25,1.78-1.93,2.57Z"/>
    <path class="cls-1" d="M492.14,4.82c-.03,.78,.86,1.68,2.45,2.3,1.68,.66,3.62,.81,4.94,.46,.03-.78-.86-1.68-2.45-2.3-1.68-.66-3.62-.81-4.94-.46Z"/>
  </g>
  <g>
    <path class="cls-1" d="M499.54,203.8c1.28,1.51,4.03,2.56,7.23,2.56,3.38,0,6.26-1.17,7.44-2.82-1.28-1.51-4.03-2.56-7.23-2.56-3.38,0-6.26,1.17-7.44,2.82Z"/>
    <path class="cls-1" d="M513.17,203.67c1.35,.2,3.14-.08,4.59-.8,1.53-.76,2.25-1.78,1.93-2.57-1.35-.2-3.14,.08-4.59,.8-1.53,.76-2.25,1.78-1.93,2.57Z"/>
    <path class="cls-1" d="M512.74,203.81c-.03,.78,.86,1.68,2.45,2.3,1.68,.66,3.62,.81,4.94,.46,.03-.78-.86-1.68-2.45-2.3-1.68-.66-3.62-.81-4.94-.46Z"/>
  </g>
</svg>