<?xml version="1.0" encoding="UTF-8"?>
<svg xmlns="http://www.w3.org/2000/svg" viewBox="0 0 676.87 611.42">
  <defs>
    <style>
      .cls-1 {
        stroke-width: .57px;
      }

      .cls-1, .cls-2, .cls-3, .cls-4, .cls-5, .cls-6, .cls-7, .cls-8, .cls-9, .cls-10, .cls-11, .cls-12 {
        stroke-miterlimit: 10;
      }

      .cls-1, .cls-5, .cls-11, .cls-12 {
        stroke: #000a09;
      }

      .cls-1, .cls-11 {
        fill: #473400;
      }

      .cls-2 {
        fill: #000b11;
        stroke: #000b11;
      }

      .cls-3 {
        fill: #00327e;
        stroke: #002c6f;
      }

      .cls-4 {
        fill: #006464;
        stroke: #006464;
      }

      .cls-5 {
        fill: #fff;
      }

      .cls-6 {
        fill: #fffaef;
        stroke: #000203;
      }

      .cls-7 {
        fill: #ad2a00;
        stroke: #ad2a00;
      }

      .cls-8 {
        fill: #c1272d;
      }

      .cls-8, .cls-10 {
        stroke: #1a1a1a;
      }

      .cls-9 {
        fill: #9d9d9d;
        stroke: #0c1600;
      }

      .cls-10 {
        fill: #363636;
      }

      .cls-12 {
        fill: none;
      }
    </style>
  </defs>
  <g id="Layer_1" data-name="Layer 1">
    <g>
      <path class="cls-9" d="M516.98,533.05c-4.12-1.33-5.61-4-4.48-8.02,2.95-2.01,5.44-1.52,7.46,1.43l1.52-2.69,4.19,3.78c4.65-2.22,8.41-2.65,10.23,.76-1.61,1.86,2.02,6.59-1.18,6.16-3.19-.43-3.22,2.55-3.22,2.55,1.78,2.92,2.64,6.2,2.77,9.78,1.82,2.01,2.4,4.65,2.37,7.61,1.79,3.6,4.99,8.5,8.34,13.53,1.49,3.85,1.49,7.43,.13,10.76-.89,2.73-.92,5.27-.38,7.69,.9,2.67,.69,6.53,.13,10.76-.67,5.37-1.61,7.74-2.7,8.43-1.03,2.9-3.15,3.98-6.15,3.6-3.04,.02-5.82,.35-7.93,1.47-1.17,.35-2.26,.36-3.27-.03l-20.94-3.93-7.93-2.18c-5.11-2.37-9.78-4.99-13.76-8-1.99-.07-3.75-.54-5.16-1.58-2.4-2.94-3.3-6.43-2.35-10.59,1.16-3.68,2.54-6.98,4.5-9.28,1.89-3,2.86-6.87,3.25-11.31,1.11-2.15,2.73-3.56,4.68-4.48,1.09-5.14,3.11-7.55,5.86-7.83,3.84-2.83,7.35-4.85,10.39-5.77l9.11-4.82,3.93-3.43c.95-1.61,1.09-3.06,.56-4.37Z"/>
      <path class="cls-9" d="M517.2,535.42c1.09-.1,2.11,.09,3.08,.59"/>
      <path class="cls-9" d="M523.07,536.9c1.47,.47,2.81,.66,3.8,.13"/>
      <path class="cls-9" d="M531.51,537.02c-.41,.97-1.14,.97-2.01,.51"/>
      <path class="cls-9" d="M487.12,559.27c-.39,3.41,.27,5.73,1.95,6.94"/>
      <path class="cls-9" d="M492.89,567.92c2.94,.35,5.36,.03,7.27-.97"/>
      <path class="cls-9" d="M495.81,582.41c-.23,8.58,4.54,12.85,12.55,14.33"/>
      <path class="cls-9" d="M499.74,578.99c6.28-1.65,12.12-2.1,17.39-1.01"/>
      <line class="cls-9" x1="514.6" y1="526.93" x2="517.11" y2="529.5"/>
      <line class="cls-9" x1="525.67" y1="527.55" x2="525.17" y2="530.16"/>
      <path class="cls-9" d="M530.38,601.55c4.11-.66,7.22-1.83,7.42-4.55"/>
      <path class="cls-9" d="M500.89,552.95c.47,1.74,1.67,2.23,3.47,1.69,.82-.25,1.21-1.28,.81-2.07-.47-.94,.6-2.27,.58-2.19,2.41-1.06,4.69-.44,6.88,1.31"/>
      <path class="cls-9" d="M528.27,543.97c2.26,4.9,2.95,8.92,2.56,12.31"/>
      <path class="cls-9" d="M537.7,572.22c1.15,2.22,1.28,4.25,.41,6.09"/>
      <path class="cls-9" d="M485.97,562.74c-.87-.19-1.62,.04-2.2,.86"/>
      <path class="cls-9" d="M483.72,565.66c.45-1.08,1.32-1.46,2.45-1.39"/>
      <path class="cls-9" d="M483.57,568.14c.66-1.56,1.93-2.11,3.6-2"/>
      <line class="cls-9" x1="535.52" y1="606.11" x2="534.24" y2="609.24"/>
      <line class="cls-9" x1="532.58" y1="607.24" x2="531.59" y2="609.53"/>
      <line class="cls-9" x1="529.99" y1="608.43" x2="529.19" y2="610.17"/>
      <line class="cls-9" x1="539.43" y1="605.66" x2="536.82" y2="609.25"/>
    </g>
    <g>
      <path class="cls-6" d="M658.93,381.51l16.78-7.79c1.36-1.76,.58-2.49-2.17-2.29l-15.16,6.87c-6.7-.99-10.37,1.28-11.37,6.41,.87,1.58,2.86,1.82,5.41,1.37,3.67-.43,6.15-1.73,6.5-4.58Z"/>
      <path class="cls-6" d="M649.99,382.47c.94-1.81,2.72-2.72,5.35-2.72"/>
      <path class="cls-6" d="M652.04,382.47c.44-.52,1.14-.83,2.12-.91"/>
    </g>
  </g>
  <g id="Layer_5" data-name="Layer 5">
    <g>
      <polyline class="cls-8" points="198.3 192.93 235.37 183.79 225.26 164.51 196.52 173.35"/>
      <path class="cls-10" d="M200.48,192.93c-17.44-.38-15.86-20.28,0-20.28,10.97-1.56,14.17,18,0,20.28Z"/>
      <path class="cls-4" d="M211.5,189.83c.07-4.04,1.75-7.59,5.69-10.41,1.46-2.69,1.32-5.98-1.2-10.18l3.47-1.12c2.4,3.53,3.15,7.14,1.67,10.85-4.74,3.64-6.64,7.46-4.82,9.95"/>
      <path class="cls-10" d="M204.89,182.79c.35-8.33-12.33-6.52-12.16,0,1.41,6.14,10.93,4.33,12.16,0Z"/>
      <line class="cls-10" x1="209.2" y1="190.24" x2="220.45" y2="187.47"/>
    </g>
  </g>
  <g id="Layer_3" data-name="Layer 3">
    <path class="cls-5" d="M515.87,.72l10,7c-.22,1.7-1.02,2.92-2,4-4.34,1.26-7.8,3.46-10,7-1.65,1.12-3.31,1.9-5,2-1.61-.19-3.11-.27-4.28,0l-4.72-4c-.46-2.98-.22-4.06,6-8,.13-.03,2.01-.79,5-2,2.02-1.86,3.73-3.85,5-6Z"/>
    <line class="cls-5" x1="515.87" y1="5.72" x2="520.87" y2="8.72"/>
    <line class="cls-5" x1="511.87" y1="7.72" x2="516.87" y2="10.72"/>
    <line class="cls-5" x1="507.87" y1="10.72" x2="512.8" y2="15.04"/>
    <line class="cls-5" x1="503.87" y1="13.72" x2="505.34" y2="15.04"/>
    <g>
      <line class="cls-2" x1="13.82" y1="558.12" x2="21.23" y2="551.34"/>
      <path class="cls-11" d="M9.18,565.74l-3.71-3.39,16.69-15.25c.21-3.05,1.61-5.84,3.71-8.47v6.78l22.25-10.16,1.85,1.69-12.98,6.78h7.42l-1.85,1.69-9.27,1.69c-8.25,4.78-16.25,11.24-24.1,18.63Z"/>
      <line class="cls-1" x1="21.23" y1="551.34" x2="14.74" y2="557.27"/>
    </g>
  </g>
  <g id="Layer_4" data-name="Layer 4">
    <g>
      <polyline class="cls-7" points="10.5 274.5 5.89 281.25 4.89 279.94 9.22 273.63 10.26 274.34"/>
      <polygon class="cls-3" points="8.6 283.75 11.11 286.06 15.82 279.13 12.93 277.43 8.6 283.75"/>
      <path class="cls-12" d="M18.03,295.19l-3.73,19.23c.86,9.1,3.58,9.81,8.27,1.7l5.87-22.25c.81-3.12,1.36-6.02-1.38-6.36l-22.19-17.17-4.23,6.18,17.39,18.67Z"/>
    </g>
  </g>
</svg>