<svg xmlns="http://www.w3.org/2000/svg" viewBox="0 0 34.66 18.2"><defs><style>.cls-1{stroke:#000;}.cls-1,.cls-2{stroke-miterlimit:10;stroke-width:0.25px;}.cls-2,.cls-3{fill:#fff;}.cls-2{stroke:#fff;}</style></defs><g id="Layer_2" data-name="Layer 2"><g id="Layer_1-2" data-name="Layer 1"><path class="cls-1" d="M.36,10s5-2,9,0-3,2-3,2Z"/><path class="cls-1" d="M6.36,12l-3,6s4-1,6-3A5.63,5.63,0,0,0,10.6,11.1"/><path class="cls-1" d="M10,10.35S15.36,3,23.36,1s10,0,10,0l-4,3,5-1s-3,4-7,5-11.93.18-17,3.59"/><rect class="cls-2" x="28.72" y="0.85" width="0.02" height="2.28" transform="translate(10.69 24.44) rotate(-55.18)"/><polyline class="cls-3" points="27.78 2.88 29.11 0.96 29.23 1.04 27.89 2.96"/></g></g></svg>