<svg xmlns="http://www.w3.org/2000/svg" viewBox="0 0 327 397.44"><defs><style>.cls-1{fill:lime;}.cls-1,.cls-11,.cls-12,.cls-2,.cls-3,.cls-4,.cls-5,.cls-6,.cls-8,.cls-9{stroke:#000;}.cls-1,.cls-10,.cls-11,.cls-12,.cls-2,.cls-3,.cls-4,.cls-5,.cls-6,.cls-7,.cls-8,.cls-9{stroke-miterlimit:10;}.cls-1,.cls-11,.cls-12,.cls-2,.cls-4,.cls-5,.cls-6{stroke-width:2px;}.cls-2{fill:#d9ea00;}.cls-3{fill:#fff;}.cls-4{fill:#754c24;}.cls-5{fill:#878933;}.cls-6,.cls-7{fill:#92935d;}.cls-7{stroke:#42210b;stroke-width:3px;}.cls-9{fill:#535906;}.cls-10{stroke:#998675;stroke-width:4px;}.cls-11{fill:#998675;}.cls-12{fill:#39b54a;}</style></defs><g id="Layer_2" data-name="Layer 2"><g id="Layer_1-2" data-name="Layer 1"><path class="cls-1" d="M309.67,376.44c-2-29.16,44,2-10.15-30.78-8.93-5.41-6.88,29.28-46.58,11.79s-29-24.9-33.59-40.74-.88-23-25.9-23-222.26-28.5-188.6,14.24,30.71,43.86,71,50.32,25.21,5,25.21,5L290.94,383Z"/><path class="cls-2" d="M196,11.94c0,5.16-25.39,9.52-60.36,11-1.89.09-3.8.16-5.75.23-6.38.19-13,.3-19.89.3-47.5,0-86-5.15-86-11.5Q24,13,23.91,14.13h0c-.79,14.76-1,31.73-1,50.27v0q0,9,.13,18.41c0-18.26.27-34.94,1.11-49.41,0,6.35,38.5,11.5,86,11.5s86-5.15,86-11.5c.72,13.67,1.16,27.68,1.4,41.92,0,.12,0,.25,0,.38q.06,6,.07,12.14,0-3.63,0-7.23C197.62,57.17,197.2,34.11,196,11.94Zm-.3,256q-.1-8.61-.13-17.38c0,11.35,0,22.55.21,33.53,0,.23,0,.45,0,.67a1.67,1.67,0,0,0,.21-.79,1.47,1.47,0,0,0-.09-.5H196C195.9,278.31,195.81,273.14,195.73,267.91ZM144.62,135l-43.38,14.58,24.54-41.34.8-1.35a57.17,57.17,0,0,0-77.11,2l1,1.45,25.91,39.24L32.59,138.45l-.81-.21a67.64,67.64,0,0,0-2.61,18.7c0,28.93,18,53.37,42.69,61.29l.24-.6,16.57-41.75L105.39,218l.21.54c25.15-7.62,43.57-32.3,43.57-61.57a67.69,67.69,0,0,0-3.71-22.21ZM25,228.23c0,.69,0,1.39,0,2.08-.06,17.9-.34,35.73-1,53.13h.09a1.47,1.47,0,0,0-.09.5,1.79,1.79,0,0,0,.31,1,3.26,3.26,0,0,0,.39.5c.5-22.89.5-46.28.27-69.44Q25,222.1,25,228.23Z"/><path class="cls-3" d="M196.17,32.94v.5c0,6.35-38.5,11.5-86,11.5s-86-5.15-86-11.5v-.5Z"/><path class="cls-4" d="M23.06,83.19q0,10.32.14,21.27c0,.36,0,.72,0,1.08.32,27.89,1.06,58.51,1.53,90,0,1.92.06,3.84.08,5.76q.11,7.32.18,14.69C24.88,169.75,23.51,123.58,23.06,83.19Zm122.4,51.54-.84.28-43.38,14.58,24.54-41.34.8-1.35a57.17,57.17,0,0,0-77.11,2l1,1.45,25.91,39.24L32.59,138.45l-.81-.21a67.64,67.64,0,0,0-2.61,18.7c0,28.93,18,53.37,42.69,61.29l.24-.6,16.57-41.75L105.39,218l.21.54c25.15-7.62,43.57-32.3,43.57-61.57A67.69,67.69,0,0,0,145.46,134.73Zm52.19-54.08c0-1.64-.05-3.28-.08-4.91q.06,6,.07,12.14c0,.47,0,.93,0,1.4-.15,53.58-2.17,109-2,160.85v.4c0,11.35,0,22.55.21,33.53q-.08-8-.08-16.15C195.7,207.35,198.45,142,197.65,80.65Zm-1.48,224.29c-.08-3.17-.15-6.37-.2-9.58-1.65,6.16-39.49,11.08-85.94,11.08-44.58,0-81.24-4.54-85.57-10.34-.09,3-.18,5.91-.29,8.84h.09c-.06.17,38.41,12,85.91,12s86-5.15,86-11.5a1.47,1.47,0,0,0-.09-.5Zm-.22-10.5h0v0Z"/><path class="cls-5" d="M145.46,134.73l-.84.28-43.38,14.58,24.54-41.34.8-1.35a57.17,57.17,0,0,0-77.11,2l1,1.45,25.91,39.24L32.59,138.45l-.81-.21a67.64,67.64,0,0,0-2.61,18.7c0,28.93,18,53.37,42.69,61.29l.24-.6,16.57-41.75L105.39,218l.21.54c25.15-7.62,43.57-32.3,43.57-61.57A67.69,67.69,0,0,0,145.46,134.73ZM196,22.94c0,4.29-17.55,8-43.58,10-12.52,1-27,1.5-42.42,1.5s-29.9-.54-42.42-1.5c-26-2-43.58-5.71-43.58-10-.71,12.35-1,26.3-1.1,41.47v0c-.05,12.58.06,26,.27,40,0,.36,0,.72,0,1.08.4,28.17,1.15,58.77,1.53,90,0,1.92.06,3.84.08,5.76.1,9,.16,18,.18,26.94,0,.69,0,1.39,0,2.08,0,18.34-.14,36.66-.66,54.61-.09,3.19-.2,6.36-.31,9.52h.09a1.47,1.47,0,0,0-.09.5,2,2,0,0,0,.43,1.16q.15-5.31.27-10.68c.5-22.89.5-46.28.27-69.44-.12-46.23-1.49-92.4-1.94-132.79v-.34c0-18.26.27-34.94,1.11-49.41,0,6.35,38.5,11.5,86,11.5s86-5.15,86-11.5c.72,13.67,1.16,27.68,1.4,41.92C197.39,57.5,196.93,40,196,22.94ZM196,294.44H196q-.12-4.81-.21-9.69C195.85,288,195.9,291.23,196,294.44Zm0,.92a1.52,1.52,0,0,0,.06-.42,1.48,1.48,0,0,0-.08-.46C196,294.78,196,295.07,196,295.36Zm-.37-45.23c.15-52.2,2.16-107.65,2-160.85C197.49,142.86,195.47,198.31,195.6,250.13Z"/><path class="cls-6" d="M196,295.36c-1.65,6.16-39.49,11.08-85.94,11.08-44.58,0-81.24-4.54-85.57-10.34q.15-5.31.27-10.68c5.41,5.65,41.54,10,85.3,10,45.47,0,82.7-4.72,85.79-10.69,0,3.25.08,6.48.13,9.69h0v0C196,294.78,196,295.07,196,295.36Z"/><path class="cls-6" d="M197.64,87.88q0-6.09-.07-12.14c0-.13,0-.26,0-.38-.24-14.24-.68-28.25-1.4-41.92,0,6.35-38.5,11.5-86,11.5s-86-5.15-86-11.5C23.33,47.91,23,64.59,23.06,82.85v.34C23.51,123.58,24.88,169.75,25,216c.23,23.16.23,46.55-.27,69.44,5.41,5.65,41.54,10,85.3,10,45.47,0,82.7-4.72,85.79-10.69,0,0,0,0,0,0,0-.22,0-.44,0-.67-.18-11-.24-22.18-.21-33.53v-.4c-.13-51.82,1.89-107.27,2-160.85C197.65,88.81,197.64,88.35,197.64,87.88Zm-92,130.63a56.5,56.5,0,0,1-14.83,2.4c-.53,0-1.06,0-1.6,0H88l-1,0a55.65,55.65,0,0,1-15.14-2.66c-24.7-7.92-42.69-32.36-42.69-61.29a67.64,67.64,0,0,1,2.61-18.7A64.53,64.53,0,0,1,49.47,109a57.17,57.17,0,0,1,77.11-2,64.14,64.14,0,0,1,18.88,27.83,67.69,67.69,0,0,1,3.71,22.21C149.17,186.21,130.75,210.89,105.6,218.51Z"/><path class="cls-7" d="M149.17,156.94c0,29.27-18.42,53.95-43.57,61.57l-.21-.54L88.67,175.88,72.1,217.63l-.24.6c-24.7-7.92-42.69-32.36-42.69-61.29a67.64,67.64,0,0,1,2.61-18.7l.81.21,43.75,11.19L50.43,110.4l-1-1.45a57.17,57.17,0,0,1,77.11-2l-.8,1.35-24.54,41.34L144.62,135l.84-.28A67.69,67.69,0,0,1,149.17,156.94Z"/><path class="cls-8" d="M105.6,217.89l-.21.08a46.23,46.23,0,0,1-14.62,2.94c-.53,0-1.06,0-1.6,0H88a45.8,45.8,0,0,1-15.94-3.3l-.24-.09L87,169.73l1.67-5.29,1.72,5.43Z"/><path class="cls-8" d="M145.46,137.24l-49.79,16.2L124.2,106.9A70,70,0,0,1,145.46,137.24Z"/><path class="cls-8" d="M82.67,153.44,31.78,141A70,70,0,0,1,52,109Z"/><path class="cls-9" d="M194.34,11.5c-2-6.12-39.66-11-85.91-11s-84,4.88-85.91,11a1.47,1.47,0,0,0-.09.5,2.82,2.82,0,0,0,1.48,2.13h0c2.32,1.65,7.3,3.18,14.31,4.51,3.88.72,8.38,1.39,13.4,2a504.84,504.84,0,0,0,56.81,2.87c7.42,0,14.62-.13,21.49-.36,2-.07,3.86-.14,5.75-.23,12-.54,22.83-1.42,31.82-2.56s16.13-2.52,20.8-4.07c4-1.32,6.14-2.77,6.14-4.28A1.47,1.47,0,0,0,194.34,11.5Zm-22.67.94L155,18c-12.68.89-28.8,1.43-46.34,1.43-20.22,0-38.55-.71-51.9-1.86a136.59,136.59,0,0,1-17.41-2.35c-3-.72-4.69-1.48-4.69-2.29,0-3.59,33.13-6.5,74-6.5,33.6,0,62,2,71,4.66A16.86,16.86,0,0,0,171.67,12.44Z"/><path class="cls-8" d="M186.59,11.55c-1.78-5.57-36.08-10-78.16-10S32,6,30.27,11.55a1.19,1.19,0,0,0-.08.45c0,1.71,3.07,3.32,8.5,4.74a123.11,123.11,0,0,0,14.62,2.69c14.14,1.87,33.62,3,55.12,3s41.22-1.17,55.38-3.07c11.43-1.54,19.33-3.54,21.93-5.78a2.2,2.2,0,0,0,.93-1.61A1.42,1.42,0,0,0,186.59,11.55Zm-14.92.89L155,18c-12.68.89-28.8,1.43-46.34,1.43-20.22,0-38.55-.71-51.9-1.86a136.59,136.59,0,0,1-17.41-2.35c-3-.72-4.69-1.48-4.69-2.29,0-3.59,33.13-6.5,74-6.5,33.6,0,62,2,71,4.66A16.86,16.86,0,0,0,171.67,12.44Z"/><circle class="cls-10" cx="89.17" cy="158.94" r="11"/><path class="cls-6" d="M196.18,289.36c-1.65,6.16-39.49,11.08-85.94,11.08-44.58,0-81.24-4.54-85.57-10.34q.15-5.31.27-10.68c5.41,5.65,41.54,10,85.3,10,45.47,0,82.7-4.72,85.79-10.69,0,3.25.08,6.48.13,9.69h0v0C196.17,288.78,196.17,289.07,196.18,289.36Z"/><path class="cls-6" d="M196.18,60.36c-1.65,6.16-39.49,11.08-85.94,11.08C65.66,71.44,29,66.9,24.67,61.1q.15-5.31.27-10.68c5.41,5.65,41.54,10,85.3,10,45.47,0,82.7-4.72,85.79-10.69,0,3.25.08,6.48.13,9.69h0s0,0,0,0C196.17,59.78,196.17,60.07,196.18,60.36Z"/><path class="cls-11" d="M196.18,278.36c-1.65,6.16-39.49,11.08-85.94,11.08-44.58,0-81.24-4.54-85.57-10.34q.15-5.31.27-10.68c5.41,5.65,41.54,10,85.3,10,45.47,0,82.7-4.72,85.79-10.69,0,3.25.08,6.48.13,9.69h0v0C196.17,277.78,196.17,278.07,196.18,278.36Z"/><circle class="cls-1" cx="130.17" cy="385.94" r="5.5"/><circle class="cls-1" cx="293.67" cy="392.44" r="4"/><path class="cls-1" d="M182.67,12.94c0,2.05-10.79,3.88-27.64,5.07h0l16.66-5.57a16.86,16.86,0,0,1,8-1.34C181.62,11.68,182.67,12.3,182.67,12.94Z"/><path class="cls-1" d="M197.43,148.2a2.69,2.69,0,0,1-.32.27l-.19.14a10.84,10.84,0,0,1-1.25.83c-14,8-14-7-13-13s-2-21-10-21-24-22-21-32c.89-3,4-8.1,7.88-14.07,2.4-3.71,5.1-7.76,7.73-11.83a176.39,176.39,0,0,0,10-16.91,32.89,32.89,0,0,0,2.86-7.69,7.78,7.78,0,0,0,.06-3.35c-1.17-4.61-6.74-7.43-12.35-9.14l-.34-.1c-1.24-.37-2.49-.69-3.68-1A69.81,69.81,0,0,0,155,18h0l16.66-5.57a16.86,16.86,0,0,1,8-1.34,11.37,11.37,0,0,1,6.07,2.51,14.41,14.41,0,0,1,2.55,2.67,4.22,4.22,0,0,1,.27.36,28.34,28.34,0,0,1,4.13,9.48A51.91,51.91,0,0,1,194,32.94c.12,1,.22,1.94.29,2.93a83.86,83.86,0,0,1-.32,15.74,80,80,0,0,1-2.23,12c-2.08,7.73-5.23,13.78-9,15.8-15,8-5,20,4,27,3.45,2.68,7.63,8.45,10.69,15,0,.09.08.18.13.27l.24.54C202,131.8,203.81,142.8,197.43,148.2Z"/><circle class="cls-1" cx="183.67" cy="197.44" r="7"/><path class="cls-12" d="M179.67,11.1a16.86,16.86,0,0,0-8,1.34L155,18c-12.68.89-28.8,1.43-46.34,1.43-20.22,0-38.55-.71-51.9-1.86a136.59,136.59,0,0,1-17.41-2.35c-3-.72-4.69-1.48-4.69-2.29,0-3.59,33.13-6.5,74-6.5C142.27,6.44,170.64,8.41,179.67,11.1Z"/><path class="cls-1" d="M56.77,17.58a24.69,24.69,0,0,0-3.46,1.85c-.47.31-.94.63-1.4,1l-.29.22a21.55,21.55,0,0,0-2.95,2.81,20.2,20.2,0,0,0-3.93,7c-.27.81-.51,1.65-.71,2.52-.56,2.27-1,4.75-1.36,7.5,0,0,0,.08,0,.12A57,57,0,0,0,42.32,56c.44,3.94,1.16,7.38,1.53,11.25a49,49,0,0,1-.18,11.2c-1.54,12.11-7.06,24.4-10,24-3.42-.46-5.3-18.33-2-35,.2-1,.39-1.87.58-2.65,1.13-4.68,2.15-6,3.35-10.14.34-1.15.7-2.51,1.07-4.21a77.2,77.2,0,0,0,1.6-10.69c.19-2.48.24-4.74.21-6.81,0-1.29-.06-2.5-.12-3.64-.22-4.41-.6-7.81-.14-10.65,0-.13,0-.25.06-.37a10,10,0,0,1,.41-1.54,9.65,9.65,0,0,1,.67-1.51A136.59,136.59,0,0,0,56.77,17.58Z"/></g></g></svg>