<?xml version="1.0" encoding="UTF-8"?>
<svg id="Layer_5" data-name="Layer 5" xmlns="http://www.w3.org/2000/svg" viewBox="0 0 1259.14 700.65">
  <defs>
    <style>
      .cls-1 {
        stroke: #000;
      }

      .cls-1, .cls-2, .cls-3 {
        stroke-miterlimit: 10;
      }

      .cls-4, .cls-2 {
        fill: #6b7a98;
      }

      .cls-5 {
        fill: #7c8493;
      }

      .cls-6 {
        fill: #91a6b9;
      }

      .cls-7 {
        fill: #b6cfe1;
      }

      .cls-8 {
        fill: #15253f;
      }

      .cls-9, .cls-3 {
        fill: #2b3e5b;
      }

      .cls-10, .cls-11 {
        fill: #485366;
      }

      .cls-2 {
        stroke: #6b7a98;
      }

      .cls-3 {
        stroke: #2b3e5b;
      }

      .cls-12, .cls-11 {
        opacity: .5;
      }
    </style>
  </defs>
  <g>
    <path class="cls-7" d="M715.71,562.07c-5.07,1.81-9.77,2.17-13.92,.43-.06,3.8-1.43,6.76-3.28,9.43-2.18-3.21-8.76-8.54-7.16-11.68,.18-.27,.38-.51,.59-.72,1.48-1.5,3.68-1.72,6.24-1.31l22.35-4.8"/>
    <g>
      <path class="cls-7" d="M747.58,530.46c-.08,12.4-6.61,20.46-16.53,26.25-1.56,8.34-5.77,14.1-11.68,18.22-.31-4.75-1.46-9.07-3.66-12.86-.4-.68-.83-1.35-1.3-2,1.91-2.7,3.84-4.59,5.8-5.36l1.97-.38c-.66-.01-1.32,.12-1.97,.38l-28.86,5.53c-2.82-1.5-5.04-3.84-6.67-7,3.39,20.52-4.72,29.12-22.52,27.66,5.76-2.52,7.9-5.21,6.45-8.08,0-3.34,.54-6.24,2.04-8.38-5.1-5.08-5.79-10.02-1.72-14.83-10.71-.47-19.96-2.5-19.48-14.82-8.79-2.05-15.84-5.29-14.29-14.54,23.57-2.54,43.18,.04,48.5,21.12,5.49-21.68,17.39-29.34,34.67-25.24,8.49,2.02,18.28,6.88,29.25,14.32Z"/>
      <path class="cls-7" d="M722.19,554.34l-1.97,.38c.65-.25,1.31-.39,1.97-.38Z"/>
    </g>
    <path class="cls-6" d="M685.46,535.42c-.29-.28-.57-.57-.84-.85-5.3-5.59-5.11-10.17-1.19-14.08,.54-4.36-1.22-7.24-6.42-7.93,16.17-5.46,29.94-4.27,41.32,3.57-15.95-.37-27.32,5.49-32.87,19.28Z"/>
    <path class="cls-4" d="M708.56,516.8c-8.88-3.84-17.66-4.58-26.35-1.85"/>
    <path class="cls-4" d="M691.88,525.66c-2.9-2.8-6.47-3.44-10.59-2.27"/>
    <path class="cls-6" d="M649.45,534.8c10.35-6.33,21.72-4.42,34.21,6.57"/>
    <path class="cls-6" d="M669.03,574.21c8.78-.91,14.17-7.81,15.11-22.56"/>
    <path class="cls-6" d="M670.65,564.44c3.74,2.42,7.99-3.1,12.66-15.27"/>
    <path class="cls-6" d="M668.93,549.62c-1.02-9.42,2.21-13.2,13.51-6.29"/>
    <path class="cls-2" d="M734.58,529.36c-1.28-4.15-5.97-2.59-4.54,1.52,1.64,2.48,4.76,1.44,4.54-1.52Z"/>
    <path class="cls-1" d="M733.78,529.27c-.91-2.91-3.81-1.93-2.82,.94,1.09,1.76,3.03,1.11,2.82-.94Z"/>
    <path class="cls-4" d="M714.52,531.44c1.46,.46,1.75,1.32,.86,2.57"/>
    <path class="cls-2" d="M715.2,533.99c2.17,1.21,2.76,2.95,1.74,5.22"/>
    <path class="cls-2" d="M710.55,528.02c1.46,.46,1.75,1.32,.86,2.57"/>
    <path class="cls-2" d="M711.22,530.57c2.17,1.21,2.76,2.95,1.74,5.22"/>
    <path class="cls-2" d="M712.27,542.85c1.46,.46,1.75,1.32,.86,2.57"/>
    <path class="cls-2" d="M712.94,545.4c2.17,1.21,2.76,2.95,1.74,5.22"/>
  </g>
  <path class="cls-11" d="M715.93,561.92c-5.07,1.81-9.77,2.17-13.92,.43-.06,3.8-1.43,6.76-3.28,9.43-2.18-3.21-8.76-8.54-7.16-11.68,.18-.27,.38-.51,.59-.72,1.48-1.5,3.68-1.72,6.24-1.31l22.35-4.8"/>
  <g class="cls-12">
    <g>
      <path class="cls-10" d="M747.8,530.3c-.07,12.4-6.61,20.46-16.53,26.25-1.55,8.34-5.77,14.11-11.68,18.23-.31-4.75-1.46-9.08-3.67-12.86-.39-.68-.83-1.35-1.3-2,1.92-2.72,3.86-4.61,5.83-5.37l1.94-.37c-.65,0-1.3,.12-1.94,.37l-28.89,5.54c-2.81-1.5-5.04-3.84-6.67-7.01,3.39,20.53-4.71,29.12-22.52,27.66,5.77-2.51,7.91-5.21,6.45-8.08,0-3.34,.55-6.23,2.04-8.38-5.1-5.07-5.79-10.02-1.72-14.83-10.71-.47-19.96-2.5-19.48-14.82-8.79-2.04-15.84-5.29-14.29-14.54,23.57-2.54,43.18,.04,48.5,21.12,5.49-21.68,17.39-29.34,34.67-25.24,8.49,2.01,18.28,6.88,29.25,14.31Z"/>
      <path class="cls-10" d="M722.4,554.18l-1.94,.37c.64-.25,1.29-.38,1.94-.37Z"/>
    </g>
  </g>
  <path class="cls-11" d="M685.67,535.27c-.29-.28-.57-.57-.84-.85-5.3-5.59-5.11-10.17-1.19-14.08,.54-4.36-1.22-7.24-6.42-7.93,16.17-5.46,29.94-4.27,41.32,3.57-15.95-.37-27.32,5.49-32.87,19.28Z"/>
  <g>
    <path class="cls-5" d="M238.62,139.05c5.75,2.4,10.42,5.57,12.13,10.82-.43,4.78-3.37,8.49-8.33,11.34-3.2,1.71-6.4,2.77-9.6,3.23-3.64,.51-7.27,.23-10.9-.8s-6.98-2.7-10.47-5.06c-1.4-2.34-1.68-4.61,.71-6.7,1.68-1.01,3.59-2.85,5.63-5.17l3.98-4.22c5.77-3.92,11.4-5.23,16.84-3.43Z"/>
    <path class="cls-9" d="M221.92,163.64c1.46,1.68,1.42,3.76,.76,6.02,3.5,.51,6.86-1.6,10.14-5.21-3.75,.59-7.39,.38-10.9-.8Z"/>
    <path class="cls-9" d="M218.4,146.06c-2.87-.86-4.73-2.77-5.86-5.42,.61,.79,2.73-.02,6.3-2.38,3.22-2.22,6.44-4.48,8.54-4.67,5.05-.8,8.85,.91,11.25,5.46-7.55-.59-14.38,1.45-20.22,7.01Z"/>
    <path class="cls-9" d="M211.81,158.6c-1.21-.49-2.46,.79-3.73,3.42-2.09,2.69-4.51,4.14-7.28,4.2,.41-2.64,1.48-5.36,3.17-8.15,.56-1.66,.18-3.33-.93-4.99-1.69-1.75-2.87-3.88-3.36-6.57,2.81-.99,5.51-.71,8.03,1.58,1.64,2.22,3.44,3.49,5.47,3.44-2.83,1.48-3.29,3.84-1.36,7.07Z"/>
    <path class="cls-9" d="M238.08,153.56c-5.54-1.98-9.74,.03-12.68,5.8,5.3,1.36,9.55-.47,12.68-5.8Z"/>
    <path class="cls-8" d="M237.74,154.12c-3.76,2.87-7.65,4.71-11.67,5.4"/>
    <path class="cls-8" d="M237.26,153.24c-4.02,.75-7.79,2.39-11.23,5.13"/>
    <path class="cls-8" d="M232.83,139.15c-1.03-2.42-2.75-4.34-5.45-5.56"/>
    <path class="cls-8" d="M228.18,140.15c-1.05-2.11-2.4-3.93-4.39-5.14"/>
    <path class="cls-8" d="M218.84,138.26c2.04,.85,3.39,2.32,4.4,4.12"/>
    <path class="cls-9" d="M241.57,140.32c-1.4,6.95-1.13,13.75,1.22,20.37"/>
    <path class="cls-8" d="M237.48,138.99c-1.59,2.49-2.1,5.83-2.11,9.56-.8-3.78-1.49-7.45-.48-9.56h2.6Z"/>
    <path class="cls-8" d="M229.52,139.77c-.82,2.65-.9,5.77-.68,9.09-.94-3.14-1.57-6.06-1.47-8.43"/>
    <path class="cls-8" d="M222.77,142.66c-.48,2.1-.4,4.48,0,7.02-.81-1.69-1.44-3.56-1.51-6.01l1.51-1.01Z"/>
    <path class="cls-8" d="M232.3,152.82c-.5-.97-.52-2.25-.4-3.63-1.25,1.52-1.78,3.05-1.57,4.58l1.97-.95Z"/>
    <path class="cls-8" d="M231.29,159.5c.1,1.96,1.3,3.47,3.08,4.75l2.91-.84c-1.62-1.63-2.75-3.37-3.27-5.23l-2.72,1.32Z"/>
    <path class="cls-8" d="M231.46,165.85c-2.99,1.25-5.79,1.69-8.23,.64"/>
    <path class="cls-8" d="M220.03,163.03c-1.16-2.71-1.44-6.03-1.19-9.72-.94,3.23-1.28,6.28-.61,9.01l1.81,.71Z"/>
    <path class="cls-8" d="M200.77,166.22c3.17-2.42,6.38-5.93,9.61-9.91"/>
    <path class="cls-8" d="M203.85,158.05c2.18-1.8,4.36-2.65,6.54-2.54"/>
    <path class="cls-8" d="M210.39,154.33c-2.82,.39-5.55-.33-8.19-2.16"/>
    <path class="cls-8" d="M211.39,152.48c-3.84-3.06-7.73-5.21-11.71-6.04"/>
    <path class="cls-8" d="M242.91,148.55c-.12-2.11,2.05-2.9,2.32,0-.09,2.11-2.26,2.11-2.32,0Z"/>
    <path class="cls-1" d="M243.71,148.4c-.02-1.43,1.06-1.43,1.05,0-.17,.95-.89,.95-1.05,0Z"/>
    <path class="cls-3" d="M250.51,149.19c-2.15,1.93-2.11,2.55,0,1.91"/>
  </g>
  <g>
    <path class="cls-5" d="M113.36,423.07c9.62,2.95,17.43,6.83,20.3,13.27-.73,5.86-5.64,10.42-13.93,13.92-5.35,2.09-10.7,3.4-16.05,3.96-6.08,.63-12.16,.29-18.24-.99-5.84-1.22-11.67-3.31-17.51-6.21-2.35-2.87-2.82-5.66,1.18-8.22,2.81-1.24,6.01-3.5,9.42-6.34l6.66-5.18c9.66-4.81,19.06-6.42,28.17-4.21Z"/>
    <path class="cls-9" d="M85.44,453.23c2.43,2.06,2.38,4.61,1.27,7.38,5.86,.63,11.48-1.97,16.96-6.4-6.27,.73-12.36,.47-18.24-.99Z"/>
    <path class="cls-9" d="M79.55,431.67c-4.8-1.06-7.91-3.4-9.8-6.65,1.02,.97,4.56-.02,10.53-2.92,5.38-2.73,10.78-5.49,14.28-5.73,8.44-.98,14.8,1.12,18.81,6.7-12.63-.72-24.05,1.78-33.82,8.6Z"/>
    <path class="cls-9" d="M68.53,447.06c-2.03-.6-4.11,.97-6.24,4.19-3.5,3.3-7.54,5.08-12.18,5.16,.68-3.24,2.48-6.57,5.31-10,.94-2.04,.3-4.08-1.56-6.13-2.82-2.14-4.81-4.77-5.62-8.06,4.7-1.21,9.22-.87,13.42,1.93,2.74,2.72,5.75,4.28,9.14,4.22-4.73,1.82-5.51,4.71-2.27,8.68Z"/>
    <path class="cls-9" d="M112.46,440.87c-9.26-2.43-16.29,.04-21.2,7.12,8.87,1.67,15.97-.57,21.2-7.12Z"/>
    <path class="cls-8" d="M111.88,441.56c-6.29,3.52-12.79,5.77-19.52,6.62"/>
    <path class="cls-8" d="M111.09,440.48c-6.73,.92-13.03,2.93-18.78,6.3"/>
    <path class="cls-8" d="M103.67,423.19c-1.73-2.96-4.6-5.32-9.12-6.82"/>
    <path class="cls-8" d="M95.9,424.42c-1.76-2.59-4.01-4.83-7.35-6.31"/>
    <path class="cls-8" d="M80.28,422.09c3.42,1.04,5.67,2.85,7.35,5.05"/>
    <path class="cls-9" d="M118.3,424.62c-2.33,8.52-1.88,16.87,2.03,24.99"/>
    <path class="cls-8" d="M111.45,422.99c-2.66,3.05-3.5,7.16-3.54,11.74-1.34-4.64-2.49-9.14-.81-11.74h4.35Z"/>
    <path class="cls-8" d="M98.14,423.95c-1.37,3.25-1.5,7.08-1.13,11.16-1.57-3.85-2.63-7.43-2.45-10.35"/>
    <path class="cls-8" d="M86.85,427.5c-.81,2.57-.66,5.5,0,8.62-1.35-2.07-2.4-4.37-2.52-7.38l2.52-1.24Z"/>
    <path class="cls-8" d="M102.79,439.96c-.83-1.19-.87-2.76-.66-4.46-2.1,1.86-2.97,3.74-2.63,5.63l3.29-1.17Z"/>
    <path class="cls-8" d="M101.1,448.16c.16,2.4,2.18,4.26,5.15,5.83l4.87-1.03c-2.71-2-4.6-4.13-5.48-6.42l-4.54,1.62Z"/>
    <path class="cls-8" d="M101.38,455.95c-5,1.53-9.69,2.07-13.77,.78"/>
    <path class="cls-8" d="M82.27,452.48c-1.94-3.33-2.41-7.4-1.99-11.93-1.58,3.97-2.15,7.71-1.03,11.06l3.02,.87Z"/>
    <path class="cls-8" d="M50.05,456.41c5.3-2.96,10.67-7.27,16.08-12.17"/>
    <path class="cls-8" d="M55.2,446.37c3.65-2.21,7.29-3.25,10.94-3.12"/>
    <path class="cls-8" d="M66.15,441.81c-4.72,.48-9.28-.4-13.69-2.65"/>
    <path class="cls-8" d="M67.83,439.55c-6.42-3.75-12.93-6.39-19.59-7.41"/>
    <path class="cls-8" d="M120.54,434.72c-.2-2.59,3.43-3.56,3.88,0-.15,2.59-3.79,2.59-3.88,0Z"/>
    <path class="cls-1" d="M121.88,434.53c-.04-1.75,1.78-1.75,1.76,0-.28,1.16-1.49,1.16-1.76,0Z"/>
    <path class="cls-3" d="M133.25,435.51c-3.59,2.37-3.53,3.13,0,2.35"/>
  </g>
</svg>