<?xml version="1.0" encoding="UTF-8"?>
<svg id="Layer_2" data-name="Layer 2" xmlns="http://www.w3.org/2000/svg" viewBox="0 0 1259.14 700.65">
  <defs>
    <style>
      .cls-1 {
        stroke: #000;
      }

      .cls-1, .cls-2, .cls-3, .cls-4, .cls-5, .cls-6 {
        stroke-miterlimit: 10;
      }

      .cls-7, .cls-2 {
        fill: #6b7a98;
      }

      .cls-8 {
        fill: #663a81;
      }

      .cls-9 {
        fill: #7c8493;
      }

      .cls-10 {
        fill: #91a6b9;
      }

      .cls-11 {
        fill: #b6cfe1;
      }

      .cls-12 {
        fill: #b390c7;
      }

      .cls-13 {
        fill: #1e453e;
      }

      .cls-14 {
        fill: #15253f;
      }

      .cls-15 {
        fill: #445b55;
      }

      .cls-16, .cls-5 {
        fill: #192b25;
      }

      .cls-17, .cls-4 {
        fill: #2b3e5b;
      }

      .cls-18 {
        fill: #7c5294;
      }

      .cls-2 {
        stroke: #6b7a98;
      }

      .cls-3 {
        fill: #b18400;
        stroke: #b18400;
      }

      .cls-4 {
        stroke: #2b3e5b;
      }

      .cls-5 {
        stroke: #192b25;
      }

      .cls-6 {
        fill: #0e0300;
        stroke: #0e0300;
      }
    </style>
  </defs>
  <g>
    <path class="cls-9" d="M1159.87,125.14c15.29,5.26,27.72,12.19,32.28,23.68-1.15,10.46-8.98,18.59-22.16,24.84-8.51,3.74-17.02,6.08-25.53,7.07-9.67,1.13-19.34,.51-29-1.76-9.28-2.18-18.57-5.9-27.84-11.08-3.73-5.13-4.48-10.09,1.88-14.68,4.47-2.21,9.56-6.25,14.98-11.32l10.6-9.24c15.36-8.59,30.31-11.46,44.8-7.51Z"/>
    <path class="cls-17" d="M1115.45,178.97c3.87,3.67,3.78,8.24,2.02,13.18,9.32,1.12,18.26-3.51,26.98-11.42-9.97,1.3-19.66,.83-29-1.76Z"/>
    <path class="cls-17" d="M1106.08,140.48c-7.63-1.89-12.58-6.06-15.59-11.87,1.63,1.74,7.25-.04,16.75-5.21,8.55-4.87,17.14-9.8,22.71-10.22,13.42-1.74,23.54,2,29.92,11.96-20.09-1.28-38.24,3.17-53.78,15.34Z"/>
    <path class="cls-17" d="M1088.56,167.95c-3.23-1.08-6.54,1.74-9.93,7.48-5.57,5.88-11.99,9.06-19.36,9.21,1.09-5.78,3.94-11.73,8.44-17.84,1.49-3.64,.47-7.29-2.48-10.93-4.49-3.82-7.64-8.51-8.94-14.39,7.48-2.16,14.66-1.56,21.35,3.45,4.35,4.86,9.14,7.64,14.54,7.53-7.53,3.24-8.76,8.4-3.62,15.49Z"/>
    <path class="cls-17" d="M1158.42,156.91c-14.73-4.34-25.9,.06-33.72,12.71,14.1,2.98,25.4-1.03,33.72-12.71Z"/>
    <path class="cls-14" d="M1157.51,158.14c-10,6.28-20.33,10.3-31.04,11.82"/>
    <path class="cls-14" d="M1156.26,156.2c-10.7,1.65-20.72,5.24-29.87,11.24"/>
    <path class="cls-14" d="M1144.45,125.35c-2.74-5.29-7.32-9.5-14.5-12.17"/>
    <path class="cls-14" d="M1132.1,127.54c-2.8-4.62-6.38-8.61-11.69-11.26"/>
    <path class="cls-14" d="M1107.25,123.39c5.43,1.85,9.02,5.09,11.69,9.02"/>
    <path class="cls-17" d="M1167.71,127.9c-3.71,15.21-3,30.11,3.23,44.6"/>
    <path class="cls-14" d="M1156.82,124.99c-4.23,5.44-5.57,12.77-5.62,20.95-2.13-8.27-3.95-16.31-1.29-20.95h6.91Z"/>
    <path class="cls-14" d="M1135.66,126.7c-2.17,5.79-2.38,12.64-1.8,19.91-2.5-6.88-4.18-13.27-3.9-18.47"/>
    <path class="cls-14" d="M1117.7,133.03c-1.28,4.59-1.06,9.81,0,15.38-2.14-3.7-3.82-7.8-4-13.16l4-2.22Z"/>
    <path class="cls-14" d="M1143.05,155.28c-1.32-2.13-1.39-4.93-1.06-7.95-3.34,3.33-4.73,6.67-4.18,10.04l5.24-2.09Z"/>
    <path class="cls-14" d="M1140.36,169.9c.26,4.29,3.46,7.59,8.19,10.4l7.74-1.83c-4.32-3.57-7.31-7.38-8.71-11.46l-7.23,2.89Z"/>
    <path class="cls-14" d="M1140.81,183.82c-7.96,2.73-15.4,3.7-21.89,1.39"/>
    <path class="cls-14" d="M1110.41,177.63c-3.09-5.94-3.84-13.21-3.17-21.29-2.51,7.08-3.41,13.76-1.63,19.74l4.8,1.55Z"/>
    <path class="cls-14" d="M1059.18,184.64c8.42-5.29,16.97-12.98,25.57-21.71"/>
    <path class="cls-14" d="M1067.37,166.73c5.8-3.94,11.6-5.8,17.4-5.57"/>
    <path class="cls-14" d="M1084.77,158.58c-7.5,.85-14.76-.72-21.78-4.72"/>
    <path class="cls-14" d="M1087.45,154.54c-10.2-6.69-20.56-11.41-31.15-13.23"/>
    <path class="cls-14" d="M1171.27,145.93c-.33-4.62,5.46-6.35,6.18,0-.24,4.62-6.02,4.62-6.18,0Z"/>
    <path class="cls-1" d="M1173.41,145.59c-.06-3.13,2.83-3.13,2.8,0-.45,2.07-2.38,2.07-2.8,0Z"/>
    <path class="cls-4" d="M1191.5,147.33c-5.71,4.23-5.62,5.58,0,4.19"/>
  </g>
  <g>
    <path class="cls-12" d="M609.45,147.95c-4.82,.1-8.91-.97-11.94-3.75-1.13,3.36-3.13,5.58-5.45,7.4-.94-3.5-5.01-10.18-2.77-12.5,.23-.19,.46-.34,.7-.47,1.68-.89,3.61-.43,5.67,.69l20.34,2.37"/>
    <g>
      <path class="cls-12" d="M645.48,129.32c-3.58,10.99-11.42,16.21-21.48,18.41-3.68,6.94-8.9,10.82-15.08,12.72,1.08-4.31,1.33-8.49,.53-12.5-.14-.73-.32-1.45-.53-2.16,2.4-1.85,4.59-2.95,6.48-3.04l1.75,.25c-.55-.2-1.13-.28-1.75-.25l-26.11-3.66c-1.96-2.17-3.19-4.9-3.68-8.2-2.94,19.23-12.26,24.46-26.97,17.89,5.61-.53,8.19-2.28,7.77-5.26,.94-2.97,2.23-5.37,4.11-6.84-2.89-6.02-2.08-10.62,2.74-13.68-8.96-3.6-16.24-8.14-12.34-18.94-6.88-4.42-11.95-9.4-8.01-17.15,20.73,4.73,36.65,12.85,35.19,33.14,10.81-17.62,23.09-20.89,36.59-12.13,6.64,4.31,13.57,11.54,20.78,21.39Z"/>
      <path class="cls-12" d="M617.14,143l-1.75-.25c.62-.03,1.2,.05,1.75,.25Z"/>
    </g>
    <path class="cls-18" d="M591.32,115.3c-.17-.34-.32-.67-.47-1-2.91-6.53-1.46-10.55,2.98-12.86,1.7-3.71,1.01-6.79-3.2-8.94,15.28-.05,26.63,5.09,34.07,15.43-13.44-5.06-24.75-3.22-33.38,7.37Z"/>
    <path class="cls-8" d="M616.22,105.62c-6.45-6.04-13.7-9.31-21.85-9.46"/>
    <path class="cls-8" d="M599.54,108.54c-1.67-3.35-4.52-4.98-8.35-5.16"/>
    <path class="cls-18" d="M560.92,104.07c10.58-2.55,19.69,2.51,27.18,15.99"/>
    <path class="cls-18" d="M566.37,144.88c7.71,1.8,14.25-2.73,19.23-15.56"/>
    <path class="cls-18" d="M570.52,136.69c2.49,3.26,7.66-.38,15.08-9.8"/>
    <path class="cls-18" d="M573.26,123.01c1.81-8.67,5.62-11.07,13.25-1.58"/>
    <path class="cls-8" d="M634.75,124.49c.09-4.07-4.33-4.07-4.29,0,.69,2.69,3.64,2.69,4.29,0Z"/>
    <path class="cls-6" d="M634.09,124.18c.06-2.85-2.69-2.85-2.66,0,.43,1.89,2.25,1.89,2.66,0Z"/>
    <path class="cls-18" d="M617.13,120.39c1.11,.85,1.11,1.69,0,2.54"/>
    <path class="cls-8" d="M616.98,122.85c1.5,1.72,1.5,3.44,0,5.16"/>
    <path class="cls-8" d="M614.72,116.18c1.11,.85,1.11,1.69,0,2.54"/>
    <path class="cls-18" d="M614.57,118.64c1.5,1.72,1.5,3.44,0,5.16"/>
    <path class="cls-18" d="M611.98,129.86c1.11,.85,1.11,1.69,0,2.54"/>
    <path class="cls-8" d="M611.83,132.32c1.5,1.72,1.5,3.44,0,5.16"/>
  </g>
  <g>
    <path class="cls-12" d="M1126.03,506.99c-4.75,.84-8.96,.41-12.37-1.88-.6,3.49-2.24,6-4.26,8.15-1.46-3.31-6.51-9.3-4.65-11.93,.2-.22,.41-.41,.62-.57,1.52-1.14,3.5-.98,5.71-.19l20.46-.77"/>
    <g>
      <path class="cls-12" d="M1158.79,483.07c-1.85,11.41-8.8,17.77-18.41,21.48-2.58,7.43-7.14,12.05-12.96,14.88,.41-4.43,.02-8.59-1.39-12.44-.25-.7-.54-1.38-.86-2.05,2.09-2.19,4.08-3.62,5.93-4l1.77-.02c-.57-.11-1.16-.1-1.77,.02l-26.36,.38c-2.27-1.84-3.9-4.35-4.89-7.54,.04,19.46-8.37,26.05-23.91,21.8,5.46-1.38,7.74-3.51,6.87-6.39,.48-3.08,1.39-5.65,3.02-7.39-3.78-5.51-3.68-10.18,.62-13.94-9.41-2.18-17.29-5.56-15.09-16.83-7.48-3.32-13.25-7.46-10.54-15.73,21.21,1.51,38.19,7.09,39.85,27.37,7.99-19.07,19.62-24.19,34.3-17.59,7.22,3.25,15.18,9.32,23.81,17.96Z"/>
      <path class="cls-12" d="M1132.88,500.92l-1.77,.02c.6-.13,1.2-.14,1.77-.02Z"/>
    </g>
    <path class="cls-18" d="M1103.12,477.5c-.22-.31-.42-.62-.62-.92-3.88-6.01-3.05-10.21,.98-13.17,1.11-3.93-.04-6.87-4.53-8.35,15.09-2.39,27.1,.96,36.03,10.04-14.05-2.94-24.96,.6-31.86,12.39Z"/>
    <path class="cls-8" d="M1126.24,464.13c-7.3-4.99-14.96-7.1-23.04-6.01"/>
    <path class="cls-8" d="M1110.21,469.56c-2.16-3.05-5.22-4.23-9.04-3.82"/>
    <path class="cls-18" d="M1071.36,471.06c10.07-4.14,19.85-.53,29.31,11.64"/>
    <path class="cls-18" d="M1082.99,510.55c7.9,.59,13.66-4.88,16.62-18.32"/>
    <path class="cls-18" d="M1085.84,501.82c2.96,2.84,7.51-1.55,13.4-12"/>
    <path class="cls-18" d="M1086.46,487.88c.46-8.84,3.86-11.8,12.86-3.59"/>
    <path class="cls-8" d="M1147.45,479.94c-.53-4.03-4.91-3.36-4.23,.66,1.09,2.56,4.01,2.1,4.23-.66Z"/>
    <path class="cls-6" d="M1146.75,479.73c-.38-2.82-3.09-2.4-2.63,.41,.71,1.8,2.52,1.52,2.63-.41Z"/>
    <path class="cls-18" d="M1129.41,478.58c1.23,.67,1.36,1.5,.39,2.51"/>
    <path class="cls-8" d="M1129.63,481.04c1.75,1.47,2.01,3.17,.79,5.1"/>
    <path class="cls-8" d="M1126.38,474.79c1.23,.67,1.36,1.5,.39,2.51"/>
    <path class="cls-18" d="M1126.61,477.24c1.75,1.47,2.01,3.17,.79,5.1"/>
    <path class="cls-18" d="M1125.77,488.72c1.23,.67,1.36,1.5,.39,2.51"/>
    <path class="cls-8" d="M1125.99,491.18c1.75,1.47,2.01,3.17,.79,5.1"/>
  </g>
  <g>
    <path class="cls-9" d="M81.8,18.05c5.75,2.4,10.42,5.57,12.13,10.82-.43,4.78-3.37,8.49-8.33,11.34-3.2,1.71-6.4,2.77-9.6,3.23-3.64,.51-7.27,.23-10.9-.8s-6.98-2.7-10.47-5.06c-1.4-2.34-1.68-4.61,.71-6.7,1.68-1.01,3.59-2.85,5.63-5.17l3.98-4.22c5.77-3.92,11.4-5.23,16.84-3.43Z"/>
    <path class="cls-17" d="M65.1,42.64c1.46,1.68,1.42,3.76,.76,6.02,3.5,.51,6.86-1.6,10.14-5.21-3.75,.59-7.39,.38-10.9-.8Z"/>
    <path class="cls-17" d="M61.58,25.06c-2.87-.86-4.73-2.77-5.86-5.42,.61,.79,2.73-.02,6.3-2.38,3.22-2.22,6.44-4.48,8.54-4.67,5.05-.8,8.85,.91,11.25,5.46-7.55-.59-14.38,1.45-20.22,7.01Z"/>
    <path class="cls-17" d="M54.99,37.6c-1.21-.49-2.46,.79-3.73,3.42-2.09,2.69-4.51,4.14-7.28,4.2,.41-2.64,1.48-5.36,3.17-8.15,.56-1.66,.18-3.33-.93-4.99-1.69-1.75-2.87-3.88-3.36-6.57,2.81-.99,5.51-.71,8.03,1.58,1.64,2.22,3.44,3.49,5.47,3.44-2.83,1.48-3.29,3.84-1.36,7.07Z"/>
    <path class="cls-17" d="M81.25,32.56c-5.54-1.98-9.74,.03-12.68,5.8,5.3,1.36,9.55-.47,12.68-5.8Z"/>
    <path class="cls-14" d="M80.91,33.12c-3.76,2.87-7.65,4.71-11.67,5.4"/>
    <path class="cls-14" d="M80.44,32.24c-4.02,.75-7.79,2.39-11.23,5.13"/>
    <path class="cls-14" d="M76,18.15c-1.03-2.42-2.75-4.34-5.45-5.56"/>
    <path class="cls-14" d="M71.36,19.15c-1.05-2.11-2.4-3.93-4.39-5.14"/>
    <path class="cls-14" d="M62.01,17.26c2.04,.85,3.39,2.32,4.4,4.12"/>
    <path class="cls-17" d="M84.75,19.32c-1.4,6.95-1.13,13.75,1.22,20.37"/>
    <path class="cls-14" d="M80.65,17.99c-1.59,2.49-2.1,5.83-2.11,9.56-.8-3.78-1.49-7.45-.48-9.56h2.6Z"/>
    <path class="cls-14" d="M72.69,18.77c-.82,2.65-.9,5.77-.68,9.09-.94-3.14-1.57-6.06-1.47-8.43"/>
    <path class="cls-14" d="M65.94,21.66c-.48,2.1-.4,4.48,0,7.02-.81-1.69-1.44-3.56-1.51-6.01l1.51-1.01Z"/>
    <path class="cls-14" d="M75.47,31.82c-.5-.97-.52-2.25-.4-3.63-1.25,1.52-1.78,3.05-1.57,4.58l1.97-.95Z"/>
    <path class="cls-14" d="M74.46,38.5c.1,1.96,1.3,3.47,3.08,4.75l2.91-.84c-1.62-1.63-2.75-3.37-3.27-5.23l-2.72,1.32Z"/>
    <path class="cls-14" d="M74.63,44.85c-2.99,1.25-5.79,1.69-8.23,.64"/>
    <path class="cls-14" d="M63.2,42.03c-1.16-2.71-1.44-6.03-1.19-9.72-.94,3.23-1.28,6.28-.61,9.01l1.81,.71Z"/>
    <path class="cls-14" d="M43.94,45.22c3.17-2.42,6.38-5.93,9.61-9.91"/>
    <path class="cls-14" d="M47.02,37.05c2.18-1.8,4.36-2.65,6.54-2.54"/>
    <path class="cls-14" d="M53.56,33.33c-2.82,.39-5.55-.33-8.19-2.16"/>
    <path class="cls-14" d="M54.57,31.48c-3.84-3.06-7.73-5.21-11.71-6.04"/>
    <path class="cls-14" d="M86.08,27.55c-.12-2.11,2.05-2.9,2.32,0-.09,2.11-2.26,2.11-2.32,0Z"/>
    <path class="cls-1" d="M86.89,27.4c-.02-1.43,1.06-1.43,1.05,0-.17,.95-.89,.95-1.05,0Z"/>
    <path class="cls-4" d="M93.69,28.19c-2.15,1.93-2.11,2.55,0,1.91"/>
  </g>
  <g>
    <path class="cls-11" d="M148.46,642.39c-5.07,1.81-9.77,2.17-13.92,.43-.06,3.8-1.43,6.76-3.28,9.43-2.18-3.21-8.76-8.54-7.16-11.68,.18-.27,.38-.51,.59-.72,1.48-1.5,3.68-1.72,6.24-1.31l22.35-4.8"/>
    <g>
      <path class="cls-11" d="M180.33,610.77c-.08,12.4-6.61,20.46-16.53,26.25-1.56,8.34-5.77,14.11-11.68,18.22-.31-4.75-1.46-9.07-3.66-12.86-.4-.68-.83-1.35-1.3-2,1.92-2.72,3.86-4.61,5.83-5.37l1.94-.37c-.65,0-1.3,.12-1.94,.37l-28.9,5.54c-2.82-1.5-5.04-3.83-6.67-7,3.39,20.52-4.72,29.12-22.52,27.66,5.76-2.52,7.9-5.21,6.45-8.08,0-3.34,.54-6.24,2.04-8.38-5.1-5.08-5.79-10.02-1.72-14.83-10.71-.47-19.96-2.5-19.48-14.82-8.79-2.04-15.85-5.29-14.29-14.54,23.57-2.54,43.18,.04,48.5,21.12,5.5-21.67,17.39-29.34,34.67-25.24,8.49,2.02,18.28,6.88,29.25,14.32Z"/>
      <path class="cls-11" d="M154.94,634.66l-1.94,.37c.64-.25,1.29-.38,1.94-.37Z"/>
    </g>
    <path class="cls-10" d="M118.21,615.74c-.29-.28-.57-.57-.84-.85-5.3-5.59-5.11-10.17-1.19-14.08,.54-4.36-1.22-7.24-6.42-7.93,16.17-5.46,29.94-4.27,41.32,3.57-15.95-.37-27.32,5.49-32.87,19.28Z"/>
    <path class="cls-7" d="M141.31,597.12c-8.88-3.84-17.66-4.58-26.35-1.85"/>
    <path class="cls-7" d="M124.63,605.98c-2.9-2.8-6.47-3.44-10.59-2.27"/>
    <path class="cls-10" d="M82.2,615.12c10.35-6.33,21.72-4.42,34.21,6.57"/>
    <path class="cls-10" d="M101.78,654.53c8.78-.91,14.17-7.81,15.11-22.56"/>
    <path class="cls-10" d="M103.4,644.76c3.74,2.42,7.99-3.1,12.66-15.27"/>
    <path class="cls-10" d="M101.68,629.94c-1.02-9.42,2.21-13.2,13.51-6.29"/>
    <path class="cls-2" d="M167.33,609.67c-1.28-4.15-5.97-2.59-4.54,1.52,1.64,2.48,4.76,1.44,4.54-1.52Z"/>
    <path class="cls-1" d="M166.53,609.59c-.91-2.91-3.81-1.93-2.82,.94,1.09,1.76,3.03,1.11,2.82-.94Z"/>
    <path class="cls-7" d="M147.27,611.75c1.46,.46,1.75,1.32,.86,2.57"/>
    <path class="cls-2" d="M147.95,614.3c2.17,1.21,2.76,2.95,1.74,5.22"/>
    <path class="cls-2" d="M143.3,608.34c1.46,.46,1.75,1.32,.86,2.57"/>
    <path class="cls-2" d="M143.97,610.89c2.17,1.21,2.76,2.95,1.74,5.22"/>
    <path class="cls-2" d="M145.02,623.17c1.46,.46,1.75,1.32,.86,2.57"/>
    <path class="cls-2" d="M145.69,625.72c2.17,1.21,2.76,2.95,1.74,5.22"/>
  </g>
  <g>
    <path class="cls-9" d="M153.88,281.96c12.81,9.87,22.37,20.4,23.02,32.75-4.44,9.55-14.44,14.75-28.93,16.46-9.26,.82-18.07,.32-26.45-1.46-9.52-2.02-18.49-5.69-26.92-10.93s-15.71-11.52-22.85-19.4c-1.9-6.05-1.02-11,6.47-13.31,4.95-.67,11.05-2.87,17.81-5.94l13-5.37c17.29-3.23,32.39-1.17,44.85,7.19Z"/>
    <path class="cls-17" d="M94.6,318.78c2.5,4.71,.95,9.01-2.29,13.14,8.47,4.04,18.42,2.5,29.21-2.2-9.86-1.96-18.89-5.49-26.92-10.93Z"/>
    <path class="cls-17" d="M98.02,279.32c-6.62-4.23-9.99-9.76-10.98-16.23,.99,2.16,6.88,2.28,17.54,.41,9.66-1.89,19.37-3.81,24.78-2.43,13.28,2.64,21.67,9.41,24.53,20.89-18.63-7.63-37.25-9.21-55.86-2.64Z"/>
    <path class="cls-17" d="M72.64,299.75c-2.71-2.05-6.75-.45-11.8,3.92-7.16,3.8-14.26,4.76-21.29,2.54,2.88-5.13,7.48-9.86,13.7-14.21,2.58-2.97,2.77-6.76,1.14-11.15-3.03-5.06-4.52-10.5-3.87-16.49,7.78,.34,14.39,3.2,19.13,10.09,2.57,5.99,6.22,10.16,11.37,11.78-8.17,.67-10.98,5.16-8.37,13.52Z"/>
    <path class="cls-17" d="M142.36,311.6c-12.58-8.82-24.57-8.21-36.01,1.27,12.41,7.33,24.39,7.14,36.01-1.27Z"/>
    <path class="cls-14" d="M141.11,312.48c-11.48,2.76-22.56,3.27-33.19,1.29"/>
    <path class="cls-14" d="M140.54,310.24c-10.67-1.86-21.3-1.65-31.9,1.11"/>
    <path class="cls-14" d="M139.21,277.24c-.91-5.89-3.9-11.34-9.85-16.17"/>
    <path class="cls-14" d="M126.8,275.37c-1.18-5.27-3.3-10.2-7.48-14.4"/>
    <path class="cls-14" d="M104.57,263.5c4.56,3.49,6.92,7.7,8.2,12.28"/>
    <path class="cls-17" d="M160.43,287.09c-8.38,13.23-12.45,27.57-11.18,43.3"/>
    <path class="cls-14" d="M151.04,280.84c-5.74,3.81-9.36,10.32-12.02,18.05,.62-8.52,1.46-16.72,5.47-20.26l6.55,2.21Z"/>
    <path class="cls-14" d="M130.44,275.71c-3.91,4.79-6.29,11.22-8.07,18.29-.17-7.32,.27-13.91,2.2-18.75"/>
    <path class="cls-14" d="M111.4,275.97c-2.68,3.94-4.14,8.96-4.91,14.58-.85-4.19-1.13-8.61,.41-13.75l4.5-.82Z"/>
    <path class="cls-14" d="M128.32,305.16c-.58-2.44,.26-5.12,1.54-7.87-4.22,2.09-6.61,4.81-7.17,8.18l5.63-.3Z"/>
    <path class="cls-14" d="M121.09,318.15c-1.13,4.14,.86,8.3,4.44,12.47l7.92,.74c-2.95-4.77-4.58-9.33-4.59-13.64l-7.77,.43Z"/>
    <path class="cls-14" d="M117.08,331.48c-8.41,.04-15.78-1.41-21.19-5.67"/>
    <path class="cls-14" d="M90.25,315.91c-1.03-6.62,.58-13.75,3.8-21.19-4.64,5.91-7.63,11.95-7.85,18.18l4.05,3Z"/>
    <path class="cls-14" d="M39.47,306.18c9.67-2.32,20.22-6.88,31.16-12.41"/>
    <path class="cls-14" d="M52.95,291.83c6.76-1.88,12.84-1.79,18.27,.28"/>
    <path class="cls-14" d="M72.04,289.66c-7.38-1.59-13.76-5.4-19.13-11.43"/>
    <path class="cls-14" d="M75.86,286.69c-7.53-9.6-15.84-17.38-25.29-22.49"/>
    <path class="cls-14" d="M158.05,305.31c1.17-4.48,7.2-4.28,5.85,1.97-1.7,4.3-7.18,2.46-5.85-1.97Z"/>
    <path class="cls-1" d="M160.18,305.67c.94-2.98,3.68-2.06,2.65,.89-1.09,1.82-2.91,1.2-2.65-.89Z"/>
    <path class="cls-4" d="M176.77,313.09c-6.76,2.19-7.11,3.49-1.34,3.97"/>
  </g>
  <g>
    <path class="cls-15" d="M691.41,644.63c11.82,4.44,21.42,10.28,24.94,19.97-.89,8.82-6.94,15.67-17.12,20.94-6.58,3.15-13.15,5.12-19.73,5.96-7.47,.95-14.94,.43-22.41-1.49-7.17-1.84-14.35-4.98-21.52-9.34-2.88-4.32-3.46-8.51,1.45-12.37,3.46-1.86,7.39-5.27,11.58-9.54l8.19-7.79c11.87-7.24,23.42-9.66,34.62-6.33Z"/>
    <path class="cls-13" d="M657.64,689.52c2.96,3.06,2.9,6.87,1.55,11,7.13,.94,13.98-2.93,20.65-9.53-7.63,1.08-15.05,.69-22.2-1.47Z"/>
    <path class="cls-13" d="M650.47,657.41c-5.84-1.58-9.63-5.06-11.93-9.91,1.25,1.45,5.55-.03,12.82-4.35,6.55-4.06,13.12-8.18,17.38-8.52,10.28-1.45,18.02,1.67,22.9,9.98-15.38-1.07-29.28,2.65-41.17,12.8Z"/>
    <path class="cls-15" d="M636.22,680.83c-2.39-.9-4.84,1.46-7.34,6.28-4.12,4.94-8.87,7.61-14.32,7.73,.8-4.86,2.92-9.85,6.24-14.99,1.1-3.06,.35-6.12-1.84-9.19-3.32-3.21-5.65-7.15-6.61-12.09,5.53-1.81,10.84-1.31,15.79,2.9,3.22,4.08,6.76,6.42,10.76,6.33-5.57,2.72-6.48,7.06-2.68,13.01Z"/>
    <path class="cls-13" d="M690.53,671.12c-11.28-3.62-19.83,.05-25.82,10.6,10.8,2.49,19.44-.86,25.82-10.6Z"/>
    <path class="cls-16" d="M689.84,672.14c-7.66,5.24-15.57,8.6-23.76,9.86"/>
    <path class="cls-16" d="M688.9,670.64c-8.26,1.31-16,4.27-23.09,9.27"/>
    <path class="cls-16" d="M679.84,644.79c-2.1-4.41-5.6-7.93-11.1-10.16"/>
    <path class="cls-16" d="M670.38,646.62c-2.14-3.85-4.89-7.19-8.95-9.39"/>
    <path class="cls-16" d="M651.35,643.16c4.16,1.55,6.91,4.25,8.95,7.52"/>
    <path class="cls-16" d="M697.65,646.92c-2.84,12.69-2.29,25.12,2.48,37.21"/>
    <path class="cls-3" d="M689.31,644.49c-3.23,4.54-4.27,10.65-4.31,17.47-1.63-6.9-3.03-13.61-.99-17.47h5.29Z"/>
    <path class="cls-3" d="M673.11,645.91c-1.66,4.83-1.82,10.54-1.38,16.61-1.91-5.74-3.2-11.07-2.99-15.41"/>
    <path class="cls-3" d="M659.36,651.2c-.98,3.83-.81,8.19,0,12.83-1.64-3.09-2.93-6.5-3.07-10.98l3.07-1.85Z"/>
    <path class="cls-3" d="M678.77,669.76c-1.01-1.77-1.06-4.12-.81-6.64-2.55,2.77-3.62,5.57-3.2,8.38l4.01-1.74Z"/>
    <path class="cls-3" d="M688.9,689.11c-3.3-2.98-5.6-6.15-6.67-9.56l-5.53,2.41c.2,3.58,2.65,6.34,6.27,8.67"/>
    <path class="cls-16" d="M677.05,693.57c-6.09,2.28-11.79,3.09-16.76,1.16"/>
    <path class="cls-3" d="M653.78,688.4c-2.36-4.96-2.94-11.02-2.43-17.76-1.92,5.91-2.61,11.48-1.25,16.47l3.68,1.29Z"/>
    <path class="cls-13" d="M614.56,694.25c6.45-4.41,12.99-10.83,19.57-18.11"/>
    <path class="cls-13" d="M620.83,679.31c4.44-3.29,8.88-4.84,13.32-4.65"/>
    <path class="cls-13" d="M634.15,672.51c-5.74,.71-11.3-.6-16.67-3.94"/>
    <path class="cls-13" d="M636.2,669.14c-7.81-5.58-15.74-9.52-23.85-11.04"/>
    <path class="cls-16" d="M700.37,661.96c-.25-3.86,4.18-5.3,4.73,0-.18,3.86-4.61,3.86-4.73,0Z"/>
    <path class="cls-1" d="M702.01,661.68c-.04-2.61,2.17-2.61,2.14,0-.34,1.73-1.82,1.73-2.14,0Z"/>
    <path class="cls-5" d="M715.85,663.13c-4.37,3.53-4.3,4.66,0,3.49"/>
  </g>
</svg>