<?xml version="1.0" encoding="UTF-8"?>
<svg id="Layer_4" data-name="Layer 4" xmlns="http://www.w3.org/2000/svg" viewBox="0 0 1259.14 700.65">
  <defs>
    <style>
      .cls-1 {
        fill: #9ccfef;
      }
    </style>
  </defs>
  <g>
    <path class="cls-1" d="M1157.43,242.71c1.01-1.7,3.55-3.2,6.7-3.74,3.33-.57,6.37,.09,7.81,1.52-1.01,1.7-3.55,3.2-6.7,3.74-3.33,.57-6.37-.09-7.81-1.52Z"/>
    <path class="cls-1" d="M1170.88,240.54c1.3-.42,3.11-.45,4.66,.01,1.64,.49,2.51,1.37,2.34,2.21-1.3,.42-3.11,.45-4.66-.01-1.64-.49-2.51-1.37-2.34-2.21Z"/>
    <path class="cls-1" d="M1170.44,240.47c-.17-.76,.57-1.8,2.03-2.68,1.54-.93,3.44-1.41,4.79-1.28,.17,.76-.57,1.8-2.03,2.68-1.54,.93-3.44,1.41-4.79,1.28Z"/>
  </g>
  <g>
    <path class="cls-1" d="M991.06,234.94c1.66,2.4,4.96,3.87,8.65,3.53,3.9-.36,7.08-2.64,8.24-5.54-1.66-2.4-4.96-3.87-8.65-3.53-3.9,.36-7.08,2.64-8.24,5.54Z"/>
    <path class="cls-1" d="M1006.76,233.27c1.59,.19,3.61-.47,5.2-1.83,1.68-1.44,2.37-3.23,1.92-4.54-1.59-.19-3.61,.47-5.2,1.83-1.68,1.44-2.37,3.23-1.92,4.54Z"/>
    <path class="cls-1" d="M1006.28,233.55c.05,1.32,1.2,2.74,3.1,3.62,2.01,.93,4.28,.97,5.75,.24-.05-1.32-1.2-2.74-3.1-3.62-2.01-.93-4.28-.97-5.75-.24Z"/>
  </g>
  <g>
    <path class="cls-1" d="M1152.98,285.33c1.01-1.7,3.55-3.2,6.7-3.74,3.33-.57,6.37,.09,7.81,1.52-1.01,1.7-3.55,3.2-6.7,3.74-3.33,.57-6.37-.09-7.81-1.52Z"/>
    <path class="cls-1" d="M1166.44,283.16c1.3-.42,3.11-.45,4.66,.01,1.64,.49,2.51,1.37,2.34,2.21-1.3,.42-3.11,.45-4.66-.01-1.64-.49-2.51-1.37-2.34-2.21Z"/>
    <path class="cls-1" d="M1166,283.09c-.17-.76,.57-1.8,2.03-2.68,1.54-.93,3.44-1.41,4.79-1.28,.17,.76-.57,1.8-2.03,2.68-1.54,.93-3.44,1.41-4.79,1.28Z"/>
  </g>
  <g>
    <path class="cls-1" d="M1038.52,273.19c1.53,2.68,4.82,4.55,8.64,4.55,4.04,0,7.49-2.08,8.89-5.01-1.53-2.68-4.82-4.55-8.64-4.55-4.04,0-7.49,2.08-8.89,5.01Z"/>
    <path class="cls-1" d="M1054.82,272.97c1.62,.35,3.75-.14,5.49-1.41,1.83-1.34,2.68-3.16,2.31-4.57-1.62-.35-3.75,.14-5.49,1.41-1.83,1.34-2.68,3.16-2.31,4.57Z"/>
    <path class="cls-1" d="M1054.3,273.21c-.04,1.39,1.03,2.99,2.93,4.1,2,1.17,4.33,1.43,5.9,.81,.04-1.39-1.03-2.99-2.93-4.1-2-1.17-4.33-1.43-5.9-.81Z"/>
  </g>
  <g>
    <path class="cls-1" d="M1092.39,252.22c1.79-2.41,5.22-3.77,8.99-3.24,3.98,.56,7.16,3.06,8.23,6.12-1.79,2.41-5.22,3.77-8.99,3.24-3.98-.56-7.16-3.06-8.23-6.12Z"/>
    <path class="cls-1" d="M1108.41,254.7c1.63-.12,3.68,.66,5.26,2.14,1.67,1.57,2.31,3.45,1.8,4.78-1.63,.12-3.68-.66-5.26-2.14-1.67-1.57-2.31-3.45-1.8-4.78Z"/>
    <path class="cls-1" d="M1107.93,254.39c.1-1.36,1.33-2.78,3.31-3.59,2.09-.86,4.41-.8,5.9,.03-.1,1.36-1.33,2.78-3.31,3.59-2.09,.86-4.41,.8-5.9-.03Z"/>
  </g>
  <g>
    <path class="cls-1" d="M1118.55,233.62c1.28,1.51,4.03,2.56,7.23,2.56,3.38,0,6.26-1.17,7.44-2.82-1.28-1.51-4.03-2.56-7.23-2.56-3.38,0-6.26,1.17-7.44,2.82Z"/>
    <path class="cls-1" d="M1132.18,233.49c1.35,.2,3.14-.08,4.59-.8,1.53-.76,2.25-1.78,1.93-2.57-1.35-.2-3.14,.08-4.59,.8-1.53,.76-2.25,1.78-1.93,2.57Z"/>
    <path class="cls-1" d="M1131.75,233.63c-.03,.78,.86,1.68,2.45,2.3,1.68,.66,3.62,.81,4.94,.46,.03-.78-.86-1.68-2.45-2.3-1.68-.66-3.62-.81-4.94-.46Z"/>
  </g>
  <g>
    <path class="cls-1" d="M1079.12,311.49c1.36,.98,4.19,1.63,7.44,1.58,3.43-.05,6.32-.86,7.45-1.96-1.36-.98-4.19-1.63-7.44-1.58-3.43,.05-6.32,.86-7.45,1.96Z"/>
    <path class="cls-1" d="M1092.96,311.21c1.38,.11,3.19-.1,4.63-.59,1.53-.52,2.22-1.2,1.87-1.72-1.38-.11-3.19,.1-4.63,.59-1.53,.52-2.22,1.2-1.87,1.72Z"/>
    <path class="cls-1" d="M1092.53,311.31c0,.51,.94,1.1,2.57,1.48,1.73,.41,3.71,.48,5.03,.23,0-.51-.94-1.1-2.57-1.48-1.73-.41-3.71-.48-5.03-.23Z"/>
  </g>
  <g>
    <path class="cls-1" d="M967.12,263.13c1.51-1.29,4.39-1.89,7.55-1.38,3.34,.53,6,2.14,6.9,3.96-1.51,1.29-4.39,1.89-7.55,1.38-3.34-.53-6-2.14-6.9-3.96Z"/>
    <path class="cls-1" d="M980.56,265.42c1.37,.02,3.09,.58,4.41,1.51,1.39,.99,1.94,2.11,1.5,2.84-1.37-.02-3.09-.58-4.41-1.51-1.39-.99-1.94-2.11-1.5-2.84Z"/>
    <path class="cls-1" d="M980.15,265.21c.09-.78,1.12-1.52,2.78-1.89,1.76-.38,3.71-.22,4.95,.33-.09,.78-1.12,1.52-2.78,1.89-1.76,.38-3.71,.22-4.95-.33Z"/>
  </g>
  <g>
    <path class="cls-1" d="M1140.64,263.13c1.27-2.19,4.6-4.04,8.81-4.59,4.44-.59,8.56,.43,10.56,2.37-1.27,2.19-4.6,4.04-8.81,4.59-4.44,.59-8.56-.43-10.56-2.37Z"/>
    <path class="cls-1" d="M1158.61,260.91c1.73-.5,4.15-.44,6.26,.23,2.23,.72,3.44,1.92,3.25,3.01-1.73,.5-4.15,.44-6.26-.23-2.23-.72-3.44-1.92-3.25-3.01Z"/>
    <path class="cls-1" d="M1158,260.81c-.26-1.01,.67-2.34,2.59-3.43,2.02-1.15,4.54-1.68,6.37-1.46,.26,1.01-.67,2.34-2.59,3.43-2.02,1.15-4.54,1.68-6.37,1.46Z"/>
  </g>
  <g>
    <path class="cls-1" d="M1016.43,314.23c1.32,1.11,4,1.82,7.03,1.72,3.2-.11,5.86-1.1,6.86-2.4-1.32-1.11-4-1.82-7.03-1.72-3.2,.11-5.86,1.1-6.86,2.4Z"/>
    <path class="cls-1" d="M1029.35,313.68c1.3,.11,2.97-.16,4.3-.76,1.4-.63,2.01-1.43,1.66-2.03-1.3-.11-2.97,.16-4.3,.76-1.4,.63-2.01,1.43-1.66,2.03Z"/>
    <path class="cls-1" d="M1028.95,313.8c.02,.6,.93,1.26,2.48,1.68,1.63,.45,3.49,.5,4.71,.19-.02-.6-.93-1.26-2.48-1.68-1.63-.45-3.49-.5-4.71-.19Z"/>
  </g>
  <g>
    <path class="cls-1" d="M964.24,299.24c1.01-1.7,3.55-3.2,6.7-3.74,3.33-.57,6.37,.09,7.81,1.52-1.01,1.7-3.55,3.2-6.7,3.74-3.33,.57-6.37-.09-7.81-1.52Z"/>
    <path class="cls-1" d="M977.69,297.07c1.3-.42,3.11-.45,4.66,.01,1.64,.49,2.51,1.37,2.34,2.21-1.3,.42-3.11,.45-4.66-.01-1.64-.49-2.51-1.37-2.34-2.21Z"/>
    <path class="cls-1" d="M977.25,297c-.17-.76,.57-1.8,2.03-2.68,1.54-.93,3.44-1.41,4.79-1.28,.17,.76-.57,1.8-2.03,2.68-1.54,.93-3.44,1.41-4.79,1.28Z"/>
  </g>
  <g>
    <path class="cls-1" d="M1061.2,214.39c.03,1.78,1.5,3.79,3.98,5.12,2.63,1.4,5.62,1.63,7.6,.76-.03-1.78-1.5-3.79-3.98-5.12-2.63-1.4-5.62-1.63-7.6-.76Z"/>
    <path class="cls-1" d="M1071.89,219.94c.93,.73,2.49,1.24,4.08,1.25,1.68,.01,2.89-.54,3.16-1.32-.93-.73-2.49-1.24-4.08-1.25-1.68-.01-2.89,.54-3.16,1.32Z"/>
    <path class="cls-1" d="M1071.47,219.87c-.53,.63-.41,1.75,.42,2.92,.88,1.24,2.3,2.17,3.55,2.43,.53-.63,.41-1.75-.42-2.92-.88-1.24-2.3-2.17-3.55-2.43Z"/>
  </g>
  <g>
    <path class="cls-1" d="M949.77,201.85c1.01-1.7,3.55-3.2,6.7-3.74,3.33-.57,6.37,.09,7.81,1.52-1.01,1.7-3.55,3.2-6.7,3.74-3.33,.57-6.37-.09-7.81-1.52Z"/>
    <path class="cls-1" d="M963.23,199.68c1.3-.42,3.11-.45,4.66,.01,1.64,.49,2.51,1.37,2.34,2.21-1.3,.42-3.11,.45-4.66-.01-1.64-.49-2.51-1.37-2.34-2.21Z"/>
    <path class="cls-1" d="M962.79,199.62c-.17-.76,.57-1.8,2.03-2.68,1.54-.93,3.44-1.41,4.79-1.28,.17,.76-.57,1.8-2.03,2.68-1.54,.93-3.44,1.41-4.79,1.28Z"/>
  </g>
  <g>
    <path class="cls-1" d="M1079.77,173.72c2.38,1.26,6.48,1.73,10.69,1.04,4.45-.72,7.71-2.52,8.5-4.44-2.38-1.26-6.48-1.73-10.69-1.04-4.45,.72-7.71,2.52-8.5,4.44Z"/>
    <path class="cls-1" d="M1097.65,170.68c1.87-.09,4.09-.75,5.68-1.79,1.67-1.09,2.14-2.28,1.37-3.02-1.87,.09-4.09,.75-5.68,1.79-1.67,1.09-2.14,2.28-1.37,3.02Z"/>
    <path class="cls-1" d="M1097.15,170.91c.31,.8,1.91,1.52,4.28,1.81,2.5,.31,5.14,.04,6.71-.6-.31-.8-1.91-1.52-4.28-1.81-2.5-.31-5.14-.04-6.71,.6Z"/>
  </g>
  <g>
    <path class="cls-1" d="M945.33,244.47c1.01-1.7,3.55-3.2,6.7-3.74,3.33-.57,6.37,.09,7.81,1.52-1.01,1.7-3.55,3.2-6.7,3.74-3.33,.57-6.37-.09-7.81-1.52Z"/>
    <path class="cls-1" d="M958.79,242.3c1.3-.42,3.11-.45,4.66,.01,1.64,.49,2.51,1.37,2.34,2.21-1.3,.42-3.11,.45-4.66-.01-1.64-.49-2.51-1.37-2.34-2.21Z"/>
    <path class="cls-1" d="M958.34,242.24c-.17-.76,.57-1.8,2.03-2.68,1.54-.93,3.44-1.41,4.79-1.28,.17,.76-.57,1.8-2.03,2.68-1.54,.93-3.44,1.41-4.79,1.28Z"/>
  </g>
  <g>
    <path class="cls-1" d="M999.87,182.97c1.32,1.34,4.17,2.27,7.47,2.27,3.49,0,6.47-1.04,7.68-2.5-1.32-1.34-4.17-2.27-7.47-2.27-3.49,0-6.47,1.04-7.68,2.5Z"/>
    <path class="cls-1" d="M1013.95,182.85c1.4,.18,3.24-.07,4.74-.71,1.58-.67,2.32-1.58,2-2.28-1.4-.18-3.24,.07-4.74,.71-1.58,.67-2.32,1.58-2,2.28Z"/>
    <path class="cls-1" d="M1013.5,182.98c-.04,.69,.89,1.5,2.53,2.05,1.73,.58,3.74,.72,5.1,.4,.04-.69-.89-1.5-2.53-2.05-1.73-.58-3.74-.72-5.1-.4Z"/>
  </g>
  <g>
    <path class="cls-1" d="M836.73,179.96c2.05-1.49,5.99-2.33,10.31-2,4.56,.34,8.21,1.89,9.45,3.78-2.05,1.49-5.99,2.33-10.31,2-4.56-.34-8.21-1.89-9.45-3.78Z"/>
    <path class="cls-1" d="M855.12,181.49c1.87-.07,4.22,.41,6.03,1.32,1.91,.97,2.66,2.13,2.07,2.95-1.87,.07-4.22-.41-6.03-1.32-1.91-.97-2.66-2.13-2.07-2.95Z"/>
    <path class="cls-1" d="M854.57,181.3c.12-.84,1.52-1.72,3.8-2.22,2.4-.53,5.07-.49,6.77,.02-.12,.84-1.52,1.72-3.8,2.22-2.4,.53-5.07,.49-6.77-.02Z"/>
  </g>
  <g>
    <path class="cls-1" d="M910.9,192.77c1.28,1.51,4.03,2.56,7.23,2.56,3.38,0,6.26-1.17,7.44-2.82-1.28-1.51-4.03-2.56-7.23-2.56-3.38,0-6.26,1.17-7.44,2.82Z"/>
    <path class="cls-1" d="M924.53,192.64c1.35,.2,3.14-.08,4.59-.8,1.53-.76,2.25-1.78,1.93-2.57-1.35-.2-3.14,.08-4.59,.8-1.53,.76-2.25,1.78-1.93,2.57Z"/>
    <path class="cls-1" d="M924.1,192.78c-.03,.78,.86,1.68,2.45,2.3,1.68,.66,3.62,.81,4.94,.46,.03-.78-.86-1.68-2.45-2.3-1.68-.66-3.62-.81-4.94-.46Z"/>
  </g>
  <g>
    <path class="cls-1" d="M1045.73,349.76c1.01,1.46,3.53,2.65,6.68,2.94,3.32,.31,6.35-.46,7.78-1.82-1.01-1.46-3.53-2.65-6.68-2.94-3.32-.31-6.35,.46-7.78,1.82Z"/>
    <path class="cls-1" d="M1059.14,350.9c1.3,.3,3.1,.22,4.64-.29,1.63-.53,2.5-1.38,2.33-2.11-1.3-.3-3.1-.22-4.64,.29-1.63,.53-2.5,1.38-2.33,2.11Z"/>
    <path class="cls-1" d="M1058.69,350.98c-.16,.69,.57,1.58,2.02,2.28,1.54,.74,3.42,1.05,4.77,.86,.16-.69-.57-1.58-2.02-2.28-1.54-.74-3.42-1.05-4.77-.86Z"/>
  </g>
  <g>
    <path class="cls-1" d="M1129.19,206.13c1.28-1.52,4.02-2.57,7.22-2.59,3.38-.02,6.27,1.14,7.45,2.78-1.28,1.52-4.02,2.57-7.22,2.59-3.38,.02-6.27-1.14-7.45-2.78Z"/>
    <path class="cls-1" d="M1142.82,206.19c1.35-.21,3.14,.07,4.59,.77,1.54,.75,2.25,1.77,1.95,2.56-1.35,.21-3.14-.07-4.59-.77-1.54-.75-2.25-1.77-1.95-2.56Z"/>
    <path class="cls-1" d="M1142.39,206.06c-.04-.78,.86-1.69,2.44-2.32,1.67-.66,3.62-.82,4.94-.48,.04,.78-.86,1.69-2.44,2.32-1.67,.66-3.62,.82-4.94,.48Z"/>
  </g>
  <g>
    <path class="cls-1" d="M932.99,222.25c1.3-2.21,4.71-4.06,9.02-4.63,4.55-.59,8.76,.43,10.81,2.39-1.3,2.21-4.71,4.06-9.02,4.63-4.55,.59-8.76-.43-10.81-2.39Z"/>
    <path class="cls-1" d="M951.38,220.02c1.77-.5,4.25-.45,6.4,.24,2.28,.72,3.52,1.94,3.33,3.03-1.77,.5-4.25,.45-6.4-.24-2.28-.72-3.52-1.94-3.33-3.03Z"/>
    <path class="cls-1" d="M950.76,219.92c-.27-1.02,.69-2.36,2.65-3.45,2.07-1.16,4.65-1.7,6.52-1.47,.27,1.02-.69,2.36-2.65,3.45-2.07,1.16-4.65,1.7-6.52,1.47Z"/>
  </g>
  <g>
    <path class="cls-1" d="M951.72,322.01c1.33,1.33,4.19,2.26,7.52,2.26,3.51,0,6.51-1.03,7.73-2.49-1.33-1.33-4.19-2.26-7.52-2.26-3.51,0-6.51,1.03-7.73,2.49Z"/>
    <path class="cls-1" d="M965.9,321.9c1.41,.18,3.26-.07,4.77-.7,1.59-.67,2.33-1.57,2.01-2.27-1.41-.18-3.26,.07-4.77,.7-1.59,.67-2.33,1.57-2.01,2.27Z"/>
    <path class="cls-1" d="M965.45,322.02c-.04,.69,.9,1.49,2.55,2.04,1.74,.58,3.77,.71,5.13,.4,.04-.69-.9-1.49-2.55-2.04-1.74-.58-3.77-.71-5.13-.4Z"/>
  </g>
  <g>
    <path class="cls-1" d="M869.58,330.38c1.01-1.7,3.55-3.2,6.7-3.74,3.33-.57,6.37,.09,7.81,1.52-1.01,1.7-3.55,3.2-6.7,3.74-3.33,.57-6.37-.09-7.81-1.52Z"/>
    <path class="cls-1" d="M883.04,328.21c1.3-.42,3.11-.45,4.66,.01,1.64,.49,2.51,1.37,2.34,2.21-1.3,.42-3.11,.45-4.66-.01-1.64-.49-2.51-1.37-2.34-2.21Z"/>
    <path class="cls-1" d="M882.6,328.15c-.17-.76,.57-1.8,2.03-2.68,1.54-.93,3.44-1.41,4.79-1.28,.17,.76-.57,1.8-2.03,2.68-1.54,.93-3.44,1.41-4.79,1.28Z"/>
  </g>
  <g>
    <path class="cls-1" d="M1048.32,242.95c.64,1.66,2.71,3.04,5.51,3.42,2.95,.41,5.84-.41,7.39-1.92-.64-1.66-2.71-3.04-5.51-3.42-2.95-.41-5.84,.41-7.39,1.92Z"/>
    <path class="cls-1" d="M1060.27,244.46c1.12,.36,2.77,.3,4.26-.24,1.58-.57,2.53-1.5,2.51-2.33-1.12-.36-2.77-.3-4.26,.24-1.58,.57-2.53,1.5-2.51,2.33Z"/>
    <path class="cls-1" d="M1059.85,244.55c-.28,.77,.22,1.78,1.41,2.6,1.25,.86,2.91,1.24,4.17,1.05,.28-.77-.22-1.78-1.41-2.6-1.25-.86-2.91-1.24-4.17-1.05Z"/>
  </g>
  <g>
    <path class="cls-1" d="M908.82,285.57c1.01-1.7,3.55-3.2,6.7-3.74,3.33-.57,6.37,.09,7.81,1.52-1.01,1.7-3.55,3.2-6.7,3.74-3.33,.57-6.37-.09-7.81-1.52Z"/>
    <path class="cls-1" d="M922.28,283.4c1.3-.42,3.11-.45,4.66,.01,1.64,.49,2.51,1.37,2.34,2.21-1.3,.42-3.11,.45-4.66-.01-1.64-.49-2.51-1.37-2.34-2.21Z"/>
    <path class="cls-1" d="M921.83,283.33c-.17-.76,.57-1.8,2.03-2.68,1.54-.93,3.44-1.41,4.79-1.28,.17,.76-.57,1.8-2.03,2.68-1.54,.93-3.44,1.41-4.79,1.28Z"/>
  </g>
  <g>
    <path class="cls-1" d="M1017.94,203.48c1.28,1.51,4.03,2.56,7.23,2.56,3.38,0,6.26-1.17,7.44-2.82-1.28-1.51-4.03-2.56-7.23-2.56-3.38,0-6.26,1.17-7.44,2.82Z"/>
    <path class="cls-1" d="M1031.57,203.35c1.35,.2,3.14-.08,4.59-.8,1.53-.76,2.25-1.78,1.93-2.57-1.35-.2-3.14,.08-4.59,.8-1.53,.76-2.25,1.78-1.93,2.57Z"/>
    <path class="cls-1" d="M1031.14,203.49c-.03,.78,.86,1.68,2.45,2.3,1.68,.66,3.62,.81,4.94,.46,.03-.78-.86-1.68-2.45-2.3-1.68-.66-3.62-.81-4.94-.46Z"/>
  </g>
  <g>
    <path class="cls-1" d="M893.38,236.34c1.01-1.7,3.55-3.2,6.7-3.74,3.33-.57,6.37,.09,7.81,1.52-1.01,1.7-3.55,3.2-6.7,3.74-3.33,.57-6.37-.09-7.81-1.52Z"/>
    <path class="cls-1" d="M906.84,234.17c1.3-.42,3.11-.45,4.66,.01,1.64,.49,2.51,1.37,2.34,2.21-1.3,.42-3.11,.45-4.66-.01-1.64-.49-2.51-1.37-2.34-2.21Z"/>
    <path class="cls-1" d="M906.39,234.11c-.17-.76,.57-1.8,2.03-2.68,1.54-.93,3.44-1.41,4.79-1.28,.17,.76-.57,1.8-2.03,2.68-1.54,.93-3.44,1.41-4.79,1.28Z"/>
  </g>
  <g>
    <path class="cls-1" d="M1099.44,284.18c1.01-1.7,3.55-3.2,6.7-3.74,3.33-.57,6.37,.09,7.81,1.52-1.01,1.7-3.55,3.2-6.7,3.74-3.33,.57-6.37-.09-7.81-1.52Z"/>
    <path class="cls-1" d="M1112.9,282.01c1.3-.42,3.11-.45,4.66,.01,1.64,.49,2.51,1.37,2.34,2.21-1.3,.42-3.11,.45-4.66-.01-1.64-.49-2.51-1.37-2.34-2.21Z"/>
    <path class="cls-1" d="M1112.45,281.95c-.17-.76,.57-1.8,2.03-2.68,1.54-.93,3.44-1.41,4.79-1.28,.17,.76-.57,1.8-2.03,2.68-1.54,.93-3.44,1.41-4.79,1.28Z"/>
  </g>
  <g>
    <path class="cls-1" d="M1008.02,263.51c1.01-1.7,3.55-3.2,6.7-3.74,3.33-.57,6.37,.09,7.81,1.52-1.01,1.7-3.55,3.2-6.7,3.74-3.33,.57-6.37-.09-7.81-1.52Z"/>
    <path class="cls-1" d="M1021.48,261.34c1.3-.42,3.11-.45,4.66,.01,1.64,.49,2.51,1.37,2.34,2.21-1.3,.42-3.11,.45-4.66-.01-1.64-.49-2.51-1.37-2.34-2.21Z"/>
    <path class="cls-1" d="M1021.03,261.28c-.17-.76,.57-1.8,2.03-2.68,1.54-.93,3.44-1.41,4.79-1.28,.17,.76-.57,1.8-2.03,2.68-1.54,.93-3.44,1.41-4.79,1.28Z"/>
  </g>
  <g>
    <path class="cls-1" d="M1002.75,336.84c1.32,1.34,4.17,2.27,7.47,2.27,3.49,0,6.47-1.04,7.68-2.5-1.32-1.34-4.17-2.27-7.47-2.27-3.49,0-6.47,1.04-7.68,2.5Z"/>
    <path class="cls-1" d="M1016.82,336.73c1.4,.18,3.24-.07,4.74-.71,1.58-.67,2.32-1.58,2-2.28-1.4-.18-3.24,.07-4.74,.71-1.58,.67-2.32,1.58-2,2.28Z"/>
    <path class="cls-1" d="M1016.38,336.85c-.04,.69,.89,1.5,2.53,2.05,1.73,.58,3.74,.72,5.1,.4,.04-.69-.89-1.5-2.53-2.05-1.73-.58-3.74-.72-5.1-.4Z"/>
  </g>
  <g>
    <path class="cls-1" d="M897.89,259.15c1.89,1.09,5.73,1.78,10.07,1.68,4.59-.11,8.4-1.07,9.84-2.34-1.89-1.09-5.73-1.78-10.07-1.68-4.59,.11-8.4,1.07-9.84,2.34Z"/>
    <path class="cls-1" d="M916.4,258.61c1.86,.11,4.26-.16,6.16-.74,2.01-.61,2.88-1.4,2.38-1.98-1.86-.11-4.26,.16-6.16,.74-2.01,.61-2.88,1.4-2.38,1.98Z"/>
    <path class="cls-1" d="M915.83,258.73c.03,.58,1.34,1.23,3.55,1.64,2.34,.44,5,.49,6.75,.18-.03-.58-1.34-1.23-3.55-1.64-2.34-.44-5-.49-6.75-.18Z"/>
  </g>
  <g>
    <path class="cls-1" d="M845.69,244.12c1.01-1.7,3.55-3.2,6.7-3.74,3.33-.57,6.37,.09,7.81,1.52-1.01,1.7-3.55,3.2-6.7,3.74-3.33,.57-6.37-.09-7.81-1.52Z"/>
    <path class="cls-1" d="M859.15,241.95c1.3-.42,3.11-.45,4.66,.01,1.64,.49,2.51,1.37,2.34,2.21-1.3,.42-3.11,.45-4.66-.01-1.64-.49-2.51-1.37-2.34-2.21Z"/>
    <path class="cls-1" d="M858.7,241.88c-.17-.76,.57-1.8,2.03-2.68,1.54-.93,3.44-1.41,4.79-1.28,.17,.76-.57,1.8-2.03,2.68-1.54,.93-3.44,1.41-4.79,1.28Z"/>
  </g>
  <g>
    <path class="cls-1" d="M833.18,266.89c1.33,1.33,4.19,2.26,7.52,2.26,3.51,0,6.51-1.03,7.73-2.49-1.33-1.33-4.19-2.26-7.52-2.26-3.51,0-6.51,1.03-7.73,2.49Z"/>
    <path class="cls-1" d="M847.36,266.78c1.41,.18,3.26-.07,4.77-.7,1.59-.67,2.33-1.57,2.01-2.27-1.41-.18-3.26,.07-4.77,.7-1.59,.67-2.33,1.57-2.01,2.27Z"/>
    <path class="cls-1" d="M846.91,266.9c-.04,.69,.9,1.49,2.55,2.04,1.74,.58,3.77,.71,5.13,.4,.04-.69-.9-1.49-2.55-2.04-1.74-.58-3.77-.71-5.13-.4Z"/>
  </g>
  <g>
    <path class="cls-1" d="M790.27,230.45c1.01-1.7,3.55-3.2,6.7-3.74,3.33-.57,6.37,.09,7.81,1.52-1.01,1.7-3.55,3.2-6.7,3.74-3.33,.57-6.37-.09-7.81-1.52Z"/>
    <path class="cls-1" d="M803.73,228.28c1.3-.42,3.11-.45,4.66,.01,1.64,.49,2.51,1.37,2.34,2.21-1.3,.42-3.11,.45-4.66-.01-1.64-.49-2.51-1.37-2.34-2.21Z"/>
    <path class="cls-1" d="M803.29,228.21c-.17-.76,.57-1.8,2.03-2.68,1.54-.93,3.44-1.41,4.79-1.28,.17,.76-.57,1.8-2.03,2.68-1.54,.93-3.44,1.41-4.79,1.28Z"/>
  </g>
  <g>
    <path class="cls-1" d="M751.4,221.36c1.28,1.51,4.03,2.56,7.23,2.56,3.38,0,6.26-1.17,7.44-2.82-1.28-1.51-4.03-2.56-7.23-2.56-3.38,0-6.26,1.17-7.44,2.82Z"/>
    <path class="cls-1" d="M765.03,221.23c1.35,.2,3.14-.08,4.59-.8,1.53-.76,2.25-1.78,1.93-2.57-1.35-.2-3.14,.08-4.59,.8-1.53,.76-2.25,1.78-1.93,2.57Z"/>
    <path class="cls-1" d="M764.6,221.37c-.03,.78,.86,1.68,2.45,2.3,1.68,.66,3.62,.81,4.94,.46,.03-.78-.86-1.68-2.45-2.3-1.68-.66-3.62-.81-4.94-.46Z"/>
  </g>
  <g>
    <path class="cls-1" d="M1172.2,176.72c1.32,1.34,4.17,2.27,7.47,2.27,3.49,0,6.47-1.04,7.68-2.5-1.32-1.34-4.17-2.27-7.47-2.27-3.49,0-6.47,1.04-7.68,2.5Z"/>
    <path class="cls-1" d="M1186.28,176.61c1.4,.18,3.24-.07,4.74-.71,1.58-.67,2.32-1.58,2-2.28-1.4-.18-3.24,.07-4.74,.71-1.58,.67-2.32,1.58-2,2.28Z"/>
    <path class="cls-1" d="M1185.84,176.73c-.04,.69,.89,1.5,2.53,2.05,1.73,.58,3.74,.72,5.1,.4,.04-.69-.89-1.5-2.53-2.05-1.73-.58-3.74-.72-5.1-.4Z"/>
  </g>
  <g>
    <path class="cls-1" d="M1145.5,118.13c1.51-1.29,4.39-1.89,7.55-1.38,3.34,.53,6,2.14,6.9,3.96-1.51,1.29-4.39,1.89-7.55,1.38-3.34-.53-6-2.14-6.9-3.96Z"/>
    <path class="cls-1" d="M1158.94,120.41c1.37,.02,3.09,.58,4.41,1.51,1.39,.99,1.94,2.11,1.5,2.84-1.37-.02-3.09-.58-4.41-1.51-1.39-.99-1.94-2.11-1.5-2.84Z"/>
    <path class="cls-1" d="M1158.54,120.21c.09-.78,1.12-1.52,2.78-1.89,1.76-.38,3.71-.22,4.95,.33-.09,.78-1.12,1.52-2.78,1.89-1.76,.38-3.71,.22-4.95-.33Z"/>
  </g>
  <g>
    <path class="cls-1" d="M1142.62,154.24c1.01-1.7,3.55-3.2,6.7-3.74,3.33-.57,6.37,.09,7.81,1.52-1.01,1.7-3.55,3.2-6.7,3.74-3.33,.57-6.37-.09-7.81-1.52Z"/>
    <path class="cls-1" d="M1156.08,152.06c1.3-.42,3.11-.45,4.66,.01,1.64,.49,2.51,1.37,2.34,2.21-1.3,.42-3.11,.45-4.66-.01-1.64-.49-2.51-1.37-2.34-2.21Z"/>
    <path class="cls-1" d="M1155.63,152c-.17-.76,.57-1.8,2.03-2.68,1.54-.93,3.44-1.41,4.79-1.28,.17,.76-.57,1.8-2.03,2.68-1.54,.93-3.44,1.41-4.79,1.28Z"/>
  </g>
  <g>
    <path class="cls-1" d="M1130.11,177.01c1.33,1.33,4.19,2.26,7.52,2.26,3.51,0,6.51-1.03,7.73-2.49-1.33-1.33-4.19-2.26-7.52-2.26-3.51,0-6.51,1.03-7.73,2.49Z"/>
    <path class="cls-1" d="M1144.29,176.9c1.41,.18,3.26-.07,4.77-.7,1.59-.67,2.33-1.57,2.01-2.27-1.41-.18-3.26,.07-4.77,.7-1.59,.67-2.33,1.57-2.01,2.27Z"/>
    <path class="cls-1" d="M1143.84,177.02c-.04,.69,.9,1.49,2.55,2.04,1.74,.58,3.77,.71,5.13,.4,.04-.69-.9-1.49-2.55-2.04-1.74-.58-3.77-.71-5.13-.4Z"/>
  </g>
  <g>
    <path class="cls-1" d="M1047.97,185.38c1.01-1.7,3.55-3.2,6.7-3.74,3.33-.57,6.37,.09,7.81,1.52-1.01,1.7-3.55,3.2-6.7,3.74-3.33,.57-6.37-.09-7.81-1.52Z"/>
    <path class="cls-1" d="M1061.43,183.21c1.3-.42,3.11-.45,4.66,.01,1.64,.49,2.51,1.37,2.34,2.21-1.3,.42-3.11,.45-4.66-.01-1.64-.49-2.51-1.37-2.34-2.21Z"/>
    <path class="cls-1" d="M1060.98,183.15c-.17-.76,.57-1.8,2.03-2.68,1.54-.93,3.44-1.41,4.79-1.28,.17,.76-.57,1.8-2.03,2.68-1.54,.93-3.44,1.41-4.79,1.28Z"/>
  </g>
  <g>
    <path class="cls-1" d="M1087.2,140.57c1.01-1.7,3.55-3.2,6.7-3.74,3.33-.57,6.37,.09,7.81,1.52-1.01,1.7-3.55,3.2-6.7,3.74-3.33,.57-6.37-.09-7.81-1.52Z"/>
    <path class="cls-1" d="M1100.66,138.4c1.3-.42,3.11-.45,4.66,.01,1.64,.49,2.51,1.37,2.34,2.21-1.3,.42-3.11,.45-4.66-.01-1.64-.49-2.51-1.37-2.34-2.21Z"/>
    <path class="cls-1" d="M1100.21,138.33c-.17-.76,.57-1.8,2.03-2.68,1.54-.93,3.44-1.41,4.79-1.28,.17,.76-.57,1.8-2.03,2.68-1.54,.93-3.44,1.41-4.79,1.28Z"/>
  </g>
  <g>
    <path class="cls-1" d="M1011.57,121.89c1.33,1.33,4.19,2.26,7.52,2.26,3.51,0,6.51-1.03,7.73-2.49-1.33-1.33-4.19-2.26-7.52-2.26-3.51,0-6.51,1.03-7.73,2.49Z"/>
    <path class="cls-1" d="M1025.74,121.78c1.41,.18,3.26-.07,4.77-.7,1.59-.67,2.33-1.57,2.01-2.27-1.41-.18-3.26,.07-4.77,.7-1.59,.67-2.33,1.57-2.01,2.27Z"/>
    <path class="cls-1" d="M1025.29,121.9c-.04,.69,.9,1.49,2.55,2.04,1.74,.58,3.77,.71,5.13,.4,.04-.69-.9-1.49-2.55-2.04-1.74-.58-3.77-.71-5.13-.4Z"/>
  </g>
</svg>