<?xml version="1.0" encoding="UTF-8"?>
<svg id="Layer_3" data-name="Layer 3" xmlns="http://www.w3.org/2000/svg" viewBox="0 0 1259.14 700.65">
  <defs>
    <style>
      .cls-1 {
        fill: #628ba5;
      }
    </style>
  </defs>
  <g>
    <path class="cls-1" d="M1196.26,140.85c-2.03,3.07-6.39,5.2-11.46,5.2-5.35,0-9.92-2.37-11.78-5.73,2.03-3.07,6.39-5.2,11.46-5.2,5.35,0,9.92,2.37,11.78,5.73Z"/>
    <path class="cls-1" d="M1174.67,140.6c-2.15,.4-4.97-.16-7.27-1.62-2.43-1.54-3.56-3.61-3.06-5.23,2.15-.4,4.97,.16,7.27,1.62,2.43,1.54,3.56,3.61,3.06,5.23Z"/>
    <path class="cls-1" d="M1175.35,140.88c.06,1.59-1.37,3.42-3.88,4.69-2.65,1.34-5.74,1.64-7.82,.93-.06-1.59,1.37-3.42,3.88-4.69,2.65-1.34,5.74-1.64,7.82-.93Z"/>
  </g>
  <g>
    <path class="cls-1" d="M612.4,59.1c-2.39-2.8-6.97-4.38-12-3.77-5.31,.65-9.56,3.56-11,7.11,2.39,2.8,6.97,4.38,12,3.77,5.31-.65,9.56-3.56,11-7.11Z"/>
    <path class="cls-1" d="M591,61.98c-2.18-.14-4.92,.76-7.02,2.49-2.22,1.82-3.09,4.02-2.41,5.56,2.18,.14,4.92-.76,7.02-2.49,2.22-1.82,3.09-4.02,2.41-5.56Z"/>
    <path class="cls-1" d="M591.64,61.62c-.14-1.58-1.77-3.23-4.42-4.18-2.8-1-5.9-.93-7.88,.03,.14,1.58,1.77,3.23,4.42,4.18,2.8,1,5.9,.93,7.88-.03Z"/>
  </g>
  <g>
    <path class="cls-1" d="M782.46,325.56c-1.3,3.45-5.07,6.49-10.01,7.62-5.22,1.19-10.2-.1-12.76-2.96,1.3-3.45,5.07-6.49,10.01-7.62,5.22-1.19,10.2,.1,12.76,2.96Z"/>
    <path class="cls-1" d="M761.35,330.12c-2,.87-4.88,.95-7.45,.04-2.71-.96-4.27-2.73-4.15-4.41,2-.87,4.88-.95,7.45-.04,2.71,.96,4.27,2.73,4.15,4.41Z"/>
    <path class="cls-1" d="M762.08,330.24c.41,1.53-.57,3.64-2.74,5.43-2.29,1.89-5.23,2.88-7.42,2.64-.41-1.53,.57-3.64,2.74-5.43,2.29-1.89,5.23-2.88,7.42-2.64Z"/>
  </g>
  <g>
    <path class="cls-1" d="M1023.48,434.65c-.22-3.67-2.88-7.7-7.21-10.24-4.57-2.68-9.64-2.92-12.89-.95,.22,3.67,2.88,7.7,7.21,10.24,4.57,2.68,9.64,2.92,12.89,.95Z"/>
    <path class="cls-1" d="M1004.91,424.04c-1.63-1.43-4.33-2.35-7.01-2.25-2.83,.11-4.82,1.34-5.2,2.99,1.63,1.43,4.33,2.35,7.01,2.25,2.83-.11,4.82-1.34,5.2-2.99Z"/>
    <path class="cls-1" d="M1005.64,424.14c.83-1.34,.52-3.65-1-6-1.61-2.49-4.09-4.3-6.22-4.72-.83,1.34-.52,3.65,1,6,1.61,2.49,4.09,4.3,6.22,4.72Z"/>
  </g>
  <g>
    <path class="cls-1" d="M1071.28,9.34c-1.68-3.27-5.78-5.87-10.81-6.43-5.32-.59-10.12,1.27-12.34,4.4,1.68,3.27,5.78,5.87,10.81,6.43,5.32,.59,10.12-1.27,12.34-4.4Z"/>
    <path class="cls-1" d="M1049.79,7.22c-2.09-.64-4.96-.39-7.41,.81-2.58,1.26-3.93,3.2-3.62,4.86,2.09,.64,4.96,.39,7.41-.81,2.58-1.26,3.93-3.2,3.62-4.86Z"/>
    <path class="cls-1" d="M1050.5,7.02c.23-1.57-.98-3.55-3.34-5.08-2.49-1.62-5.52-2.26-7.67-1.78-.23,1.57,.98,3.55,3.34,5.08,2.49,1.62,5.52,2.26,7.67,1.78Z"/>
  </g>
  <g>
    <path class="cls-1" d="M1068.24,155.04c-1.28,1.51-4.03,2.56-7.23,2.56-3.38,0-6.26-1.17-7.44-2.82,1.28-1.51,4.03-2.56,7.23-2.56,3.38,0,6.26,1.17,7.44,2.82Z"/>
    <path class="cls-1" d="M1054.6,154.91c-1.35,.2-3.14-.08-4.59-.8-1.53-.76-2.25-1.78-1.93-2.57,1.35-.2,3.14,.08,4.59,.8,1.53,.76,2.25,1.78,1.93,2.57Z"/>
    <path class="cls-1" d="M1055.04,155.05c.03,.78-.86,1.68-2.45,2.3-1.68,.66-3.62,.81-4.94,.46-.03-.78,.86-1.68,2.45-2.3,1.68-.66,3.62-.81,4.94-.46Z"/>
  </g>
  <g>
    <path class="cls-1" d="M515.56,208.06c-1.66,2.4-4.96,3.87-8.65,3.53-3.9-.36-7.08-2.64-8.24-5.54,1.66-2.4,4.96-3.87,8.65-3.53,3.9,.36,7.08,2.64,8.24,5.54Z"/>
    <path class="cls-1" d="M499.85,206.39c-1.59,.19-3.61-.47-5.2-1.83-1.68-1.44-2.37-3.23-1.92-4.54,1.59-.19,3.61,.47,5.2,1.83,1.68,1.44,2.37,3.23,1.92,4.54Z"/>
    <path class="cls-1" d="M500.33,206.66c-.05,1.32-1.2,2.74-3.1,3.62-2.01,.93-4.28,.97-5.75,.24,.05-1.32,1.2-2.74,3.1-3.62,2.01-.93,4.28-.97,5.75-.24Z"/>
  </g>
  <g>
    <path class="cls-1" d="M271.09,176.31c-1.53,2.68-4.82,4.55-8.64,4.55-4.04,0-7.49-2.08-8.89-5.01,1.53-2.68,4.82-4.55,8.64-4.55,4.04,0,7.49,2.08,8.89,5.01Z"/>
    <path class="cls-1" d="M254.8,176.08c-1.62,.35-3.75-.14-5.49-1.41-1.83-1.34-2.68-3.16-2.31-4.57,1.62-.35,3.75,.14,5.49,1.41,1.83,1.34,2.68,3.16,2.31,4.57Z"/>
    <path class="cls-1" d="M255.31,176.33c.04,1.39-1.03,2.99-2.93,4.1-2,1.17-4.33,1.43-5.9,.81-.04-1.39,1.03-2.99,2.93-4.1,2-1.17,4.33-1.43,5.9-.81Z"/>
  </g>
  <g>
    <path class="cls-1" d="M45.23,123.34c-1.79-2.41-5.22-3.77-8.99-3.24-3.98,.56-7.16,3.06-8.23,6.12,1.79,2.41,5.22,3.77,8.99,3.24,3.98-.56,7.16-3.06,8.23-6.12Z"/>
    <path class="cls-1" d="M29.21,125.81c-1.63-.12-3.68,.66-5.26,2.14-1.67,1.57-2.31,3.45-1.8,4.78,1.63,.12,3.68-.66,5.26-2.14,1.67-1.57,2.31-3.45,1.8-4.78Z"/>
    <path class="cls-1" d="M29.69,125.5c-.1-1.36-1.33-2.78-3.31-3.59-2.09-.86-4.41-.8-5.9,.03,.1,1.36,1.33,2.78,3.31,3.59,2.09,.86,4.41,.8,5.9-.03Z"/>
  </g>
  <g>
    <path class="cls-1" d="M316.5,21.25c-1.51-1.29-4.39-1.89-7.55-1.38-3.34,.53-6,2.14-6.9,3.96,1.51,1.29,4.39,1.89,7.55,1.38,3.34-.53,6-2.14,6.9-3.96Z"/>
    <path class="cls-1" d="M303.06,23.53c-1.37,.02-3.09,.58-4.41,1.51-1.39,.99-1.94,2.11-1.5,2.84,1.37-.02,3.09-.58,4.41-1.51,1.39-.99,1.94-2.11,1.5-2.84Z"/>
    <path class="cls-1" d="M303.46,23.33c-.09-.78-1.12-1.52-2.78-1.89-1.76-.38-3.71-.22-4.95,.33,.09,.78,1.12,1.52,2.78,1.89,1.76,.38,3.71,.22,4.95-.33Z"/>
  </g>
  <g>
    <path class="cls-1" d="M78.74,405.08c-1.32,1.34-4.17,2.27-7.47,2.27-3.49,0-6.47-1.04-7.68-2.5,1.32-1.34,4.17-2.27,7.47-2.27,3.49,0,6.47,1.04,7.68,2.5Z"/>
    <path class="cls-1" d="M64.67,404.97c-1.4,.18-3.24-.07-4.74-.71-1.58-.67-2.32-1.58-2-2.28,1.4-.18,3.24,.07,4.74,.71,1.58,.67,2.32,1.58,2,2.28Z"/>
    <path class="cls-1" d="M65.11,405.09c.04,.69-.89,1.5-2.53,2.05-1.73,.58-3.74,.72-5.1,.4-.04-.69,.89-1.5,2.53-2.05,1.73-.58,3.74-.72,5.1-.4Z"/>
  </g>
  <g>
    <path class="cls-1" d="M149.89,332.88c-1.01,1.46-3.53,2.65-6.68,2.94-3.32,.31-6.35-.46-7.78-1.82,1.01-1.46,3.53-2.65,6.68-2.94,3.32-.31,6.35,.46,7.78,1.82Z"/>
    <path class="cls-1" d="M136.48,334.02c-1.3,.3-3.1,.22-4.64-.29-1.63-.53-2.5-1.38-2.33-2.11,1.3-.3,3.1-.22,4.64,.29,1.63,.53,2.5,1.38,2.33,2.11Z"/>
    <path class="cls-1" d="M136.92,334.1c.16,.69-.57,1.58-2.02,2.28-1.54,.74-3.42,1.05-4.77,.86-.16-.69,.57-1.58,2.02-2.28,1.54-.74,3.42-1.05,4.77-.86Z"/>
  </g>
  <g>
    <path class="cls-1" d="M458.3,216.07c-.64,1.66-2.71,3.04-5.51,3.42-2.95,.41-5.84-.41-7.39-1.92,.64-1.66,2.71-3.04,5.51-3.42,2.95-.41,5.84,.41,7.39,1.92Z"/>
    <path class="cls-1" d="M446.35,217.58c-1.12,.36-2.77,.3-4.26-.24-1.58-.57-2.53-1.5-2.51-2.33,1.12-.36,2.77-.3,4.26,.24,1.58,.57,2.53,1.5,2.51,2.33Z"/>
    <path class="cls-1" d="M446.77,217.67c.28,.77-.22,1.78-1.41,2.6-1.25,.86-2.91,1.24-4.17,1.05-.28-.77,.22-1.78,1.41-2.6,1.25-.86,2.91-1.24,4.17-1.05Z"/>
  </g>
  <g>
    <path class="cls-1" d="M285.67,470.6c-1.28,1.51-4.03,2.56-7.23,2.56-3.38,0-6.26-1.17-7.44-2.82,1.28-1.51,4.03-2.56,7.23-2.56,3.38,0,6.26,1.17,7.44,2.82Z"/>
    <path class="cls-1" d="M272.04,470.47c-1.35,.2-3.14-.08-4.59-.8-1.53-.76-2.25-1.78-1.93-2.57,1.35-.2,3.14,.08,4.59,.8,1.53,.76,2.25,1.78,1.93,2.57Z"/>
    <path class="cls-1" d="M272.47,470.61c.03,.78-.86,1.68-2.45,2.3-1.68,.66-3.62,.81-4.94,.46-.03-.78,.86-1.68,2.45-2.3,1.68-.66,3.62-.81,4.94-.46Z"/>
  </g>
  <g>
    <path class="cls-1" d="M38.18,155.3c-1.01-1.7-3.55-3.2-6.7-3.74-3.33-.57-6.37,.09-7.81,1.52,1.01,1.7,3.55,3.2,6.7,3.74,3.33,.57,6.37-.09,7.81-1.52Z"/>
    <path class="cls-1" d="M24.72,153.13c-1.3-.42-3.11-.45-4.66,.01-1.64,.49-2.51,1.37-2.34,2.21,1.3,.42,3.11,.45,4.66-.01,1.64-.49,2.51-1.37,2.34-2.21Z"/>
    <path class="cls-1" d="M25.17,153.06c.17-.76-.57-1.8-2.03-2.68-1.54-.93-3.44-1.41-4.79-1.28-.17,.76,.57,1.8,2.03,2.68,1.54,.93,3.44,1.41,4.79,1.28Z"/>
  </g>
  <g>
    <path class="cls-1" d="M275.6,21.63c-1.01-1.7-3.55-3.2-6.7-3.74-3.33-.57-6.37,.09-7.81,1.52,1.01,1.7,3.55,3.2,6.7,3.74,3.33,.57,6.37-.09,7.81-1.52Z"/>
    <path class="cls-1" d="M262.14,19.46c-1.3-.42-3.11-.45-4.66,.01-1.64,.49-2.51,1.37-2.34,2.21,1.3,.42,3.11,.45,4.66-.01,1.64-.49,2.51-1.37,2.34-2.21Z"/>
    <path class="cls-1" d="M262.59,19.39c.17-.76-.57-1.8-2.03-2.68-1.54-.93-3.44-1.41-4.79-1.28-.17,.76,.57,1.8,2.03,2.68,1.54,.93,3.44,1.41,4.79,1.28Z"/>
  </g>
  <g>
    <path class="cls-1" d="M67.05,344.01c-1.33,1.33-4.19,2.26-7.52,2.26-3.51,0-6.51-1.03-7.73-2.49,1.33-1.33,4.19-2.26,7.52-2.26,3.51,0,6.51,1.03,7.73,2.49Z"/>
    <path class="cls-1" d="M52.87,343.89c-1.41,.18-3.26-.07-4.77-.7-1.59-.67-2.33-1.57-2.01-2.27,1.41-.18,3.26,.07,4.77,.7,1.59,.67,2.33,1.57,2.01,2.27Z"/>
    <path class="cls-1" d="M53.32,344.02c.04,.69-.9,1.49-2.55,2.04-1.74,.58-3.77,.71-5.13,.4-.04-.69,.9-1.49,2.55-2.04,1.74-.58,3.77-.71,5.13-.4Z"/>
  </g>
  <g>
    <path class="cls-1" d="M943.8,139.23c-2.05-1.49-5.99-2.33-10.31-2-4.56,.34-8.21,1.89-9.45,3.78,2.05,1.49,5.99,2.33,10.31,2,4.56-.34,8.21-1.89,9.45-3.78Z"/>
    <path class="cls-1" d="M925.42,140.76c-1.87-.07-4.22,.41-6.03,1.32-1.91,.97-2.66,2.13-2.07,2.95,1.87,.07,4.22-.41,6.03-1.32,1.91-.97,2.66-2.13,2.07-2.95Z"/>
    <path class="cls-1" d="M925.97,140.57c-.12-.84-1.52-1.72-3.8-2.22-2.4-.53-5.07-.49-6.77,.02,.12,.84,1.52,1.72,3.8,2.22,2.4,.53,5.07,.49,6.77-.02Z"/>
  </g>
  <g>
    <path class="cls-1" d="M986.05,43.87c-1.22-1.56-3.93-2.72-7.14-2.86-3.38-.14-6.32,.9-7.57,2.5,1.22,1.56,3.93,2.72,7.14,2.86,3.38,.14,6.32-.9,7.57-2.5Z"/>
    <path class="cls-1" d="M972.39,43.42c-1.35-.26-3.15-.05-4.63,.6-1.57,.69-2.32,1.68-2.05,2.49,1.35,.26,3.15,.05,4.63-.6,1.57-.69,2.32-1.68,2.05-2.49Z"/>
    <path class="cls-1" d="M972.83,43.3c.07-.78-.79-1.72-2.36-2.41-1.65-.73-3.6-.96-4.93-.66-.07,.78,.79,1.72,2.36,2.41,1.65,.73,3.6,.96,4.93,.66Z"/>
  </g>
  <g>
    <path class="cls-1" d="M1198.95,495.65c-1.01-1.7-3.55-3.2-6.7-3.74-3.33-.57-6.37,.09-7.81,1.52,1.01,1.7,3.55,3.2,6.7,3.74,3.33,.57,6.37-.09,7.81-1.52Z"/>
    <path class="cls-1" d="M1185.5,493.48c-1.3-.42-3.11-.45-4.66,.01-1.64,.49-2.51,1.37-2.34,2.21,1.3,.42,3.11,.45,4.66-.01,1.64-.49,2.51-1.37,2.34-2.21Z"/>
    <path class="cls-1" d="M1185.94,493.41c.17-.76-.57-1.8-2.03-2.68-1.54-.93-3.44-1.41-4.79-1.28-.17,.76,.57,1.8,2.03,2.68,1.54,.93,3.44,1.41,4.79,1.28Z"/>
  </g>
  <g>
    <path class="cls-1" d="M1194.72,673.84c-1.01-1.7-3.55-3.2-6.7-3.74-3.33-.57-6.37,.09-7.81,1.52,1.01,1.7,3.55,3.2,6.7,3.74,3.33,.57,6.37-.09,7.81-1.52Z"/>
    <path class="cls-1" d="M1181.26,671.66c-1.3-.42-3.11-.45-4.66,.01-1.64,.49-2.51,1.37-2.34,2.21,1.3,.42,3.11,.45,4.66-.01,1.64-.49,2.51-1.37,2.34-2.21Z"/>
    <path class="cls-1" d="M1181.71,671.6c.17-.76-.57-1.8-2.03-2.68-1.54-.93-3.44-1.41-4.79-1.28-.17,.76,.57,1.8,2.03,2.68,1.54,.93,3.44,1.41,4.79,1.28Z"/>
  </g>
  <g>
    <path class="cls-1" d="M1041.16,529.61c-1.01-1.7-3.55-3.2-6.7-3.74-3.33-.57-6.37,.09-7.81,1.52,1.01,1.7,3.55,3.2,6.7,3.74,3.33,.57,6.37-.09,7.81-1.52Z"/>
    <path class="cls-1" d="M1027.7,527.44c-1.3-.42-3.11-.45-4.66,.01-1.64,.49-2.51,1.37-2.34,2.21,1.3,.42,3.11,.45,4.66-.01,1.64-.49,2.51-1.37,2.34-2.21Z"/>
    <path class="cls-1" d="M1028.15,527.37c.17-.76-.57-1.8-2.03-2.68-1.54-.93-3.44-1.41-4.79-1.28-.17,.76,.57,1.8,2.03,2.68,1.54,.93,3.44,1.41,4.79,1.28Z"/>
  </g>
  <g>
    <path class="cls-1" d="M694.65,524.41c-1.89,1.09-5.73,1.78-10.07,1.68-4.59-.11-8.4-1.07-9.84-2.34,1.89-1.09,5.73-1.78,10.07-1.68,4.59,.11,8.4,1.07,9.84,2.34Z"/>
    <path class="cls-1" d="M676.14,523.88c-1.86,.11-4.26-.16-6.16-.74-2.01-.61-2.88-1.4-2.38-1.98,1.86-.11,4.26,.16,6.16,.74,2.01,.61,2.88,1.4,2.38,1.98Z"/>
    <path class="cls-1" d="M676.71,524c-.03,.58-1.34,1.23-3.55,1.64-2.34,.44-5,.49-6.75,.18,.03-.58,1.34-1.23,3.55-1.64,2.34-.44,5-.49,6.75-.18Z"/>
  </g>
  <g>
    <path class="cls-1" d="M1164.85,287.39c-1.01-1.7-3.55-3.2-6.7-3.74-3.33-.57-6.37,.09-7.81,1.52,1.01,1.7,3.55,3.2,6.7,3.74,3.33,.57,6.37-.09,7.81-1.52Z"/>
    <path class="cls-1" d="M1151.39,285.21c-1.3-.42-3.11-.45-4.66,.01-1.64,.49-2.51,1.37-2.34,2.21,1.3,.42,3.11,.45,4.66-.01,1.64-.49,2.51-1.37,2.34-2.21Z"/>
    <path class="cls-1" d="M1151.84,285.15c.17-.76-.57-1.8-2.03-2.68-1.54-.93-3.44-1.41-4.79-1.28-.17,.76,.57,1.8,2.03,2.68,1.54,.93,3.44,1.41,4.79,1.28Z"/>
  </g>
  <g>
    <path class="cls-1" d="M1235.36,432.16c-1.33,1.33-4.19,2.26-7.52,2.26-3.51,0-6.51-1.03-7.73-2.49,1.33-1.33,4.19-2.26,7.52-2.26,3.51,0,6.51,1.03,7.73,2.49Z"/>
    <path class="cls-1" d="M1221.18,432.05c-1.41,.18-3.26-.07-4.77-.7-1.59-.67-2.33-1.57-2.01-2.27,1.41-.18,3.26,.07,4.77,.7,1.59,.67,2.33,1.57,2.01,2.27Z"/>
    <path class="cls-1" d="M1221.63,432.17c.04,.69-.9,1.49-2.55,2.04-1.74,.58-3.77,.71-5.13,.4-.04-.69,.9-1.49,2.55-2.04,1.74-.58,3.77-.71,5.13-.4Z"/>
  </g>
  <g>
    <path class="cls-1" d="M1220.26,273.72c-1.01-1.7-3.55-3.2-6.7-3.74-3.33-.57-6.37,.09-7.81,1.52,1.01,1.7,3.55,3.2,6.7,3.74,3.33,.57,6.37-.09,7.81-1.52Z"/>
    <path class="cls-1" d="M1206.81,271.54c-1.3-.42-3.11-.45-4.66,.01-1.64,.49-2.51,1.37-2.34,2.21,1.3,.42,3.11,.45,4.66-.01,1.64-.49,2.51-1.37,2.34-2.21Z"/>
    <path class="cls-1" d="M1207.25,271.48c.17-.76-.57-1.8-2.03-2.68-1.54-.93-3.44-1.41-4.79-1.28-.17,.76,.57,1.8,2.03,2.68,1.54,.93,3.44,1.41,4.79,1.28Z"/>
  </g>
  <g>
    <path class="cls-1" d="M1259.14,264.63c-1.28,1.51-4.03,2.56-7.23,2.56-3.38,0-6.26-1.17-7.44-2.82,1.28-1.51,4.03-2.56,7.23-2.56,3.38,0,6.26,1.17,7.44,2.82Z"/>
    <path class="cls-1" d="M1245.51,264.5c-1.35,.2-3.14-.08-4.59-.8-1.53-.76-2.25-1.78-1.93-2.57,1.35-.2,3.14,.08,4.59,.8,1.53,.76,2.25,1.78,1.93,2.57Z"/>
    <path class="cls-1" d="M1245.94,264.64c.03,.78-.86,1.68-2.45,2.3-1.68,.66-3.62,.81-4.94,.46-.03-.78,.86-1.68,2.45-2.3,1.68-.66,3.62-.81,4.94-.46Z"/>
  </g>
  <g>
    <path class="cls-1" d="M223.49,541.9c-1.3,3.45-5.07,6.49-10.01,7.62-5.22,1.19-10.2-.1-12.76-2.96,1.3-3.45,5.07-6.49,10.01-7.62,5.22-1.19,10.2,.1,12.76,2.96Z"/>
    <path class="cls-1" d="M202.38,546.46c-2,.87-4.88,.95-7.45,.04-2.71-.96-4.27-2.73-4.15-4.41,2-.87,4.88-.95,7.45-.04,2.71,.96,4.27,2.73,4.15,4.41Z"/>
    <path class="cls-1" d="M203.11,546.58c.41,1.53-.57,3.64-2.74,5.43-2.29,1.89-5.23,2.88-7.42,2.64-.41-1.53,.57-3.64,2.74-5.43,2.29-1.89,5.23-2.88,7.42-2.64Z"/>
  </g>
  <g>
    <path class="cls-1" d="M510.58,400.79c-2.39-2.8-6.97-4.38-12-3.77-5.31,.65-9.56,3.56-11,7.11,2.39,2.8,6.97,4.38,12,3.77,5.31-.65,9.56-3.56,11-7.11Z"/>
    <path class="cls-1" d="M489.17,403.67c-2.18-.14-4.92,.76-7.02,2.49-2.22,1.82-3.09,4.02-2.41,5.56,2.18,.14,4.92-.76,7.02-2.49,2.22-1.82,3.09-4.02,2.41-5.56Z"/>
    <path class="cls-1" d="M489.82,403.31c-.14-1.58-1.77-3.23-4.42-4.18-2.8-1-5.9-.93-7.88,.03,.14,1.58,1.77,3.23,4.42,4.18,2.8,1,5.9,.93,7.88-.03Z"/>
  </g>
  <g>
    <path class="cls-1" d="M680.64,667.25c-1.3,3.45-5.07,6.49-10.01,7.62-5.22,1.19-10.2-.1-12.76-2.96,1.3-3.45,5.07-6.49,10.01-7.62,5.22-1.19,10.2,.1,12.76,2.96Z"/>
    <path class="cls-1" d="M659.53,671.81c-2,.87-4.88,.95-7.45,.04-2.71-.96-4.27-2.73-4.15-4.41,2-.87,4.88-.95,7.45-.04,2.71,.96,4.27,2.73,4.15,4.41Z"/>
    <path class="cls-1" d="M660.26,671.93c.41,1.53-.57,3.64-2.74,5.43-2.29,1.89-5.23,2.88-7.42,2.64-.41-1.53,.57-3.64,2.74-5.43,2.29-1.89,5.23-2.88,7.42-2.64Z"/>
  </g>
  <g>
    <path class="cls-1" d="M94.75,618.89c-2.05-1.49-5.99-2.33-10.31-2-4.56,.34-8.21,1.89-9.45,3.78,2.05,1.49,5.99,2.33,10.31,2,4.56-.34,8.21-1.89,9.45-3.78Z"/>
    <path class="cls-1" d="M76.37,620.42c-1.87-.07-4.22,.41-6.03,1.32-1.91,.97-2.66,2.13-2.07,2.95,1.87,.07,4.22-.41,6.03-1.32,1.91-.97,2.66-2.13,2.07-2.95Z"/>
    <path class="cls-1" d="M76.92,620.23c-.12-.84-1.52-1.72-3.8-2.22-2.4-.53-5.07-.49-6.77,.02,.12,.84,1.52,1.72,3.8,2.22,2.4,.53,5.07,.49,6.77-.02Z"/>
  </g>
  <g>
    <path class="cls-1" d="M20.59,631.7c-1.28,1.51-4.03,2.56-7.23,2.56-3.38,0-6.26-1.17-7.44-2.82,1.28-1.51,4.03-2.56,7.23-2.56,3.38,0,6.26,1.17,7.44,2.82Z"/>
    <path class="cls-1" d="M6.96,631.57c-1.35,.2-3.14-.08-4.59-.8-1.53-.76-2.25-1.78-1.93-2.57,1.35-.2,3.14,.08,4.59,.8,1.53,.76,2.25,1.78,1.93,2.57Z"/>
    <path class="cls-1" d="M7.39,631.71c.03,.78-.86,1.68-2.45,2.3-1.68,.66-3.62,.81-4.94,.46-.03-.78,.86-1.68,2.45-2.3,1.68-.66,3.62-.81,4.94-.46Z"/>
  </g>
  <g>
    <path class="cls-1" d="M141.21,669.38c-1.01-1.7-3.55-3.2-6.7-3.74-3.33-.57-6.37,.09-7.81,1.52,1.01,1.7,3.55,3.2,6.7,3.74,3.33,.57,6.37-.09,7.81-1.52Z"/>
    <path class="cls-1" d="M127.76,667.21c-1.3-.42-3.11-.45-4.66,.01-1.64,.49-2.51,1.37-2.34,2.21,1.3,.42,3.11,.45,4.66-.01,1.64-.49,2.51-1.37,2.34-2.21Z"/>
    <path class="cls-1" d="M128.2,667.14c.17-.76-.57-1.8-2.03-2.68-1.54-.93-3.44-1.41-4.79-1.28-.17,.76,.57,1.8,2.03,2.68,1.54,.93,3.44,1.41,4.79,1.28Z"/>
  </g>
  <g>
    <path class="cls-1" d="M780.2,4.81c-1.28,1.51-4.03,2.56-7.23,2.56-3.38,0-6.26-1.17-7.44-2.82,1.28-1.51,4.03-2.56,7.23-2.56,3.38,0,6.26,1.17,7.44,2.82Z"/>
    <path class="cls-1" d="M766.57,4.68c-1.35,.2-3.14-.08-4.59-.8-1.53-.76-2.25-1.78-1.93-2.57,1.35-.2,3.14,.08,4.59,.8,1.53,.76,2.25,1.78,1.93,2.57Z"/>
    <path class="cls-1" d="M767,4.82c.03,.78-.86,1.68-2.45,2.3-1.68,.66-3.62,.81-4.94,.46-.03-.78,.86-1.68,2.45-2.3,1.68-.66,3.62-.81,4.94-.46Z"/>
  </g>
  <g>
    <path class="cls-1" d="M759.6,203.8c-1.28,1.51-4.03,2.56-7.23,2.56-3.38,0-6.26-1.17-7.44-2.82,1.28-1.51,4.03-2.56,7.23-2.56,3.38,0,6.26,1.17,7.44,2.82Z"/>
    <path class="cls-1" d="M745.97,203.67c-1.35,.2-3.14-.08-4.59-.8-1.53-.76-2.25-1.78-1.93-2.57,1.35-.2,3.14,.08,4.59,.8,1.53,.76,2.25,1.78,1.93,2.57Z"/>
    <path class="cls-1" d="M746.4,203.81c.03,.78-.86,1.68-2.45,2.3-1.68,.66-3.62,.81-4.94,.46-.03-.78,.86-1.68,2.45-2.3,1.68-.66,3.62-.81,4.94-.46Z"/>
  </g>
</svg>