<?xml version="1.0" encoding="UTF-8"?>
<svg id="Layer_1" data-name="Layer 1" xmlns="http://www.w3.org/2000/svg" viewBox="0 0 1259.14 700.65">
  <defs>
    <style>
      .cls-1 {
        fill: #01121e;
      }
    </style>
  </defs>
  <g>
    <path class="cls-1" d="M1191.66,612.22c-2.03,3.07-6.39,5.2-11.46,5.2-5.35,0-9.92-2.37-11.78-5.73,2.03-3.07,6.39-5.2,11.46-5.2,5.35,0,9.92,2.37,11.78,5.73Z"/>
    <path class="cls-1" d="M1170.06,611.96c-2.15,.4-4.97-.16-7.27-1.62-2.43-1.54-3.56-3.61-3.06-5.23,2.15-.4,4.97,.16,7.27,1.62,2.43,1.54,3.56,3.61,3.06,5.23Z"/>
    <path class="cls-1" d="M1170.75,612.24c.06,1.59-1.37,3.42-3.88,4.69-2.65,1.34-5.74,1.64-7.82,.93-.06-1.59,1.37-3.42,3.88-4.69,2.65-1.34,5.74-1.64,7.82-.93Z"/>
  </g>
  <g>
    <path class="cls-1" d="M995.29,43.01c-.22-3.67-2.92-7.7-7.31-10.24-4.63-2.68-9.77-2.92-13.06-.95,.22,3.67,2.92,7.7,7.31,10.24,4.63,2.68,9.77,2.92,13.06,.95Z"/>
    <path class="cls-1" d="M976.47,32.41c-1.65-1.43-4.38-2.35-7.1-2.25-2.87,.11-4.89,1.34-5.27,2.99,1.65,1.43,4.38,2.35,7.1,2.25,2.87-.11,4.89-1.34,5.27-2.99Z"/>
    <path class="cls-1" d="M977.2,32.51c.84-1.34,.53-3.65-1.01-6-1.63-2.49-4.14-4.3-6.3-4.72-.84,1.34-.53,3.65,1.01,6,1.63,2.49,4.14,4.3,6.3,4.72Z"/>
  </g>
  <g>
    <path class="cls-1" d="M1175.67,177.7c-1.68-3.27-5.78-5.87-10.81-6.43-5.32-.59-10.12,1.27-12.34,4.4,1.68,3.27,5.78,5.87,10.81,6.43,5.32,.59,10.12-1.27,12.34-4.4Z"/>
    <path class="cls-1" d="M1154.18,175.59c-2.09-.64-4.96-.39-7.41,.81-2.58,1.26-3.93,3.2-3.62,4.86,2.09,.64,4.96,.39,7.41-.81,2.58-1.26,3.93-3.2,3.62-4.86Z"/>
    <path class="cls-1" d="M1154.89,175.38c.23-1.57-.98-3.55-3.34-5.08-2.49-1.62-5.52-2.26-7.67-1.78-.23,1.57,.98,3.55,3.34,5.08,2.49,1.62,5.52,2.26,7.67,1.78Z"/>
  </g>
  <g>
    <path class="cls-1" d="M1063.63,626.4c-1.28,1.51-4.03,2.56-7.23,2.56-3.38,0-6.26-1.17-7.44-2.82,1.28-1.51,4.03-2.56,7.23-2.56,3.38,0,6.26,1.17,7.44,2.82Z"/>
    <path class="cls-1" d="M1050,626.27c-1.35,.2-3.14-.08-4.59-.8-1.53-.76-2.25-1.78-1.93-2.57,1.35-.2,3.14,.08,4.59,.8,1.53,.76,2.25,1.78,1.93,2.57Z"/>
    <path class="cls-1" d="M1050.43,626.41c.03,.78-.86,1.68-2.45,2.3-1.68,.66-3.62,.81-4.94,.46-.03-.78,.86-1.68,2.45-2.3,1.68-.66,3.62-.81,4.94-.46Z"/>
  </g>
  <g>
    <path class="cls-1" d="M649.59,491.19c-1.01-1.7-3.55-3.2-6.7-3.74-3.33-.57-6.37,.09-7.81,1.52,1.01,1.7,3.55,3.2,6.7,3.74,3.33,.57,6.37-.09,7.81-1.52Z"/>
    <path class="cls-1" d="M636.13,489.02c-1.3-.42-3.11-.45-4.66,.01-1.64,.49-2.51,1.37-2.34,2.21,1.3,.42,3.11,.45,4.66-.01,1.64-.49,2.51-1.37,2.34-2.21Z"/>
    <path class="cls-1" d="M636.57,488.95c.17-.76-.57-1.8-2.03-2.68-1.54-.93-3.44-1.41-4.79-1.28-.17,.76,.57,1.8,2.03,2.68,1.54,.93,3.44,1.41,4.79,1.28Z"/>
  </g>
  <g>
    <path class="cls-1" d="M1018.3,311.55c-1.3,3.45-5.07,6.49-10.01,7.62-5.22,1.19-10.2-.1-12.76-2.96,1.3-3.45,5.07-6.49,10.01-7.62,5.22-1.19,10.2,.1,12.76,2.96Z"/>
    <path class="cls-1" d="M997.19,316.1c-2,.87-4.88,.95-7.45,.04-2.71-.96-4.27-2.73-4.15-4.41,2-.87,4.88-.95,7.45-.04,2.71,.96,4.27,2.73,4.15,4.41Z"/>
    <path class="cls-1" d="M997.92,316.22c.41,1.53-.57,3.64-2.74,5.43-2.29,1.89-5.23,2.88-7.42,2.64-.41-1.53,.57-3.64,2.74-5.43,2.29-1.89,5.23-2.88,7.42-2.64Z"/>
  </g>
  <g>
    <path class="cls-1" d="M619.03,159.81c-1.01-1.7-3.55-3.2-6.7-3.74-3.33-.57-6.37,.09-7.81,1.52,1.01,1.7,3.55,3.2,6.7,3.74,3.33,.57,6.37-.09,7.81-1.52Z"/>
    <path class="cls-1" d="M605.57,157.64c-1.3-.42-3.11-.45-4.66,.01-1.64,.49-2.51,1.37-2.34,2.21,1.3,.42,3.11,.45,4.66-.01,1.64-.49,2.51-1.37,2.34-2.21Z"/>
    <path class="cls-1" d="M606.02,157.57c.17-.76-.57-1.8-2.03-2.68-1.54-.93-3.44-1.41-4.79-1.28-.17,.76,.57,1.8,2.03,2.68,1.54,.93,3.44,1.41,4.79,1.28Z"/>
  </g>
  <g>
    <path class="cls-1" d="M110.49,524.92c-2.03,3.07-6.39,5.2-11.46,5.2-5.35,0-9.92-2.37-11.78-5.73,2.03-3.07,6.39-5.2,11.46-5.2,5.35,0,9.92,2.37,11.78,5.73Z"/>
    <path class="cls-1" d="M88.89,524.66c-2.15,.4-4.97-.16-7.27-1.62-2.43-1.54-3.56-3.61-3.06-5.23,2.15-.4,4.97,.16,7.27,1.62,2.43,1.54,3.56,3.61,3.06,5.23Z"/>
    <path class="cls-1" d="M89.58,524.94c.06,1.59-1.37,3.42-3.88,4.69-2.65,1.34-5.74,1.64-7.82,.93-.06-1.59,1.37-3.42,3.88-4.69,2.65-1.34,5.74-1.64,7.82-.93Z"/>
  </g>
  <g>
    <path class="cls-1" d="M438.63,149.17c-2.39-2.8-6.97-4.38-12-3.77-5.31,.65-9.56,3.56-11,7.11,2.39,2.8,6.97,4.38,12,3.77,5.31-.65,9.56-3.56,11-7.11Z"/>
    <path class="cls-1" d="M417.22,152.05c-2.18-.14-4.92,.76-7.02,2.49-2.22,1.82-3.09,4.02-2.41,5.56,2.18,.14,4.92-.76,7.02-2.49,2.22-1.82,3.09-4.02,2.41-5.56Z"/>
    <path class="cls-1" d="M417.86,151.68c-.14-1.58-1.77-3.23-4.42-4.18-2.8-1-5.9-.93-7.88,.03,.14,1.58,1.77,3.23,4.42,4.18,2.8,1,5.9,.93,7.88-.03Z"/>
  </g>
  <g>
    <path class="cls-1" d="M71.46,186.1c-1.28,1.51-4.03,2.56-7.23,2.56-3.38,0-6.26-1.17-7.44-2.82,1.28-1.51,4.03-2.56,7.23-2.56,3.38,0,6.26,1.17,7.44,2.82Z"/>
    <path class="cls-1" d="M57.83,185.97c-1.35,.2-3.14-.08-4.59-.8-1.53-.76-2.25-1.78-1.93-2.57,1.35-.2,3.14,.08,4.59,.8,1.53,.76,2.25,1.78,1.93,2.57Z"/>
    <path class="cls-1" d="M58.26,186.11c.03,.78-.86,1.68-2.45,2.3-1.68,.66-3.62,.81-4.94,.46-.03-.78,.86-1.68,2.45-2.3,1.68-.66,3.62-.81,4.94-.46Z"/>
  </g>
  <g>
    <path class="cls-1" d="M124.55,356.96c-.05,3.68-2.56,7.83-6.82,10.57-4.5,2.9-9.63,3.37-13.01,1.56,.05-3.68,2.56-7.83,6.82-10.57,4.5-2.9,9.63-3.37,13.01-1.56Z"/>
    <path class="cls-1" d="M106.26,368.43c-1.59,1.5-4.27,2.55-6.99,2.58-2.87,.02-4.95-1.11-5.41-2.74,1.59-1.5,4.27-2.55,6.99-2.58,2.87-.02,4.95,1.11,5.41,2.74Z"/>
    <path class="cls-1" d="M106.98,368.3c.9,1.3,.7,3.62-.73,6.04-1.51,2.56-3.94,4.49-6.08,5.01-.9-1.3-.7-3.62,.73-6.04,1.51-2.56,3.94-4.49,6.08-5.01Z"/>
  </g>
  <g>
    <path class="cls-1" d="M375.52,671.27c-1.83-.76-4.76-.43-7.6,1.04-3,1.55-5.03,3.9-5.33,5.91,1.83,.76,4.76,.43,7.6-1.04,3-1.55,5.03-3.9,5.33-5.91Z"/>
    <path class="cls-1" d="M363.46,677.62c-1.3,.44-2.75,1.51-3.72,2.81-1.02,1.37-1.18,2.61-.54,3.17,1.3-.44,2.75-1.51,3.72-2.81,1.02-1.37,1.18-2.61,.54-3.17Z"/>
    <path class="cls-1" d="M363.78,677.3c-.33-.71-1.54-1.1-3.23-.93-1.79,.18-3.59,.94-4.6,1.85,.33,.71,1.54,1.1,3.23,.93,1.79-.18,3.59-.94,4.6-1.85Z"/>
  </g>
</svg>